<svg width="125" height="125" viewBox="0 0 125 125" fill="none" xmlns="http://www.w3.org/2000/svg">
<path d="M124.5 0.5H0.5V124.5H124.5V0.5Z" fill="#8C8C8C" fill-opacity="0.9" stroke="#2C3637"/>
<path d="M45.2119 33H42.4521L42.4697 31.1016H45.2119C45.9561 31.1016 46.5801 30.9375 47.084 30.6094C47.5879 30.2754 47.9688 29.7979 48.2266 29.1768C48.4844 28.5498 48.6133 27.7998 48.6133 26.9268V26.2676C48.6133 25.5938 48.54 24.999 48.3936 24.4834C48.2471 23.9678 48.0303 23.5342 47.7432 23.1826C47.4619 22.8311 47.1133 22.5645 46.6973 22.3828C46.2812 22.2012 45.8037 22.1104 45.2646 22.1104H42.3994V20.2031H45.2646C46.1201 20.2031 46.8994 20.3467 47.6025 20.6338C48.3115 20.9209 48.9238 21.334 49.4395 21.873C49.9609 22.4062 50.3594 23.0449 50.6348 23.7891C50.916 24.5332 51.0566 25.3652 51.0566 26.2852V26.9268C51.0566 27.8408 50.916 28.6729 50.6348 29.4229C50.3594 30.167 49.9609 30.8057 49.4395 31.3389C48.9238 31.8721 48.3086 32.2822 47.5938 32.5693C46.8789 32.8564 46.085 33 45.2119 33ZM43.8057 20.2031V33H41.3887V20.2031H43.8057ZM55.2578 25.4326V33H52.9375V23.4902H55.1348L55.2578 25.4326ZM58.1494 23.4287L58.1143 25.5908C57.9854 25.5674 57.8389 25.5498 57.6748 25.5381C57.5166 25.5264 57.3672 25.5205 57.2266 25.5205C56.8691 25.5205 56.5557 25.5703 56.2861 25.6699C56.0166 25.7637 55.791 25.9014 55.6094 26.083C55.4336 26.2646 55.2988 26.4873 55.2051 26.751C55.1113 27.0088 55.0586 27.3018 55.0469 27.6299L54.5459 27.5684C54.5459 26.9648 54.6074 26.4053 54.7305 25.8896C54.8535 25.374 55.0322 24.9229 55.2666 24.5361C55.501 24.1494 55.7939 23.8506 56.1455 23.6396C56.5029 23.4229 56.9131 23.3145 57.376 23.3145C57.5049 23.3145 57.6426 23.3262 57.7891 23.3496C57.9414 23.3672 58.0615 23.3936 58.1494 23.4287ZM61.8848 23.4902V33H59.5557V23.4902H61.8848ZM59.3975 21.0029C59.3975 20.6572 59.5146 20.3701 59.749 20.1416C59.9893 19.9131 60.3115 19.7988 60.7158 19.7988C61.1201 19.7988 61.4395 19.9131 61.6738 20.1416C61.9141 20.3701 62.0342 20.6572 62.0342 21.0029C62.0342 21.3428 61.9141 21.627 61.6738 21.8555C61.4395 22.084 61.1201 22.1982 60.7158 22.1982C60.3115 22.1982 59.9893 22.084 59.749 21.8555C59.5146 21.627 59.3975 21.3428 59.3975 21.0029ZM68.5996 23.4902V25.1602H63.1504V23.4902H68.5996ZM64.6094 21.1523H66.9385V30.2578C66.9385 30.5391 66.9766 30.7559 67.0527 30.9082C67.1289 31.0605 67.2432 31.1631 67.3955 31.2158C67.5479 31.2686 67.7295 31.2949 67.9404 31.2949C68.0928 31.2949 68.2334 31.2861 68.3623 31.2686C68.4912 31.251 68.5996 31.2334 68.6875 31.2158L68.6963 32.9561C68.5029 33.0205 68.2832 33.0732 68.0371 33.1143C67.7969 33.1553 67.5244 33.1758 67.2197 33.1758C66.6982 33.1758 66.2412 33.0879 65.8486 32.9121C65.4561 32.7305 65.1514 32.4404 64.9346 32.042C64.7178 31.6377 64.6094 31.1045 64.6094 30.4424V21.1523ZM74.6465 23.4902V25.1602H69.1973V23.4902H74.6465ZM70.6562 21.1523H72.9854V30.2578C72.9854 30.5391 73.0234 30.7559 73.0996 30.9082C73.1758 31.0605 73.29 31.1631 73.4424 31.2158C73.5947 31.2686 73.7764 31.2949 73.9873 31.2949C74.1396 31.2949 74.2803 31.2861 74.4092 31.2686C74.5381 31.251 74.6465 31.2334 74.7344 31.2158L74.7432 32.9561C74.5498 33.0205 74.3301 33.0732 74.084 33.1143C73.8438 33.1553 73.5713 33.1758 73.2666 33.1758C72.7451 33.1758 72.2881 33.0879 71.8955 32.9121C71.5029 32.7305 71.1982 32.4404 70.9814 32.042C70.7646 31.6377 70.6562 31.1045 70.6562 30.4424V21.1523ZM80.4648 33.1758C79.7441 33.1758 79.0967 33.0586 78.5225 32.8242C77.9482 32.5898 77.459 32.2646 77.0547 31.8486C76.6562 31.4268 76.3486 30.9375 76.1318 30.3809C75.9209 29.8184 75.8154 29.2148 75.8154 28.5703V28.2188C75.8154 27.4863 75.9209 26.8213 76.1318 26.2236C76.3428 25.6201 76.6416 25.1016 77.0283 24.668C77.415 24.2344 77.8779 23.9004 78.417 23.666C78.9561 23.4316 79.5508 23.3145 80.2012 23.3145C80.875 23.3145 81.4697 23.4287 81.9854 23.6572C82.501 23.8799 82.9316 24.1963 83.2773 24.6064C83.623 25.0166 83.8838 25.5088 84.0596 26.083C84.2354 26.6514 84.3232 27.2812 84.3232 27.9727V28.9482H76.8701V27.3486H82.0381V27.1729C82.0264 26.8037 81.9561 26.4668 81.8271 26.1621C81.6982 25.8516 81.499 25.6055 81.2295 25.4238C80.96 25.2363 80.6113 25.1426 80.1836 25.1426C79.8379 25.1426 79.5361 25.2188 79.2783 25.3711C79.0264 25.5176 78.8154 25.7285 78.6455 26.0039C78.4814 26.2734 78.3584 26.5957 78.2764 26.9707C78.1943 27.3457 78.1533 27.7617 78.1533 28.2188V28.5703C78.1533 28.9688 78.2061 29.3379 78.3115 29.6777C78.4229 30.0176 78.584 30.3135 78.7949 30.5654C79.0117 30.8115 79.2695 31.0049 79.5684 31.1455C79.873 31.2803 80.2188 31.3477 80.6055 31.3477C81.0918 31.3477 81.5312 31.2539 81.9238 31.0664C82.3223 30.873 82.668 30.5889 82.9609 30.2139L84.1299 31.4268C83.9307 31.7197 83.6611 32.001 83.3213 32.2705C82.9873 32.54 82.583 32.7598 82.1084 32.9297C81.6338 33.0938 81.0859 33.1758 80.4648 33.1758ZM15.2764 41.2031V54H12.8594V41.2031H15.2764ZM19.9873 46.5205V54H17.667V44.4902H19.8467L19.9873 46.5205ZM19.6182 48.9023H18.9326C18.9385 48.2109 19.0322 47.584 19.2139 47.0215C19.3955 46.459 19.6504 45.9756 19.9785 45.5713C20.3125 45.167 20.708 44.8564 21.165 44.6396C21.6221 44.4229 22.1318 44.3145 22.6943 44.3145C23.1514 44.3145 23.5645 44.3789 23.9336 44.5078C24.3027 44.6367 24.6191 44.8418 24.8828 45.123C25.1523 45.4043 25.3574 45.7734 25.498 46.2305C25.6445 46.6816 25.7178 47.2383 25.7178 47.9004V54H23.3799V47.8828C23.3799 47.4492 23.3154 47.1064 23.1865 46.8545C23.0635 46.6025 22.8818 46.4238 22.6416 46.3184C22.4072 46.2129 22.1172 46.1602 21.7715 46.1602C21.4141 46.1602 21.1006 46.2334 20.8311 46.3799C20.5674 46.5205 20.3447 46.7168 20.1631 46.9688C19.9873 47.2207 19.8525 47.5107 19.7588 47.8389C19.665 48.167 19.6182 48.5215 19.6182 48.9023ZM32.9951 51.3984C32.9951 51.1992 32.9424 51.0205 32.8369 50.8623C32.7314 50.7041 32.5322 50.5605 32.2393 50.4316C31.9521 50.2969 31.5303 50.1709 30.9736 50.0537C30.4814 49.9482 30.0273 49.8164 29.6113 49.6582C29.1953 49.5 28.8379 49.3096 28.5391 49.0869C28.2402 48.8584 28.0059 48.5918 27.8359 48.2871C27.6719 47.9766 27.5898 47.6191 27.5898 47.2148C27.5898 46.8223 27.6748 46.4531 27.8447 46.1074C28.0146 45.7559 28.2607 45.4482 28.583 45.1846C28.9053 44.915 29.2979 44.7041 29.7607 44.5518C30.2236 44.3936 30.7451 44.3145 31.3252 44.3145C32.1338 44.3145 32.8281 44.4463 33.4082 44.71C33.9941 44.9736 34.4424 45.3369 34.7529 45.7998C35.0635 46.2568 35.2188 46.7725 35.2188 47.3467H32.8984C32.8984 47.0947 32.8398 46.8662 32.7227 46.6611C32.6113 46.4561 32.4385 46.292 32.2041 46.1689C31.9697 46.04 31.6738 45.9756 31.3164 45.9756C30.9941 45.9756 30.7217 46.0283 30.499 46.1338C30.2822 46.2393 30.1182 46.377 30.0068 46.5469C29.8955 46.7168 29.8398 46.9043 29.8398 47.1094C29.8398 47.2617 29.8691 47.3994 29.9277 47.5225C29.9922 47.6396 30.0947 47.748 30.2354 47.8477C30.376 47.9473 30.5664 48.0381 30.8066 48.1201C31.0527 48.2021 31.3545 48.2812 31.7119 48.3574C32.4209 48.498 33.0391 48.6855 33.5664 48.9199C34.0996 49.1484 34.5156 49.4531 34.8145 49.834C35.1133 50.2148 35.2627 50.7012 35.2627 51.293C35.2627 51.7148 35.1719 52.1016 34.9902 52.4531C34.8086 52.7988 34.5449 53.1006 34.1992 53.3584C33.8535 53.6162 33.4404 53.8184 32.96 53.9648C32.4795 54.1055 31.9375 54.1758 31.334 54.1758C30.4609 54.1758 29.7227 54.0205 29.1191 53.71C28.5156 53.3936 28.0586 52.9951 27.748 52.5146C27.4375 52.0283 27.2822 51.5244 27.2822 51.0029H29.5059C29.5234 51.3721 29.623 51.668 29.8047 51.8906C29.9863 52.1133 30.2148 52.2744 30.4902 52.374C30.7715 52.4678 31.0674 52.5146 31.3779 52.5146C31.7295 52.5146 32.0254 52.4678 32.2656 52.374C32.5059 52.2744 32.6875 52.1426 32.8105 51.9785C32.9336 51.8086 32.9951 51.6152 32.9951 51.3984ZM41.5293 44.4902V46.1602H36.0801V44.4902H41.5293ZM37.5391 42.1523H39.8682V51.2578C39.8682 51.5391 39.9062 51.7559 39.9824 51.9082C40.0586 52.0605 40.1729 52.1631 40.3252 52.2158C40.4775 52.2686 40.6592 52.2949 40.8701 52.2949C41.0225 52.2949 41.1631 52.2861 41.292 52.2686C41.4209 52.251 41.5293 52.2334 41.6172 52.2158L41.626 53.9561C41.4326 54.0205 41.2129 54.0732 40.9668 54.1143C40.7266 54.1553 40.4541 54.1758 40.1494 54.1758C39.6279 54.1758 39.1709 54.0879 38.7783 53.9121C38.3857 53.7305 38.0811 53.4404 37.8643 53.042C37.6475 52.6377 37.5391 52.1045 37.5391 51.4424V42.1523ZM45.5371 44.4902V54H43.208V44.4902H45.5371ZM43.0498 42.0029C43.0498 41.6572 43.167 41.3701 43.4014 41.1416C43.6416 40.9131 43.9639 40.7988 44.3682 40.7988C44.7725 40.7988 45.0918 40.9131 45.3262 41.1416C45.5664 41.3701 45.6865 41.6572 45.6865 42.0029C45.6865 42.3428 45.5664 42.627 45.3262 42.8555C45.0918 43.084 44.7725 43.1982 44.3682 43.1982C43.9639 43.1982 43.6416 43.084 43.4014 42.8555C43.167 42.627 43.0498 42.3428 43.0498 42.0029ZM52.252 44.4902V46.1602H46.8027V44.4902H52.252ZM48.2617 42.1523H50.5908V51.2578C50.5908 51.5391 50.6289 51.7559 50.7051 51.9082C50.7812 52.0605 50.8955 52.1631 51.0479 52.2158C51.2002 52.2686 51.3818 52.2949 51.5928 52.2949C51.7451 52.2949 51.8857 52.2861 52.0146 52.2686C52.1436 52.251 52.252 52.2334 52.3398 52.2158L52.3486 53.9561C52.1553 54.0205 51.9355 54.0732 51.6895 54.1143C51.4492 54.1553 51.1768 54.1758 50.8721 54.1758C50.3506 54.1758 49.8936 54.0879 49.501 53.9121C49.1084 53.7305 48.8037 53.4404 48.5869 53.042C48.3701 52.6377 48.2617 52.1045 48.2617 51.4424V42.1523ZM59.459 51.7412V44.4902H61.7969V54H59.5996L59.459 51.7412ZM59.7578 49.7725L60.4785 49.7549C60.4785 50.3936 60.4082 50.9824 60.2676 51.5215C60.127 52.0605 59.9072 52.5293 59.6084 52.9277C59.3154 53.3203 58.9434 53.6279 58.4922 53.8506C58.041 54.0674 57.5078 54.1758 56.8926 54.1758C56.4238 54.1758 55.9961 54.1113 55.6094 53.9824C55.2227 53.8477 54.8887 53.6396 54.6074 53.3584C54.332 53.0713 54.1182 52.7051 53.9658 52.2598C53.8135 51.8086 53.7373 51.2666 53.7373 50.6338V44.4902H56.0576V50.6514C56.0576 50.9678 56.0928 51.2314 56.1631 51.4424C56.2393 51.6533 56.3418 51.8262 56.4707 51.9609C56.6055 52.0898 56.7607 52.1836 56.9365 52.2422C57.1182 52.2949 57.3115 52.3213 57.5166 52.3213C58.0791 52.3213 58.5215 52.21 58.8438 51.9873C59.1719 51.7588 59.4062 51.4541 59.5469 51.0732C59.6875 50.6865 59.7578 50.2529 59.7578 49.7725ZM68.3535 44.4902V46.1602H62.9043V44.4902H68.3535ZM64.3633 42.1523H66.6924V51.2578C66.6924 51.5391 66.7305 51.7559 66.8066 51.9082C66.8828 52.0605 66.9971 52.1631 67.1494 52.2158C67.3018 52.2686 67.4834 52.2949 67.6943 52.2949C67.8467 52.2949 67.9873 52.2861 68.1162 52.2686C68.2451 52.251 68.3535 52.2334 68.4414 52.2158L68.4502 53.9561C68.2568 54.0205 68.0371 54.0732 67.791 54.1143C67.5508 54.1553 67.2783 54.1758 66.9736 54.1758C66.4521 54.1758 65.9951 54.0879 65.6025 53.9121C65.21 53.7305 64.9053 53.4404 64.6885 53.042C64.4717 52.6377 64.3633 52.1045 64.3633 51.4424V42.1523ZM72.3613 44.4902V54H70.0322V44.4902H72.3613ZM69.874 42.0029C69.874 41.6572 69.9912 41.3701 70.2256 41.1416C70.4658 40.9131 70.7881 40.7988 71.1924 40.7988C71.5967 40.7988 71.916 40.9131 72.1504 41.1416C72.3906 41.3701 72.5107 41.6572 72.5107 42.0029C72.5107 42.3428 72.3906 42.627 72.1504 42.8555C71.916 43.084 71.5967 43.1982 71.1924 43.1982C70.7881 43.1982 70.4658 43.084 70.2256 42.8555C69.9912 42.627 69.874 42.3428 69.874 42.0029ZM74.1631 49.3418V49.1572C74.1631 48.46 74.2627 47.8184 74.4619 47.2324C74.6611 46.6406 74.9512 46.1279 75.332 45.6943C75.7129 45.2607 76.1787 44.9238 76.7295 44.6836C77.2803 44.4375 77.9072 44.3145 78.6104 44.3145C79.3252 44.3145 79.958 44.4375 80.5088 44.6836C81.0654 44.9238 81.5342 45.2607 81.915 45.6943C82.2959 46.1279 82.5859 46.6406 82.7852 47.2324C82.9844 47.8184 83.084 48.46 83.084 49.1572V49.3418C83.084 50.0332 82.9844 50.6748 82.7852 51.2666C82.5859 51.8525 82.2959 52.3652 81.915 52.8047C81.5342 53.2383 81.0684 53.5752 80.5176 53.8154C79.9668 54.0557 79.3369 54.1758 78.6279 54.1758C77.9248 54.1758 77.2949 54.0557 76.7383 53.8154C76.1816 53.5752 75.7129 53.2383 75.332 52.8047C74.9512 52.3652 74.6611 51.8525 74.4619 51.2666C74.2627 50.6748 74.1631 50.0332 74.1631 49.3418ZM76.4834 49.1572V49.3418C76.4834 49.7578 76.5244 50.1475 76.6064 50.5107C76.6885 50.874 76.8145 51.1934 76.9844 51.4688C77.1543 51.7441 77.374 51.9609 77.6436 52.1191C77.9189 52.2715 78.2471 52.3477 78.6279 52.3477C79.0029 52.3477 79.3252 52.2715 79.5947 52.1191C79.8643 51.9609 80.084 51.7441 80.2539 51.4688C80.4297 51.1934 80.5586 50.874 80.6406 50.5107C80.7227 50.1475 80.7637 49.7578 80.7637 49.3418V49.1572C80.7637 48.7471 80.7227 48.3633 80.6406 48.0059C80.5586 47.6426 80.4297 47.3232 80.2539 47.0479C80.084 46.7666 79.8613 46.5469 79.5859 46.3887C79.3164 46.2246 78.9912 46.1426 78.6104 46.1426C78.2354 46.1426 77.9131 46.2246 77.6436 46.3887C77.374 46.5469 77.1543 46.7666 76.9844 47.0479C76.8145 47.3232 76.6885 47.6426 76.6064 48.0059C76.5244 48.3633 76.4834 48.7471 76.4834 49.1572ZM87.0479 46.5205V54H84.7275V44.4902H86.9072L87.0479 46.5205ZM86.6787 48.9023H85.9932C85.999 48.2109 86.0928 47.584 86.2744 47.0215C86.4561 46.459 86.7109 45.9756 87.0391 45.5713C87.373 45.167 87.7686 44.8564 88.2256 44.6396C88.6826 44.4229 89.1924 44.3145 89.7549 44.3145C90.2119 44.3145 90.625 44.3789 90.9941 44.5078C91.3633 44.6367 91.6797 44.8418 91.9434 45.123C92.2129 45.4043 92.418 45.7734 92.5586 46.2305C92.7051 46.6816 92.7783 47.2383 92.7783 47.9004V54H90.4404V47.8828C90.4404 47.4492 90.376 47.1064 90.2471 46.8545C90.124 46.6025 89.9424 46.4238 89.7021 46.3184C89.4678 46.2129 89.1777 46.1602 88.832 46.1602C88.4746 46.1602 88.1611 46.2334 87.8916 46.3799C87.6279 46.5205 87.4053 46.7168 87.2236 46.9688C87.0479 47.2207 86.9131 47.5107 86.8193 47.8389C86.7256 48.167 86.6787 48.5215 86.6787 48.9023ZM99.0977 54.1758C98.377 54.1758 97.7295 54.0586 97.1553 53.8242C96.5811 53.5898 96.0918 53.2646 95.6875 52.8486C95.2891 52.4268 94.9814 51.9375 94.7646 51.3809C94.5537 50.8184 94.4482 50.2148 94.4482 49.5703V49.2188C94.4482 48.4863 94.5537 47.8213 94.7646 47.2236C94.9756 46.6201 95.2744 46.1016 95.6611 45.668C96.0479 45.2344 96.5107 44.9004 97.0498 44.666C97.5889 44.4316 98.1836 44.3145 98.834 44.3145C99.5078 44.3145 100.103 44.4287 100.618 44.6572C101.134 44.8799 101.564 45.1963 101.91 45.6064C102.256 46.0166 102.517 46.5088 102.692 47.083C102.868 47.6514 102.956 48.2812 102.956 48.9727V49.9482H95.5029V48.3486H100.671V48.1729C100.659 47.8037 100.589 47.4668 100.46 47.1621C100.331 46.8516 100.132 46.6055 99.8623 46.4238C99.5928 46.2363 99.2441 46.1426 98.8164 46.1426C98.4707 46.1426 98.1689 46.2188 97.9111 46.3711C97.6592 46.5176 97.4482 46.7285 97.2783 47.0039C97.1143 47.2734 96.9912 47.5957 96.9092 47.9707C96.8271 48.3457 96.7861 48.7617 96.7861 49.2188V49.5703C96.7861 49.9688 96.8389 50.3379 96.9443 50.6777C97.0557 51.0176 97.2168 51.3135 97.4277 51.5654C97.6445 51.8115 97.9023 52.0049 98.2012 52.1455C98.5059 52.2803 98.8516 52.3477 99.2383 52.3477C99.7246 52.3477 100.164 52.2539 100.557 52.0664C100.955 51.873 101.301 51.5889 101.594 51.2139L102.763 52.4268C102.563 52.7197 102.294 53.001 101.954 53.2705C101.62 53.54 101.216 53.7598 100.741 53.9297C100.267 54.0938 99.7188 54.1758 99.0977 54.1758ZM106.788 46.5205V54H104.468V44.4902H106.647L106.788 46.5205ZM106.419 48.9023H105.733C105.739 48.2109 105.833 47.584 106.015 47.0215C106.196 46.459 106.451 45.9756 106.779 45.5713C107.113 45.167 107.509 44.8564 107.966 44.6396C108.423 44.4229 108.933 44.3145 109.495 44.3145C109.952 44.3145 110.365 44.3789 110.734 44.5078C111.104 44.6367 111.42 44.8418 111.684 45.123C111.953 45.4043 112.158 45.7734 112.299 46.2305C112.445 46.6816 112.519 47.2383 112.519 47.9004V54H110.181V47.8828C110.181 47.4492 110.116 47.1064 109.987 46.8545C109.864 46.6025 109.683 46.4238 109.442 46.3184C109.208 46.2129 108.918 46.1602 108.572 46.1602C108.215 46.1602 107.901 46.2334 107.632 46.3799C107.368 46.5205 107.146 46.7168 106.964 46.9688C106.788 47.2207 106.653 47.5107 106.56 47.8389C106.466 48.167 106.419 48.5215 106.419 48.9023Z" fill="white"/>
<path fill-rule="evenodd" clip-rule="evenodd" d="M57.3044 67.6159C57.3044 65.2078 59.2781 63.2577 61.7157 63.2577H83H83.6483L84.1068 63.7106L91.2805 70.7983L90.1739 71.8917H91.7391V92.9201C91.7391 95.3292 89.7617 97.2783 87.3278 97.2783H83.913H82.3478H73.7391V108.876C73.7391 111.144 71.8609 113 69.5652 113H36.1739C33.8783 113 32 111.144 32 108.876V84.134C32 81.8556 33.8678 80.0103 36.1739 80.0103H57.3044V67.6159ZM57.3044 84.134H36.1739V108.876H69.5652V97.2783H66.6957H65.1304H61.7157C59.2773 97.2783 57.3044 95.3247 57.3044 92.9201V84.134ZM87.3278 94.1855H83.913V86.7113C83.913 85.1459 82.6279 83.8762 81.0435 83.8762H68C66.4156 83.8762 65.1304 85.1459 65.1304 86.7113V94.1855H61.7157C61.008 94.1855 60.4348 93.6185 60.4348 92.9201V67.6159C60.4348 66.9159 61.007 66.3505 61.7157 66.3505H62.5217V73.8247C62.5217 75.3901 63.8069 76.6598 65.3913 76.6598H81.0435C82.6279 76.6598 83.913 75.3901 83.913 73.8247V67.8931L88.6087 72.5322V92.9201C88.6087 93.6192 88.0348 94.1855 87.3278 94.1855ZM80.7826 94.1855H68.2609V86.969H80.7826V94.1855ZM65.6522 73.567V66.3505H73.2174V71.2474H78.4348V66.3505H80.7826V73.567H65.6522ZM50.7826 92.3814C50.7826 89.9449 48.95 88.2577 46.6087 88.2577C44.2674 88.2577 42.4348 89.9449 42.4348 92.3814C42.4348 94.8179 44.2674 96.5051 46.6087 96.5051C48.95 96.5051 50.7826 94.8179 50.7826 92.3814ZM40.3478 102.948C40.3478 100.748 44.5834 99.6351 46.7043 99.6351C48.8253 99.6351 52.8696 100.748 52.8696 102.948V104.753H40.3478V102.948ZM57.0435 102.691H65.3913V98.567H57.0435V102.691Z" fill="white"/>
</svg>
