<svg width="125" height="125" viewBox="0 0 125 125" fill="none" xmlns="http://www.w3.org/2000/svg">
<path d="M105 0H20C8.9543 0 0 8.9543 0 20V105C0 116.046 8.9543 125 20 125H105C116.046 125 125 116.046 125 105V20C125 8.9543 116.046 0 105 0Z" fill="#23517B" fill-opacity="0.9"/>
<path d="M26.2207 37.6621H22.5879L22.5684 35.7676H25.6836C26.2174 35.7676 26.6634 35.6927 27.0215 35.543C27.3796 35.3932 27.6497 35.1751 27.832 34.8887C28.0208 34.6022 28.1152 34.2539 28.1152 33.8438C28.1152 33.388 28.0273 33.0169 27.8516 32.7305C27.6823 32.444 27.4154 32.2357 27.0508 32.1055C26.6862 31.9688 26.224 31.9004 25.6641 31.9004H23.457V44H20.7715V29.7812H25.6641C26.4714 29.7812 27.1908 29.8594 27.8223 30.0156C28.4603 30.1654 29.0007 30.3997 29.4434 30.7188C29.8861 31.0378 30.2214 31.4382 30.4492 31.9199C30.6836 32.4017 30.8008 32.9746 30.8008 33.6387C30.8008 34.2246 30.6641 34.765 30.3906 35.2598C30.1237 35.748 29.7103 36.1452 29.1504 36.4512C28.597 36.7572 27.8939 36.9329 27.041 36.9785L26.2207 37.6621ZM26.1035 44H21.7969L22.9199 41.8906H26.1035C26.6374 41.8906 27.0768 41.8027 27.4219 41.627C27.7734 41.4512 28.0339 41.2103 28.2031 40.9043C28.3789 40.5918 28.4668 40.2337 28.4668 39.8301C28.4668 39.3874 28.3887 39.0033 28.2324 38.6777C28.0827 38.3522 27.8418 38.1016 27.5098 37.9258C27.1842 37.75 26.7546 37.6621 26.2207 37.6621H23.4277L23.4473 35.7676H27.002L27.6172 36.5C28.4375 36.5065 29.1048 36.6693 29.6191 36.9883C30.14 37.3073 30.5241 37.7174 30.7715 38.2188C31.0189 38.7201 31.1426 39.2604 31.1426 39.8398C31.1426 40.7513 30.944 41.5163 30.5469 42.1348C30.1562 42.7533 29.5833 43.2188 28.8281 43.5312C28.0794 43.8438 27.1712 44 26.1035 44ZM38.0176 44.1953C37.2168 44.1953 36.4974 44.0651 35.8594 43.8047C35.2214 43.5443 34.6777 43.1829 34.2285 42.7207C33.7858 42.252 33.444 41.7083 33.2031 41.0898C32.9688 40.4648 32.8516 39.7943 32.8516 39.0781V38.6875C32.8516 37.8737 32.9688 37.1348 33.2031 36.4707C33.4375 35.8001 33.7695 35.224 34.1992 34.7422C34.6289 34.2604 35.1432 33.8893 35.7422 33.6289C36.3411 33.3685 37.002 33.2383 37.7246 33.2383C38.4733 33.2383 39.1341 33.3652 39.707 33.6191C40.2799 33.8665 40.7585 34.2181 41.1426 34.6738C41.5267 35.1296 41.8164 35.6764 42.0117 36.3145C42.207 36.946 42.3047 37.6458 42.3047 38.4141V39.498H34.0234V37.7207H39.7656V37.5254C39.7526 37.1152 39.6745 36.7409 39.5312 36.4023C39.388 36.0573 39.1667 35.7839 38.8672 35.582C38.5677 35.3737 38.1803 35.2695 37.7051 35.2695C37.321 35.2695 36.9857 35.3542 36.6992 35.5234C36.4193 35.6862 36.1849 35.9206 35.9961 36.2266C35.8138 36.526 35.6771 36.8841 35.5859 37.3008C35.4948 37.7174 35.4492 38.1797 35.4492 38.6875V39.0781C35.4492 39.5208 35.5078 39.931 35.625 40.3086C35.7487 40.6862 35.9277 41.015 36.1621 41.2949C36.403 41.5684 36.6895 41.7832 37.0215 41.9395C37.36 42.0892 37.7441 42.1641 38.1738 42.1641C38.7142 42.1641 39.2025 42.0599 39.6387 41.8516C40.0814 41.6367 40.4655 41.321 40.791 40.9043L42.0898 42.252C41.8685 42.5775 41.569 42.89 41.1914 43.1895C40.8203 43.4889 40.3711 43.7331 39.8438 43.9219C39.3164 44.1042 38.7077 44.1953 38.0176 44.1953ZM46.5625 29V44H43.9746V29H46.5625ZM46.1523 38.3359H45.3906C45.3906 37.6003 45.4883 36.9232 45.6836 36.3047C45.8789 35.6862 46.1556 35.1491 46.5137 34.6934C46.8717 34.2311 47.2982 33.873 47.793 33.6191C48.2943 33.3652 48.8477 33.2383 49.4531 33.2383C49.974 33.2383 50.446 33.3132 50.8691 33.4629C51.2988 33.6061 51.6667 33.8372 51.9727 34.1562C52.2786 34.4753 52.513 34.8919 52.6758 35.4062C52.8451 35.9141 52.9297 36.5326 52.9297 37.2617V44H50.332V37.2422C50.332 36.7539 50.2604 36.3698 50.1172 36.0898C49.974 35.8034 49.7689 35.5983 49.502 35.4746C49.2415 35.3509 48.9193 35.2891 48.5352 35.2891C48.1185 35.2891 47.7604 35.3704 47.4609 35.5332C47.1615 35.6895 46.9141 35.9076 46.7188 36.1875C46.5299 36.4674 46.3867 36.7897 46.2891 37.1543C46.1979 37.5189 46.1523 37.9128 46.1523 38.3359ZM54.7461 38.8242V38.6191C54.7461 37.8444 54.8568 37.1315 55.0781 36.4805C55.2995 35.8229 55.6217 35.2533 56.0449 34.7715C56.4681 34.2897 56.9857 33.9154 57.5977 33.6484C58.2096 33.375 58.9062 33.2383 59.6875 33.2383C60.4818 33.2383 61.1849 33.375 61.7969 33.6484C62.4154 33.9154 62.9362 34.2897 63.3594 34.7715C63.7826 35.2533 64.1048 35.8229 64.3262 36.4805C64.5475 37.1315 64.6582 37.8444 64.6582 38.6191V38.8242C64.6582 39.5924 64.5475 40.3053 64.3262 40.9629C64.1048 41.6139 63.7826 42.1836 63.3594 42.6719C62.9362 43.1536 62.4186 43.528 61.8066 43.7949C61.1947 44.0618 60.4948 44.1953 59.707 44.1953C58.9258 44.1953 58.2259 44.0618 57.6074 43.7949C56.9889 43.528 56.4681 43.1536 56.0449 42.6719C55.6217 42.1836 55.2995 41.6139 55.0781 40.9629C54.8568 40.3053 54.7461 39.5924 54.7461 38.8242ZM57.3242 38.6191V38.8242C57.3242 39.2865 57.3698 39.7194 57.4609 40.123C57.5521 40.5267 57.6921 40.8815 57.8809 41.1875C58.0697 41.4935 58.3138 41.7344 58.6133 41.9102C58.9193 42.0794 59.2839 42.1641 59.707 42.1641C60.1237 42.1641 60.4818 42.0794 60.7812 41.9102C61.0807 41.7344 61.3249 41.4935 61.5137 41.1875C61.709 40.8815 61.8522 40.5267 61.9434 40.123C62.0345 39.7194 62.0801 39.2865 62.0801 38.8242V38.6191C62.0801 38.1634 62.0345 37.737 61.9434 37.3398C61.8522 36.9362 61.709 36.5814 61.5137 36.2754C61.3249 35.9629 61.0775 35.7188 60.7715 35.543C60.472 35.3607 60.1107 35.2695 59.6875 35.2695C59.2708 35.2695 58.9128 35.3607 58.6133 35.543C58.3138 35.7188 58.0697 35.9629 57.8809 36.2754C57.6921 36.5814 57.5521 36.9362 57.4609 37.3398C57.3698 37.737 57.3242 38.1634 57.3242 38.6191ZM56.0547 30.6406C56.0547 30.3086 56.1751 30.0319 56.416 29.8105C56.6569 29.5827 56.9629 29.4688 57.334 29.4688C57.7116 29.4688 58.0176 29.5827 58.252 29.8105C58.4928 30.0319 58.6133 30.3086 58.6133 30.6406C58.6133 30.9661 58.4928 31.2428 58.252 31.4707C58.0176 31.6921 57.7116 31.8027 57.334 31.8027C56.9629 31.8027 56.6569 31.6921 56.416 31.4707C56.1751 31.2428 56.0547 30.9661 56.0547 30.6406ZM60.7129 30.6504C60.7129 30.3184 60.8301 30.0417 61.0645 29.8203C61.3053 29.5924 61.6146 29.4785 61.9922 29.4785C62.3633 29.4785 62.6693 29.5924 62.9102 29.8203C63.151 30.0417 63.2715 30.3184 63.2715 30.6504C63.2715 30.9759 63.151 31.2526 62.9102 31.4805C62.6693 31.7018 62.3633 31.8125 61.9922 31.8125C61.6146 31.8125 61.3053 31.7018 61.0645 31.4805C60.8301 31.2526 60.7129 30.9759 60.7129 30.6504ZM69.1113 35.5918V44H66.5332V33.4336H68.9746L69.1113 35.5918ZM72.3242 33.3652L72.2852 35.7676C72.1419 35.7415 71.9792 35.722 71.7969 35.709C71.6211 35.696 71.4551 35.6895 71.2988 35.6895C70.9017 35.6895 70.5534 35.7448 70.2539 35.8555C69.9544 35.9596 69.7038 36.1126 69.502 36.3145C69.3066 36.5163 69.1569 36.7637 69.0527 37.0566C68.9486 37.3431 68.89 37.6686 68.877 38.0332L68.3203 37.9648C68.3203 37.2943 68.3887 36.6725 68.5254 36.0996C68.6621 35.5267 68.8607 35.0254 69.1211 34.5957C69.3815 34.166 69.707 33.834 70.0977 33.5996C70.4948 33.3587 70.9505 33.2383 71.4648 33.2383C71.6081 33.2383 71.7611 33.2513 71.9238 33.2773C72.0931 33.2969 72.2266 33.3262 72.3242 33.3652ZM79.8828 41.7539V29H82.4805V44H80.1367L79.8828 41.7539ZM73.0957 38.8438V38.6387C73.0957 37.8314 73.1868 37.099 73.3691 36.4414C73.5579 35.7773 73.8314 35.2077 74.1895 34.7324C74.5475 34.2572 74.9805 33.8893 75.4883 33.6289C76.0026 33.3685 76.5853 33.2383 77.2363 33.2383C77.8678 33.2383 78.418 33.3652 78.8867 33.6191C79.362 33.873 79.7656 34.2344 80.0977 34.7031C80.4362 35.1719 80.7064 35.7285 80.9082 36.373C81.11 37.0111 81.2565 37.7142 81.3477 38.4824V39.0391C81.2565 39.7878 81.11 40.4746 80.9082 41.0996C80.7064 41.7246 80.4362 42.2715 80.0977 42.7402C79.7656 43.2025 79.362 43.5605 78.8867 43.8145C78.4115 44.0684 77.8548 44.1953 77.2168 44.1953C76.5723 44.1953 75.9928 44.0618 75.4785 43.7949C74.9707 43.528 74.5378 43.1536 74.1797 42.6719C73.8281 42.1901 73.5579 41.6237 73.3691 40.9727C73.1868 40.3216 73.0957 39.612 73.0957 38.8438ZM75.6836 38.6387V38.8438C75.6836 39.2995 75.7227 39.7259 75.8008 40.123C75.8789 40.5202 76.0059 40.8717 76.1816 41.1777C76.3574 41.4772 76.582 41.7116 76.8555 41.8809C77.1354 42.0501 77.474 42.1348 77.8711 42.1348C78.3789 42.1348 78.7956 42.0241 79.1211 41.8027C79.4531 41.5749 79.7103 41.2656 79.8926 40.875C80.0749 40.4779 80.1921 40.0319 80.2441 39.5371V38.0039C80.2181 37.6133 80.1497 37.252 80.0391 36.9199C79.9349 36.5879 79.7852 36.3014 79.5898 36.0605C79.401 35.8197 79.1667 35.6309 78.8867 35.4941C78.6068 35.3574 78.2747 35.2891 77.8906 35.2891C77.4935 35.2891 77.1549 35.377 76.875 35.5527C76.5951 35.722 76.3672 35.9596 76.1914 36.2656C76.0156 36.5716 75.8854 36.9264 75.8008 37.3301C75.7227 37.7337 75.6836 38.1699 75.6836 38.6387ZM89.5605 44.1953C88.7598 44.1953 88.0404 44.0651 87.4023 43.8047C86.7643 43.5443 86.2207 43.1829 85.7715 42.7207C85.3288 42.252 84.987 41.7083 84.7461 41.0898C84.5117 40.4648 84.3945 39.7943 84.3945 39.0781V38.6875C84.3945 37.8737 84.5117 37.1348 84.7461 36.4707C84.9805 35.8001 85.3125 35.224 85.7422 34.7422C86.1719 34.2604 86.6862 33.8893 87.2852 33.6289C87.8841 33.3685 88.5449 33.2383 89.2676 33.2383C90.0163 33.2383 90.6771 33.3652 91.25 33.6191C91.8229 33.8665 92.3014 34.2181 92.6855 34.6738C93.0697 35.1296 93.3594 35.6764 93.5547 36.3145C93.75 36.946 93.8477 37.6458 93.8477 38.4141V39.498H85.5664V37.7207H91.3086V37.5254C91.2956 37.1152 91.2174 36.7409 91.0742 36.4023C90.931 36.0573 90.7096 35.7839 90.4102 35.582C90.1107 35.3737 89.7233 35.2695 89.248 35.2695C88.8639 35.2695 88.5286 35.3542 88.2422 35.5234C87.9622 35.6862 87.7279 35.9206 87.5391 36.2266C87.3568 36.526 87.2201 36.8841 87.1289 37.3008C87.0378 37.7174 86.9922 38.1797 86.9922 38.6875V39.0781C86.9922 39.5208 87.0508 39.931 87.168 40.3086C87.2917 40.6862 87.4707 41.015 87.7051 41.2949C87.946 41.5684 88.2324 41.7832 88.5645 41.9395C88.903 42.0892 89.2871 42.1641 89.7168 42.1641C90.2572 42.1641 90.7454 42.0599 91.1816 41.8516C91.6243 41.6367 92.0085 41.321 92.334 40.9043L93.6328 42.252C93.4115 42.5775 93.112 42.89 92.7344 43.1895C92.3633 43.4889 91.9141 43.7331 91.3867 43.9219C90.8594 44.1042 90.2507 44.1953 89.5605 44.1953ZM98.1055 35.6895V44H95.5273V33.4336H97.9492L98.1055 35.6895ZM97.6953 38.3359H96.9336C96.9401 37.5677 97.0443 36.8711 97.2461 36.2461C97.4479 35.6211 97.7311 35.084 98.0957 34.6348C98.4668 34.1855 98.9062 33.8405 99.4141 33.5996C99.9219 33.3587 100.488 33.2383 101.113 33.2383C101.621 33.2383 102.08 33.3099 102.49 33.4531C102.9 33.5964 103.252 33.8242 103.545 34.1367C103.844 34.4492 104.072 34.8594 104.229 35.3672C104.391 35.8685 104.473 36.487 104.473 37.2227V44H101.875V37.2031C101.875 36.7214 101.803 36.3405 101.66 36.0605C101.523 35.7806 101.322 35.582 101.055 35.4648C100.794 35.3477 100.472 35.2891 100.088 35.2891C99.6908 35.2891 99.3424 35.3704 99.043 35.5332C98.75 35.6895 98.5026 35.9076 98.3008 36.1875C98.1055 36.4674 97.9557 36.7897 97.8516 37.1543C97.7474 37.5189 97.6953 37.9128 97.6953 38.3359Z" fill="white"/>
<path fill-rule="evenodd" clip-rule="evenodd" d="M73.5714 56C67.1063 56 62 61.2494 62 67.8957V67.9003V67.9051V67.9098V67.9147V67.9195V67.9245V67.9295V67.9346V67.9397V67.9448V67.95V67.9553V67.9606V67.9659V67.9713V67.9768V67.9823V67.9879V67.9935V67.9991V68.0048V68.0106V68.0164V68.0223V68.0282V68.0341V68.0401V68.0462V68.0523V68.0584V68.0646V68.0709V68.0772V68.0835V68.0898V68.0963V68.1028V68.1093V68.1158V68.1225V68.1291V68.1358V68.1425V68.1493V68.1561V68.163V68.1699V68.1768V68.1838V68.1909V68.198V68.2051V68.2123V68.2195V68.2267V68.234V68.2413V68.2487V68.2561V68.2635V68.271V68.2785V68.2861V68.2937V68.3013V68.309V68.3168V68.3245V68.3323V68.3402V68.348V68.3559V68.3638V68.3718V68.3799V68.3879V68.396V68.4041V68.4123V68.4204V68.4287V68.437V68.4452V68.4536V68.4619V68.4703V68.4788V68.4872V68.4957V68.5043V68.5128V68.5214V68.53V68.5387V68.5473V68.5561V68.5648V68.5736V68.5824V68.5913V68.6001V68.609V68.6179V68.6269V68.6359V68.6449V68.6539V68.663V68.6721V68.6812V68.6903V68.6995V68.7087V68.7179V68.7272V68.7365V68.7458V68.7551V68.7645V68.7738V68.7833V68.7927V68.8022V68.8116V68.8211V68.8307V68.8402V68.8498V68.8594V68.869V68.8786V68.8883V68.898V68.9077V68.9174V68.9272V68.9369V68.9467V68.9565V68.9664V68.9762V68.9861V68.996V69.0059V69.0158V69.0257V69.0357V69.0457V69.0557V69.0657V69.0757V69.0858V69.0958V69.1059V69.116V69.1261V69.1363V69.1464V69.1565V69.1668V69.1769V69.1871V69.1973V69.2076V69.2178V69.2281V69.2384V69.2486V69.2589V69.2693V69.2796V69.2899V69.3003V69.3106V69.321V69.3314V69.3418V69.3522V69.3626V69.373V69.3835V69.3939V69.4043V69.4148V69.4253V69.4357V69.4463V69.4567V69.4672V69.4777V69.4882V69.4988V69.5093V69.5199V69.5304V69.5409V69.5515V69.562V69.5726V69.5832V69.5938V69.6044V69.6149V69.6255V69.6361V69.6467V69.6573V69.6679V69.6785V69.6891V69.6997V69.7104V69.721V69.7316V69.7422V69.7528V69.7635V69.7741V69.7847V69.7953V69.8059V69.8166V69.8272V69.8378V69.8484V69.859V69.8696V69.8783C59.8703 69.8783 58.1429 71.6541 58.1429 73.8435V81.2783H38.8571C36.7261 81.2783 35 83.0527 35 85.2435V109.035C35 111.216 36.7357 113 38.8571 113H69.7143C71.8357 113 73.5714 111.216 73.5714 109.035V97.6348H85.1429C87.2725 97.6348 89 95.8589 89 93.6696V73.8435C89 71.6541 87.2725 69.8783 85.1429 69.8783V69.8696V69.859V69.8484V69.8378V69.8272V69.8166V69.8059V69.7953V69.7847V69.7741V69.7635V69.7528V69.7422V69.7316V69.721V69.7104V69.6997V69.6891V69.6785V69.6679V69.6573V69.6467V69.6361V69.6255V69.6149V69.6044V69.5938V69.5832V69.5726V69.562V69.5515V69.5409V69.5304V69.5199V69.5093V69.4988V69.4882V69.4777V69.4672V69.4567V69.4463V69.4357V69.4253V69.4148V69.4043V69.3939V69.3835V69.373V69.3626V69.3522V69.3418V69.3314V69.321V69.3106V69.3003V69.2899V69.2796V69.2693V69.2589V69.2486V69.2384V69.2281V69.2178V69.2076V69.1973V69.1871V69.1769V69.1668V69.1565V69.1464V69.1363V69.1261V69.116V69.1059V69.0958V69.0858V69.0757V69.0657V69.0557V69.0457V69.0357V69.0257V69.0158V69.0059V68.996V68.9861V68.9762V68.9664V68.9565V68.9467V68.9369V68.9272V68.9174V68.9077V68.898V68.8883V68.8786V68.869V68.8594V68.8498V68.8402V68.8307V68.8211V68.8116V68.8022V68.7927V68.7833V68.7738V68.7645V68.7551V68.7458V68.7365V68.7272V68.7179V68.7087V68.6995V68.6903V68.6812V68.6721V68.663V68.6539V68.6449V68.6359V68.6269V68.6179V68.609V68.6001V68.5913V68.5824V68.5736V68.5648V68.5561V68.5473V68.5387V68.53V68.5214V68.5128V68.5043V68.4957V68.4872V68.4788V68.4703V68.4619V68.4536V68.4452V68.437V68.4287V68.4204V68.4123V68.4041V68.396V68.3879V68.3799V68.3718V68.3638V68.3559V68.348V68.3402V68.3323V68.3245V68.3168V68.309V68.3013V68.2937V68.2861V68.2785V68.271V68.2635V68.2561V68.2487V68.2413V68.234V68.2267V68.2195V68.2123V68.2051V68.198V68.1909V68.1838V68.1768V68.1699V68.163V68.1561V68.1493V68.1425V68.1358V68.1291V68.1225V68.1158V68.1093V68.1028V68.0963V68.0898V68.0835V68.0772V68.0709V68.0646V68.0584V68.0523V68.0462V68.0401V68.0341V68.0282V68.0223V68.0164V68.0106V68.0048V67.9991V67.9935V67.9879V67.9823V67.9768V67.9713V67.9659V67.9606V67.9553V67.95V67.9448V67.9397V67.9346V67.9295V67.9245V67.9195V67.9147V67.9098V67.9051V67.9003V67.8957C85.1429 61.2494 80.0365 56 73.5714 56ZM69.7143 97.6348H62C59.8703 97.6348 58.1429 95.8589 58.1429 93.6696V85.2435H38.8571V109.035H69.7143V97.6348ZM81.2857 69.8696V69.8783H65.8571V69.8696V69.859V69.8484V69.8378V69.8272V69.8166V69.8059V69.7953V69.7847V69.7741V69.7635V69.7528V69.7422V69.7316V69.721V69.7104V69.6997V69.6891V69.6785V69.6679V69.6573V69.6467V69.6361V69.6255V69.6149V69.6044V69.5938V69.5832V69.5726V69.562V69.5515V69.5409V69.5304V69.5199V69.5093V69.4988V69.4882V69.4777V69.4672V69.4567V69.4463V69.4357V69.4253V69.4148V69.4043V69.3939V69.3835V69.373V69.3626V69.3522V69.3418V69.3314V69.321V69.3106V69.3003V69.2899V69.2796V69.2693V69.2589V69.2486V69.2384V69.2281V69.2178V69.2076V69.1973V69.1871V69.1769V69.1668V69.1565V69.1464V69.1363V69.1261V69.116V69.1059V69.0958V69.0858V69.0757V69.0657V69.0557V69.0457V69.0357V69.0257V69.0158V69.0059V68.996V68.9861V68.9762V68.9664V68.9565V68.9467V68.9369V68.9272V68.9174V68.9077V68.898V68.8883V68.8786V68.869V68.8594V68.8498V68.8402V68.8307V68.8211V68.8116V68.8022V68.7927V68.7833V68.7738V68.7645V68.7551V68.7458V68.7365V68.7272V68.7179V68.7087V68.6995V68.6903V68.6812V68.6721V68.663V68.6539V68.6449V68.6359V68.6269V68.6179V68.609V68.6001V68.5913V68.5824V68.5736V68.5648V68.5561V68.5473V68.5387V68.53V68.5214V68.5128V68.5043V68.4957V68.4872V68.4788V68.4703V68.4619V68.4536V68.4452V68.437V68.4287V68.4204V68.4123V68.4041V68.396V68.3879V68.3799V68.3718V68.3638V68.3559V68.348V68.3402V68.3323V68.3245V68.3168V68.309V68.3013V68.2937V68.2861V68.2785V68.271V68.2635V68.2561V68.2487V68.2413V68.234V68.2267V68.2195V68.2123V68.2051V68.198V68.1909V68.1838V68.1768V68.1699V68.163V68.1561V68.1493V68.1425V68.1358V68.1291V68.1225V68.1158V68.1093V68.1028V68.0963V68.0898V68.0835V68.0772V68.0709V68.0646V68.0584V68.0523V68.0462V68.0401V68.0341V68.0282V68.0223V68.0164V68.0106V68.0048V67.9991V67.9935V67.9879V67.9823V67.9768V67.9713V67.9659V67.9606V67.9553V67.95V67.9448V67.9397V67.9346V67.9295V67.9245V67.9195V67.9147V67.9098V67.9051V67.9003V67.8957C65.8571 63.4393 69.2365 59.9652 73.5714 59.9652C77.9063 59.9652 81.2857 63.4393 81.2857 67.8957V67.9003V67.9051V67.9098V67.9147V67.9195V67.9245V67.9295V67.9346V67.9397V67.9448V67.95V67.9553V67.9606V67.9659V67.9713V67.9768V67.9823V67.9879V67.9935V67.9991V68.0048V68.0106V68.0164V68.0223V68.0282V68.0341V68.0401V68.0462V68.0523V68.0584V68.0646V68.0709V68.0772V68.0835V68.0898V68.0963V68.1028V68.1093V68.1158V68.1225V68.1291V68.1358V68.1425V68.1493V68.1561V68.163V68.1699V68.1768V68.1838V68.1909V68.198V68.2051V68.2123V68.2195V68.2267V68.234V68.2413V68.2487V68.2561V68.2635V68.271V68.2785V68.2861V68.2937V68.3013V68.309V68.3168V68.3245V68.3323V68.3402V68.348V68.3559V68.3638V68.3718V68.3799V68.3879V68.396V68.4041V68.4123V68.4204V68.4287V68.437V68.4452V68.4536V68.4619V68.4703V68.4788V68.4872V68.4957V68.5043V68.5128V68.5214V68.53V68.5387V68.5473V68.5561V68.5648V68.5736V68.5824V68.5913V68.6001V68.609V68.6179V68.6269V68.6359V68.6449V68.6539V68.663V68.6721V68.6812V68.6903V68.6995V68.7087V68.7179V68.7272V68.7365V68.7458V68.7551V68.7645V68.7738V68.7833V68.7927V68.8022V68.8116V68.8211V68.8307V68.8402V68.8498V68.8594V68.869V68.8786V68.8883V68.898V68.9077V68.9174V68.9272V68.9369V68.9467V68.9565V68.9664V68.9762V68.9861V68.996V69.0059V69.0158V69.0257V69.0357V69.0457V69.0557V69.0657V69.0757V69.0858V69.0958V69.1059V69.116V69.1261V69.1363V69.1464V69.1565V69.1668V69.1769V69.1871V69.1973V69.2076V69.2178V69.2281V69.2384V69.2486V69.2589V69.2693V69.2796V69.2899V69.3003V69.3106V69.321V69.3314V69.3418V69.3522V69.3626V69.373V69.3835V69.3939V69.4043V69.4148V69.4253V69.4357V69.4463V69.4567V69.4672V69.4777V69.4882V69.4988V69.5093V69.5199V69.5304V69.5409V69.5515V69.562V69.5726V69.5832V69.5938V69.6044V69.6149V69.6255V69.6361V69.6467V69.6573V69.6679V69.6785V69.6891V69.6997V69.7104V69.721V69.7316V69.7422V69.7528V69.7635V69.7741V69.7847V69.7953V69.8059V69.8166V69.8272V69.8378V69.8484V69.859V69.8696ZM62 73.8435H63.9286H83.2143H85.1429V93.6696H62V73.8435ZM77.4286 83.7565C77.4286 85.9374 75.6929 87.7217 73.5714 87.7217C71.45 87.7217 69.7143 85.9374 69.7143 83.7565C69.7143 81.5757 71.45 79.7913 73.5714 79.7913C75.6929 79.7913 77.4286 81.5757 77.4286 83.7565ZM48.5 89.2087C50.6636 89.2087 52.3571 90.831 52.3571 93.1739C52.3571 95.5168 50.6636 97.1391 48.5 97.1391C46.3364 97.1391 44.6429 95.5168 44.6429 93.1739C44.6429 90.831 46.3364 89.2087 48.5 89.2087ZM42.7143 103.335C42.7143 101.219 46.6284 100.149 48.5884 100.149C50.5484 100.149 54.2857 101.219 54.2857 103.335V105.07H42.7143V103.335ZM58.1429 99.1217V103.087H65.8571V99.1217H58.1429Z" fill="white"/>
</svg>
