<svg width="125" height="125" viewBox="0 0 125 125" fill="none" xmlns="http://www.w3.org/2000/svg">
<path d="M105 0H20C8.9543 0 0 8.9543 0 20V105C0 116.046 8.9543 125 20 125H105C116.046 125 125 116.046 125 105V20C125 8.9543 116.046 0 105 0Z" fill="#D80C14" fill-opacity="0.75"/>
<path d="M12.8223 22.7812H15.1465L19.0332 33.4844L22.9102 22.7812H25.2441L19.9609 37H18.0957L12.8223 22.7812ZM11.6504 22.7812H13.9258L14.3359 32.6152V37H11.6504V22.7812ZM24.1309 22.7812H26.416V37H23.7305V32.6152L24.1309 22.7812ZM33.7012 37.1953C32.9004 37.1953 32.181 37.0651 31.543 36.8047C30.9049 36.5443 30.3613 36.1829 29.9121 35.7207C29.4694 35.252 29.1276 34.7083 28.8867 34.0898C28.6523 33.4648 28.5352 32.7943 28.5352 32.0781V31.6875C28.5352 30.8737 28.6523 30.1348 28.8867 29.4707C29.1211 28.8001 29.4531 28.224 29.8828 27.7422C30.3125 27.2604 30.8268 26.8893 31.4258 26.6289C32.0247 26.3685 32.6855 26.2383 33.4082 26.2383C34.1569 26.2383 34.8177 26.3652 35.3906 26.6191C35.9635 26.8665 36.4421 27.2181 36.8262 27.6738C37.2103 28.1296 37.5 28.6764 37.6953 29.3145C37.8906 29.946 37.9883 30.6458 37.9883 31.4141V32.498H29.707V30.7207H35.4492V30.5254C35.4362 30.1152 35.3581 29.7409 35.2148 29.4023C35.0716 29.0573 34.8503 28.7839 34.5508 28.582C34.2513 28.3737 33.8639 28.2695 33.3887 28.2695C33.0046 28.2695 32.6693 28.3542 32.3828 28.5234C32.1029 28.6862 31.8685 28.9206 31.6797 29.2266C31.4974 29.526 31.3607 29.8841 31.2695 30.3008C31.1784 30.7174 31.1328 31.1797 31.1328 31.6875V32.0781C31.1328 32.5208 31.1914 32.931 31.3086 33.3086C31.4323 33.6862 31.6113 34.015 31.8457 34.2949C32.0866 34.5684 32.373 34.7832 32.7051 34.9395C33.0436 35.0892 33.4277 35.1641 33.8574 35.1641C34.3978 35.1641 34.8861 35.0599 35.3223 34.8516C35.765 34.6367 36.1491 34.321 36.4746 33.9043L37.7734 35.252C37.5521 35.5775 37.2526 35.89 36.875 36.1895C36.5039 36.4889 36.0547 36.7331 35.5273 36.9219C35 37.1042 34.3913 37.1953 33.7012 37.1953ZM42.4512 22V37H39.8633V22H42.4512ZM51.25 34.7539V22H53.8477V37H51.5039L51.25 34.7539ZM44.4629 31.8438V31.6387C44.4629 30.8314 44.554 30.099 44.7363 29.4414C44.9251 28.7773 45.1986 28.2077 45.5566 27.7324C45.9147 27.2572 46.3477 26.8893 46.8555 26.6289C47.3698 26.3685 47.9525 26.2383 48.6035 26.2383C49.235 26.2383 49.7852 26.3652 50.2539 26.6191C50.7292 26.873 51.1328 27.2344 51.4648 27.7031C51.8034 28.1719 52.0736 28.7285 52.2754 29.373C52.4772 30.0111 52.6237 30.7142 52.7148 31.4824V32.0391C52.6237 32.7878 52.4772 33.4746 52.2754 34.0996C52.0736 34.7246 51.8034 35.2715 51.4648 35.7402C51.1328 36.2025 50.7292 36.5605 50.2539 36.8145C49.7786 37.0684 49.222 37.1953 48.584 37.1953C47.9395 37.1953 47.36 37.0618 46.8457 36.7949C46.3379 36.528 45.9049 36.1536 45.5469 35.6719C45.1953 35.1901 44.9251 34.6237 44.7363 33.9727C44.554 33.3216 44.4629 32.612 44.4629 31.8438ZM47.0508 31.6387V31.8438C47.0508 32.2995 47.0898 32.7259 47.168 33.123C47.2461 33.5202 47.373 33.8717 47.5488 34.1777C47.7246 34.4772 47.9492 34.7116 48.2227 34.8809C48.5026 35.0501 48.8411 35.1348 49.2383 35.1348C49.7461 35.1348 50.1628 35.0241 50.4883 34.8027C50.8203 34.5749 51.0775 34.2656 51.2598 33.875C51.4421 33.4779 51.5592 33.0319 51.6113 32.5371V31.0039C51.5853 30.6133 51.5169 30.252 51.4062 29.9199C51.3021 29.5879 51.1523 29.3014 50.957 29.0605C50.7682 28.8197 50.5339 28.6309 50.2539 28.4941C49.974 28.3574 49.6419 28.2891 49.2578 28.2891C48.8607 28.2891 48.5221 28.377 48.2422 28.5527C47.9622 28.722 47.7344 28.9596 47.5586 29.2656C47.3828 29.5716 47.2526 29.9264 47.168 30.3301C47.0898 30.7337 47.0508 31.1699 47.0508 31.6387ZM60.9277 37.1953C60.127 37.1953 59.4076 37.0651 58.7695 36.8047C58.1315 36.5443 57.5879 36.1829 57.1387 35.7207C56.696 35.252 56.3542 34.7083 56.1133 34.0898C55.8789 33.4648 55.7617 32.7943 55.7617 32.0781V31.6875C55.7617 30.8737 55.8789 30.1348 56.1133 29.4707C56.3477 28.8001 56.6797 28.224 57.1094 27.7422C57.5391 27.2604 58.0534 26.8893 58.6523 26.6289C59.2513 26.3685 59.9121 26.2383 60.6348 26.2383C61.3835 26.2383 62.0443 26.3652 62.6172 26.6191C63.1901 26.8665 63.6686 27.2181 64.0527 27.6738C64.4368 28.1296 64.7266 28.6764 64.9219 29.3145C65.1172 29.946 65.2148 30.6458 65.2148 31.4141V32.498H56.9336V30.7207H62.6758V30.5254C62.6628 30.1152 62.5846 29.7409 62.4414 29.4023C62.2982 29.0573 62.0768 28.7839 61.7773 28.582C61.4779 28.3737 61.0905 28.2695 60.6152 28.2695C60.2311 28.2695 59.8958 28.3542 59.6094 28.5234C59.3294 28.6862 59.0951 28.9206 58.9062 29.2266C58.724 29.526 58.5872 29.8841 58.4961 30.3008C58.4049 30.7174 58.3594 31.1797 58.3594 31.6875V32.0781C58.3594 32.5208 58.418 32.931 58.5352 33.3086C58.6589 33.6862 58.8379 34.015 59.0723 34.2949C59.3132 34.5684 59.5996 34.7832 59.9316 34.9395C60.2702 35.0892 60.6543 35.1641 61.084 35.1641C61.6243 35.1641 62.1126 35.0599 62.5488 34.8516C62.9915 34.6367 63.3757 34.321 63.7012 33.9043L65 35.252C64.7786 35.5775 64.4792 35.89 64.1016 36.1895C63.7305 36.4889 63.2812 36.7331 62.7539 36.9219C62.2266 37.1042 61.6178 37.1953 60.9277 37.1953ZM72.7539 34.1094C72.7539 33.888 72.6953 33.6895 72.5781 33.5137C72.4609 33.3379 72.2396 33.1784 71.9141 33.0352C71.5951 32.8854 71.1263 32.7454 70.5078 32.6152C69.9609 32.498 69.4564 32.3516 68.9941 32.1758C68.5319 32 68.1348 31.7884 67.8027 31.541C67.4707 31.2871 67.2103 30.9909 67.0215 30.6523C66.8392 30.3073 66.748 29.9102 66.748 29.4609C66.748 29.0247 66.8424 28.6146 67.0312 28.2305C67.2201 27.8398 67.4935 27.498 67.8516 27.2051C68.2096 26.9056 68.6458 26.6712 69.1602 26.502C69.6745 26.3262 70.2539 26.2383 70.8984 26.2383C71.7969 26.2383 72.5684 26.3848 73.2129 26.6777C73.8639 26.9707 74.362 27.3743 74.707 27.8887C75.0521 28.3965 75.2246 28.9694 75.2246 29.6074H72.6465C72.6465 29.3275 72.5814 29.0736 72.4512 28.8457C72.3275 28.6178 72.1354 28.4355 71.875 28.2988C71.6146 28.1556 71.2858 28.084 70.8887 28.084C70.5306 28.084 70.2279 28.1426 69.9805 28.2598C69.7396 28.377 69.5573 28.5299 69.4336 28.7188C69.3099 28.9076 69.248 29.1159 69.248 29.3438C69.248 29.513 69.2806 29.666 69.3457 29.8027C69.4173 29.9329 69.5312 30.0534 69.6875 30.1641C69.8438 30.2747 70.0553 30.3757 70.3223 30.4668C70.5957 30.5579 70.931 30.6458 71.3281 30.7305C72.1159 30.8867 72.8027 31.0951 73.3887 31.3555C73.9811 31.6094 74.4434 31.9479 74.7754 32.3711C75.1074 32.7943 75.2734 33.3346 75.2734 33.9922C75.2734 34.4609 75.1725 34.8906 74.9707 35.2812C74.7689 35.6654 74.4759 36.0007 74.0918 36.2871C73.7077 36.5736 73.2487 36.7982 72.7148 36.9609C72.181 37.1172 71.5788 37.1953 70.9082 37.1953C69.9382 37.1953 69.1178 37.0228 68.4473 36.6777C67.7767 36.3262 67.2689 35.8835 66.9238 35.3496C66.5788 34.8092 66.4062 34.2493 66.4062 33.6699H68.877C68.8965 34.0801 69.0072 34.4089 69.209 34.6562C69.4108 34.9036 69.6647 35.0827 69.9707 35.1934C70.2832 35.2975 70.612 35.3496 70.957 35.3496C71.3477 35.3496 71.6764 35.2975 71.9434 35.1934C72.2103 35.0827 72.4121 34.9362 72.5488 34.7539C72.6855 34.5651 72.7539 34.3503 72.7539 34.1094ZM82.2363 26.4336V28.2891H76.1816V26.4336H82.2363ZM77.8027 23.8359H80.3906V33.9531C80.3906 34.2656 80.4329 34.5065 80.5176 34.6758C80.6022 34.8451 80.7292 34.959 80.8984 35.0176C81.0677 35.0762 81.2695 35.1055 81.5039 35.1055C81.6732 35.1055 81.8294 35.0957 81.9727 35.0762C82.1159 35.0566 82.2363 35.0371 82.334 35.0176L82.3438 36.9512C82.1289 37.0228 81.8848 37.0814 81.6113 37.127C81.3444 37.1725 81.0417 37.1953 80.7031 37.1953C80.1237 37.1953 79.6159 37.0977 79.1797 36.9023C78.7435 36.7005 78.4049 36.3783 78.1641 35.9355C77.9232 35.4863 77.8027 34.8939 77.8027 34.1582V23.8359ZM88.7012 37.1953C87.9004 37.1953 87.181 37.0651 86.543 36.8047C85.9049 36.5443 85.3613 36.1829 84.9121 35.7207C84.4694 35.252 84.1276 34.7083 83.8867 34.0898C83.6523 33.4648 83.5352 32.7943 83.5352 32.0781V31.6875C83.5352 30.8737 83.6523 30.1348 83.8867 29.4707C84.1211 28.8001 84.4531 28.224 84.8828 27.7422C85.3125 27.2604 85.8268 26.8893 86.4258 26.6289C87.0247 26.3685 87.6855 26.2383 88.4082 26.2383C89.1569 26.2383 89.8177 26.3652 90.3906 26.6191C90.9635 26.8665 91.4421 27.2181 91.8262 27.6738C92.2103 28.1296 92.5 28.6764 92.6953 29.3145C92.8906 29.946 92.9883 30.6458 92.9883 31.4141V32.498H84.707V30.7207H90.4492V30.5254C90.4362 30.1152 90.3581 29.7409 90.2148 29.4023C90.0716 29.0573 89.8503 28.7839 89.5508 28.582C89.2513 28.3737 88.8639 28.2695 88.3887 28.2695C88.0046 28.2695 87.6693 28.3542 87.3828 28.5234C87.1029 28.6862 86.8685 28.9206 86.6797 29.2266C86.4974 29.526 86.3607 29.8841 86.2695 30.3008C86.1784 30.7174 86.1328 31.1797 86.1328 31.6875V32.0781C86.1328 32.5208 86.1914 32.931 86.3086 33.3086C86.4323 33.6862 86.6113 34.015 86.8457 34.2949C87.0866 34.5684 87.373 34.7832 87.7051 34.9395C88.0436 35.0892 88.4277 35.1641 88.8574 35.1641C89.3978 35.1641 89.8861 35.0599 90.3223 34.8516C90.765 34.6367 91.1491 34.321 91.4746 33.9043L92.7734 35.252C92.5521 35.5775 92.2526 35.89 91.875 36.1895C91.5039 36.4889 91.0547 36.7331 90.5273 36.9219C90 37.1042 89.3913 37.1953 88.7012 37.1953ZM97.4512 22V37H94.8633V22H97.4512ZM102.646 22V37H100.059V22H102.646ZM109.854 37.1953C109.053 37.1953 108.333 37.0651 107.695 36.8047C107.057 36.5443 106.514 36.1829 106.064 35.7207C105.622 35.252 105.28 34.7083 105.039 34.0898C104.805 33.4648 104.688 32.7943 104.688 32.0781V31.6875C104.688 30.8737 104.805 30.1348 105.039 29.4707C105.273 28.8001 105.605 28.224 106.035 27.7422C106.465 27.2604 106.979 26.8893 107.578 26.6289C108.177 26.3685 108.838 26.2383 109.561 26.2383C110.309 26.2383 110.97 26.3652 111.543 26.6191C112.116 26.8665 112.594 27.2181 112.979 27.6738C113.363 28.1296 113.652 28.6764 113.848 29.3145C114.043 29.946 114.141 30.6458 114.141 31.4141V32.498H105.859V30.7207H111.602V30.5254C111.589 30.1152 111.51 29.7409 111.367 29.4023C111.224 29.0573 111.003 28.7839 110.703 28.582C110.404 28.3737 110.016 28.2695 109.541 28.2695C109.157 28.2695 108.822 28.3542 108.535 28.5234C108.255 28.6862 108.021 28.9206 107.832 29.2266C107.65 29.526 107.513 29.8841 107.422 30.3008C107.331 30.7174 107.285 31.1797 107.285 31.6875V32.0781C107.285 32.5208 107.344 32.931 107.461 33.3086C107.585 33.6862 107.764 34.015 107.998 34.2949C108.239 34.5684 108.525 34.7832 108.857 34.9395C109.196 35.0892 109.58 35.1641 110.01 35.1641C110.55 35.1641 111.038 35.0599 111.475 34.8516C111.917 34.6367 112.301 34.321 112.627 33.9043L113.926 35.252C113.704 35.5775 113.405 35.89 113.027 36.1895C112.656 36.4889 112.207 36.7331 111.68 36.9219C111.152 37.1042 110.544 37.1953 109.854 37.1953Z" fill="white"/>
<path fill-rule="evenodd" clip-rule="evenodd" d="M65.65 82.5434V59.3648C65.65 57.2304 67.3729 55.5017 69.5 55.5017H100.3C102.417 55.5017 104.15 57.2401 104.15 59.3648V82.5434C104.15 84.6681 102.417 86.4065 100.3 86.4065H69.5C67.3825 86.4065 65.65 84.6681 65.65 82.5434ZM82.975 67.091C82.975 64.9566 81.2521 63.2279 79.125 63.2279C76.9979 63.2279 75.275 64.9566 75.275 67.091C75.275 69.2253 76.9979 70.9541 79.125 70.9541C81.2521 70.9541 82.975 69.2253 82.975 67.091ZM79.125 74.0445C77.1981 74.0445 73.35 75.0142 73.35 76.9419V78.6803H84.9V76.9419C84.9 75.0142 81.0519 74.0445 79.125 74.0445ZM88.75 69.0226H96.45V65.1594H88.75V69.0226ZM88.75 76.7487H96.45V72.8856H88.75V76.7487ZM69.5 82.5434H100.3V59.3648H69.5V82.5434ZM87.7108 103.163L103.729 93.7295C104.154 93.3792 104.4 92.859 104.4 92.3049C104.4 90.9963 103.084 90.1042 101.876 90.5896L101.875 90.59L89.8741 95.4061C89.7251 96.1159 89.4406 96.7642 89.0021 97.3299C88.3251 98.2032 87.4144 98.7074 86.5192 99.0068C84.8876 99.5525 82.839 99.5518 81.1704 99.5511L81 99.551H75.6V95.9388H81C82.9021 95.9388 84.3684 95.9186 85.3808 95.5799C85.8356 95.4278 86.0499 95.2547 86.1604 95.1121C86.2589 94.9851 86.4 94.7234 86.4 94.1327C86.4 93.5419 86.2589 93.2802 86.1604 93.1532C86.0499 93.0106 85.8356 92.8375 85.3808 92.6854C84.3684 92.3468 82.9021 92.3265 81 92.3265H80.9895H80.979H80.9686H80.9581H80.9478H80.9374H80.9272H80.9169H80.9067H80.8966H80.8864H80.8763H80.8663H80.8562H80.8463H80.8363H80.8264H80.8165H80.8067H80.7969H80.7871H80.7773H80.7677H80.758H80.7484H80.7388H80.7292H80.7197H80.7101H80.7007H80.6912H80.6818H80.6725H80.6631H80.6538H80.6445H80.6353H80.626H80.6168H80.6077H80.5985H80.5894H80.5803H80.5712H80.5622H80.5532H80.5442H80.5353H80.5264H80.5174H80.5086H80.4997H80.4909H80.4821H80.4733H80.4646H80.4558H80.4471H80.4384H80.4298H80.4211H80.4125H80.4039H80.3953H80.3867H80.3782H80.3697H80.3612H80.3527H80.3443H80.3358H80.3274H80.319H80.3106H80.3022H80.2939H80.2855H80.2772H80.2689H80.2606H80.2523H80.2441H80.2358H80.2276H80.2194H80.2112H80.203H80.1949H80.1867H80.1785H80.1704H80.1623H80.1542H80.1461H80.138H80.1299H80.1218H80.1137H80.1057H80.0977H80.0896H80.0816H80.0736H80.0656H80.0576H80.0496H80.0416H80.0336H80.0257H80.0177H80.0098H80.0018H79.9939H79.9859H79.978H79.97H79.9621H79.9541H79.9462H79.9383H79.9304H79.9225H79.9145H79.9066H79.8988H79.8908H79.8829H79.875H79.8671H79.8592H79.8512H79.8434H79.8355H79.8275H79.8196H79.8117H79.8038H79.7959H79.7879H79.78H79.772H79.7641H79.7561H79.7482H79.7402H79.7323H79.7243H79.7164H79.7084H79.7004H79.6924H79.6844H79.6764H79.6684H79.6604H79.6523H79.6443H79.6363H79.6282H79.6201H79.612H79.6039H79.5958H79.5877H79.5796H79.5715H79.5633H79.5551H79.547H79.5388H79.5306H79.5224H79.5142H79.5059H79.4977H79.4894H79.4811H79.4728H79.4645H79.4561H79.4478H79.4394H79.431H79.4226H79.4142H79.4057H79.3973H79.3888H79.3803H79.3718H79.3633H79.3547H79.3461H79.3375H79.3289H79.3202H79.3116H79.3029H79.2942H79.2854H79.2767H79.2679H79.2591H79.2503H79.2414H79.2326H79.2236H79.2147H79.2058H79.1968H79.1878H79.1788H79.1697H79.1606H79.1515H79.1423H79.1332H79.124H79.1147H79.1055H79.0962H79.0869H79.0775H79.0682H79.0588H79.0493H79.0399H79.0303H79.0208H79.0112H79.0016H78.992H78.9823H78.9727H78.9629H78.9531H78.9433H78.9335H78.9236H78.9137H78.9037H78.8938H78.8837H78.8737H78.8636H78.8534H78.8433H78.8331H78.8228H78.8126H78.8022H78.7919H78.7814H78.771H78.7605H78.75H78.7394H78.7288H78.7182H78.7075H78.6967H78.686H78.6751H78.6643H78.6534H78.6424H78.6314H78.6204H78.6093H78.5981H78.587H78.5758H78.5645H78.5531H78.5418H78.5304H78.5189H78.5074H78.4959H78.4843H78.4726H78.4609H78.4492H78.4373H78.4255H78.4136H78.4016H78.3896H78.3776H78.3655H78.3533H78.3411H78.3289H78.3165H78.3041H78.2917H78.2792H78.2667H78.2542H78.2415H78.2288H78.2161H78.2032H78.1904H78.1774H78.1645H78.1514H78.1383H78.1252H78.112H78.0987H78.0854H78.0719H78.0585H78.045H78.0314H78.0178H78.0041H77.9904H77.9765H77.9627H77.9488H77.9348H77.9207H77.9066H77.8924H77.8781H77.8638H77.8495H77.835H77.8205H77.8059H77.7913H77.7766H77.7618H77.7469H77.732H77.717H77.702H77.6869H77.6717H77.6565H77.6412H77.6258H77.6104H77.5948H77.5792H77.5636H77.5478H77.532H77.5162H77.5002H77.4842H77.4681H77.4519H77.4357H77.4194H77.403H77.3865H77.37H77.3534H77.3367H77.3199H77.3031H77.2862H77.2692H77.2521H77.235H77.2178H77.2004H77.1831H77.1656H77.1481H77.1305H77.1128H77.095H77.0772H77.0593H77.0413H77.0232H77.005H76.9867H76.9684H76.95H76.9315H76.9129H76.8943H76.8755H76.8567H76.8377H76.8188H76.7997H76.7805H76.7612H76.7419H76.7225H76.703H76.6834H76.6637H76.6439H76.6241H76.6041H76.5841H76.564H76.5437H76.5235H76.5031H76.4825H76.462H76.4413H76.4206H76.3997H76.3788H76.3577H76.3366H76.3154H76.2941H76.2727H76.2512H76.2296H76.208H76.1862H76.1644H76.1423H76.1203H76.0982H76.0759H76.0535H76.0311H76.0086H75.9859H75.9632H75.9404H75.9175H75.8944H75.8713H75.848H75.8248H75.8013H75.7778H75.7541H75.7304H75.7066H75.6827H75.6586H75.6345H75.6103H75.586H75.5615H75.5369H75.5123H75.4876H75.4627H75.4378H75.4127H75.3875H75.3622H75.3368H75.3113H75.2858H75.26H75.2342H75.2083H75.1823H75.1562H75.1299H75.1036H75.0771H75.0505H75.0239H74.9971H74.9702H74.9432H74.9161H74.8888H74.8615H74.834H74.8064H74.7788H74.751H74.723H74.695H74.6669H74.6387H74.6103H74.5818H74.5532H74.5245H74.4957H74.4668H74.4377H74.4085H74.3792H74.3498H74.3203H74.2906H74.2609H74.231H74.201H74.1709H74.1406H74.1103H74.0798H74.0492H74.0185H73.9876H73.9567H73.9256H73.8944H73.8631H73.8316H73.8C73.6298 92.3265 73.218 92.399 72.509 92.6722C71.8379 92.9307 71.0348 93.3155 70.1333 93.8033C68.3325 94.7779 66.2656 96.0945 64.2894 97.435C62.3197 98.7712 60.4708 100.11 59.1123 101.117C58.908 101.268 58.715 101.412 58.5346 101.547L66.607 109.647L72.6134 103.685C72.9504 103.351 73.4052 103.163 73.8792 103.163H87.7108ZM89.0021 90.9355C89.1835 91.1695 89.3385 91.4176 89.4685 91.6784L100.537 87.2364L100.538 87.236C104.111 85.8005 108 88.441 108 92.3049C108 94.0272 107.192 95.6424 105.821 96.6727C105.767 96.7132 105.711 96.7506 105.653 96.7848L89.1112 106.527C88.8349 106.69 88.5203 106.776 88.2 106.776H74.619L67.8658 113.478C67.1618 114.177 66.0274 114.174 65.3272 113.471L54.5272 102.634C54.1616 102.267 53.9709 101.761 54.0036 101.243C54.0363 100.725 54.2893 100.247 54.6981 99.929L55.8 101.357C54.6981 99.929 54.6982 99.9289 54.6984 99.9287L54.6991 99.9282L54.7014 99.9264L54.7098 99.9199L54.7415 99.8955C54.7691 99.8741 54.8096 99.8428 54.8624 99.8022C54.9679 99.721 55.1222 99.6027 55.3196 99.4525C55.7142 99.1522 56.2811 98.7242 56.9737 98.211C58.3574 97.1857 60.2491 95.8155 62.2731 94.4425C64.2907 93.0739 66.4706 91.6813 68.4245 90.624C69.4004 90.0959 70.3515 89.634 71.2185 89.3C72.0476 88.9805 72.9577 88.7143 73.8 88.7143H73.8316H73.8631H73.8944H73.9256H73.9567H73.9876H74.0185H74.0492H74.0798H74.1103H74.1406H74.1709H74.201H74.231H74.2609H74.2906H74.3203H74.3498H74.3792H74.4085H74.4377H74.4668H74.4957H74.5245H74.5532H74.5818H74.6103H74.6387H74.6669H74.695H74.723H74.751H74.7788H74.8064H74.834H74.8615H74.8888H74.9161H74.9432H74.9702H74.9971H75.0239H75.0505H75.0771H75.1036H75.1299H75.1562H75.1823H75.2083H75.2342H75.26H75.2858H75.3113H75.3368H75.3622H75.3875H75.4127H75.4378H75.4627H75.4876H75.5123H75.5369H75.5615H75.586H75.6103H75.6345H75.6586H75.6827H75.7066H75.7304H75.7541H75.7778H75.8013H75.8248H75.848H75.8713H75.8944H75.9175H75.9404H75.9632H75.9859H76.0086H76.0311H76.0535H76.0759H76.0982H76.1203H76.1423H76.1644H76.1862H76.208H76.2296H76.2512H76.2727H76.2941H76.3154H76.3366H76.3577H76.3788H76.3997H76.4206H76.4413H76.462H76.4825H76.5031H76.5235H76.5437H76.564H76.5841H76.6041H76.6241H76.6439H76.6637H76.6834H76.703H76.7225H76.7419H76.7612H76.7805H76.7997H76.8188H76.8377H76.8567H76.8755H76.8943H76.9129H76.9315H76.95H76.9684H76.9867H77.005H77.0232H77.0413H77.0593H77.0772H77.095H77.1128H77.1305H77.1481H77.1656H77.1831H77.2004H77.2178H77.235H77.2521H77.2692H77.2862H77.3031H77.3199H77.3367H77.3534H77.37H77.3865H77.403H77.4194H77.4357H77.4519H77.4681H77.4842H77.5002H77.5162H77.532H77.5478H77.5636H77.5792H77.5948H77.6104H77.6258H77.6412H77.6565H77.6717H77.6869H77.702H77.717H77.732H77.7469H77.7618H77.7766H77.7913H77.8059H77.8205H77.835H77.8495H77.8638H77.8781H77.8924H77.9066H77.9207H77.9348H77.9488H77.9627H77.9765H77.9904H78.0041H78.0178H78.0314H78.045H78.0585H78.0719H78.0854H78.0987H78.112H78.1252H78.1383H78.1514H78.1645H78.1774H78.1904H78.2032H78.2161H78.2288H78.2415H78.2542H78.2667H78.2792H78.2917H78.3041H78.3165H78.3289H78.3411H78.3533H78.3655H78.3776H78.3896H78.4016H78.4136H78.4255H78.4373H78.4492H78.4609H78.4726H78.4843H78.4959H78.5074H78.5189H78.5304H78.5418H78.5531H78.5645H78.5758H78.587H78.5981H78.6093H78.6204H78.6314H78.6424H78.6534H78.6643H78.6751H78.686H78.6967H78.7075H78.7182H78.7288H78.7394H78.75H78.7605H78.771H78.7814H78.7919H78.8022H78.8126H78.8228H78.8331H78.8433H78.8534H78.8636H78.8737H78.8837H78.8938H78.9037H78.9137H78.9236H78.9335H78.9433H78.9531H78.9629H78.9727H78.9823H78.992H79.0016H79.0112H79.0208H79.0303H79.0399H79.0493H79.0588H79.0682H79.0775H79.0869H79.0962H79.1055H79.1147H79.124H79.1332H79.1423H79.1515H79.1606H79.1697H79.1788H79.1878H79.1968H79.2058H79.2147H79.2236H79.2326H79.2414H79.2503H79.2591H79.2679H79.2767H79.2854H79.2942H79.3029H79.3116H79.3202H79.3289H79.3375H79.3461H79.3547H79.3633H79.3718H79.3803H79.3888H79.3973H79.4057H79.4142H79.4226H79.431H79.4394H79.4478H79.4561H79.4645H79.4728H79.4811H79.4894H79.4977H79.5059H79.5142H79.5224H79.5306H79.5388H79.547H79.5551H79.5633H79.5715H79.5796H79.5877H79.5958H79.6039H79.612H79.6201H79.6282H79.6363H79.6443H79.6523H79.6604H79.6684H79.6764H79.6844H79.6924H79.7004H79.7084H79.7164H79.7243H79.7323H79.7402H79.7482H79.7561H79.7641H79.772H79.78H79.7879H79.7959H79.8038H79.8117H79.8196H79.8275H79.8355H79.8434H79.8512H79.8592H79.8671H79.875H79.8829H79.8908H79.8988H79.9066H79.9145H79.9225H79.9304H79.9383H79.9462H79.9541H79.9621H79.97H79.978H79.9859H79.9939H80.0018H80.0098H80.0177H80.0257H80.0336H80.0416H80.0496H80.0576H80.0656H80.0736H80.0816H80.0896H80.0977H80.1057H80.1137H80.1218H80.1299H80.138H80.1461H80.1542H80.1623H80.1704H80.1785H80.1867H80.1949H80.203H80.2112H80.2194H80.2276H80.2358H80.2441H80.2523H80.2606H80.2689H80.2772H80.2855H80.2939H80.3022H80.3106H80.319H80.3274H80.3358H80.3443H80.3527H80.3612H80.3697H80.3782H80.3867H80.3953H80.4039H80.4125H80.4211H80.4298H80.4384H80.4471H80.4558H80.4646H80.4733H80.4821H80.4909H80.4997H80.5086H80.5174H80.5264H80.5353H80.5442H80.5532H80.5622H80.5712H80.5803H80.5894H80.5985H80.6077H80.6168H80.626H80.6353H80.6445H80.6538H80.6631H80.6725H80.6818H80.6912H80.7007H80.7101H80.7197H80.7292H80.7388H80.7484H80.758H80.7677H80.7773H80.7871H80.7969H80.8067H80.8165H80.8264H80.8363H80.8463H80.8562H80.8663H80.8763H80.8864H80.8966H80.9067H80.9169H80.9272H80.9374H80.9478H80.9581H80.9686H80.979H80.9895H81L81.1704 88.7142H81.1705C82.8391 88.7136 84.8876 88.7128 86.5192 89.2585C87.4144 89.5579 88.3251 90.0621 89.0021 90.9355Z" fill="white"/>
<path d="M36.5 65C26.84 65 19 72.84 19 82.5C19 92.16 26.84 100 36.5 100C46.16 100 54 92.16 54 82.5C54 72.84 46.16 65 36.5 65ZM27.8725 93.49C28.625 91.915 33.21 90.375 36.5 90.375C39.79 90.375 44.3925 91.915 45.1275 93.49C42.7475 95.38 39.755 96.5 36.5 96.5C33.245 96.5 30.2525 95.38 27.8725 93.49ZM47.63 90.9525C45.1275 87.9075 39.055 86.875 36.5 86.875C33.945 86.875 27.8725 87.9075 25.37 90.9525C23.585 88.6075 22.5 85.685 22.5 82.5C22.5 74.7825 28.7825 68.5 36.5 68.5C44.2175 68.5 50.5 74.7825 50.5 82.5C50.5 85.685 49.415 88.6075 47.63 90.9525ZM36.5 72C33.105 72 30.375 74.73 30.375 78.125C30.375 81.52 33.105 84.25 36.5 84.25C39.895 84.25 42.625 81.52 42.625 78.125C42.625 74.73 39.895 72 36.5 72ZM36.5 80.75C35.0475 80.75 33.875 79.5775 33.875 78.125C33.875 76.6725 35.0475 75.5 36.5 75.5C37.9525 75.5 39.125 76.6725 39.125 78.125C39.125 79.5775 37.9525 80.75 36.5 80.75Z" fill="white"/>
</svg>
