<svg width="125" height="125" viewBox="0 0 125 125" fill="none" xmlns="http://www.w3.org/2000/svg">
<path d="M105 0H20C8.9543 0 0 8.9543 0 20V105C0 116.046 8.9543 125 20 125H105C116.046 125 125 116.046 125 105V20C125 8.9543 116.046 0 105 0Z" fill="#A3A3A3"/>
<path d="M11.2646 22.5576L8.42773 31H6.43848L10.1572 21.0469H11.4287L11.2646 22.5576ZM13.6367 31L10.7861 22.5576L10.6152 21.0469H11.8936L15.6328 31H13.6367ZM13.5068 27.3018V28.7852H8.16797V27.3018H13.5068ZM20.8418 29.2432V23.6035H22.6602V31H20.9512L20.8418 29.2432ZM21.0742 27.7119L21.6348 27.6982C21.6348 28.195 21.5801 28.653 21.4707 29.0723C21.3613 29.4915 21.1904 29.8561 20.958 30.166C20.7301 30.4714 20.4408 30.7106 20.0898 30.8838C19.7389 31.0524 19.3242 31.1367 18.8457 31.1367C18.4811 31.1367 18.1484 31.0866 17.8477 30.9863C17.5469 30.8815 17.2871 30.7197 17.0684 30.501C16.8542 30.2777 16.6878 29.9928 16.5693 29.6465C16.4508 29.2956 16.3916 28.874 16.3916 28.3818V23.6035H18.1963V28.3955C18.1963 28.6416 18.2236 28.8467 18.2783 29.0107C18.3376 29.1748 18.4173 29.3092 18.5176 29.4141C18.6224 29.5143 18.7432 29.5872 18.8799 29.6328C19.0212 29.6738 19.1715 29.6943 19.3311 29.6943C19.7686 29.6943 20.1126 29.6077 20.3633 29.4346C20.6185 29.2568 20.8008 29.0199 20.9102 28.7236C21.0195 28.4229 21.0742 28.0856 21.0742 27.7119ZM26.1875 23.4668V31H24.3828V23.4463C24.3828 22.9359 24.4557 22.4893 24.6016 22.1064C24.7474 21.7191 24.9548 21.3955 25.2236 21.1357C25.4971 20.876 25.8252 20.68 26.208 20.5479C26.5908 20.4157 27.0215 20.3496 27.5 20.3496C28.0241 20.3496 28.498 20.4408 28.9219 20.623C29.3457 20.8053 29.6829 21.0788 29.9336 21.4434C30.1842 21.8034 30.3096 22.2591 30.3096 22.8105C30.3096 23.1569 30.2708 23.4372 30.1934 23.6514C30.1159 23.861 30.027 24.0456 29.9268 24.2051C29.8311 24.3646 29.7445 24.5286 29.667 24.6973C29.5895 24.8659 29.5508 25.0801 29.5508 25.3398C29.5508 25.5449 29.6214 25.7363 29.7627 25.9141C29.9085 26.0918 30.0863 26.2695 30.2959 26.4473C30.5101 26.625 30.722 26.8187 30.9316 27.0283C31.1413 27.238 31.3167 27.4749 31.458 27.7393C31.6038 27.999 31.6768 28.3021 31.6768 28.6484C31.6768 29.1816 31.5583 29.6351 31.3213 30.0088C31.0889 30.3779 30.7516 30.6582 30.3096 30.8496C29.8675 31.041 29.3366 31.1367 28.7168 31.1367C28.4798 31.1367 28.2337 31.1185 27.9785 31.082C27.7279 31.0456 27.4954 30.9954 27.2812 30.9316C27.0716 30.8678 26.9053 30.7972 26.7822 30.7197L27.1309 29.3115C27.2812 29.3981 27.4909 29.487 27.7598 29.5781C28.0332 29.6693 28.334 29.7148 28.6621 29.7148C28.9264 29.7148 29.1475 29.6715 29.3252 29.585C29.5075 29.4984 29.6442 29.3799 29.7354 29.2295C29.8265 29.0745 29.8721 28.8945 29.8721 28.6895C29.8721 28.4525 29.8014 28.2451 29.6602 28.0674C29.5189 27.8851 29.3411 27.7096 29.127 27.541C28.9173 27.3724 28.7054 27.1924 28.4912 27.001C28.277 26.805 28.097 26.5794 27.9512 26.3242C27.8099 26.0645 27.7393 25.7568 27.7393 25.4014C27.7393 25.1006 27.778 24.8522 27.8555 24.6562C27.9375 24.4557 28.0309 24.2734 28.1357 24.1094C28.2406 23.9408 28.3317 23.7653 28.4092 23.583C28.4867 23.3962 28.5254 23.1729 28.5254 22.9131C28.5254 22.6715 28.4775 22.4665 28.3818 22.2979C28.2861 22.1292 28.1517 21.9993 27.9785 21.9082C27.8099 21.8171 27.6185 21.7715 27.4043 21.7715C27.1536 21.7715 26.9372 21.8285 26.7549 21.9424C26.5726 22.0518 26.4313 22.2318 26.3311 22.4824C26.2354 22.7285 26.1875 23.0566 26.1875 23.4668ZM36.3184 31.1367C35.7578 31.1367 35.2542 31.0456 34.8076 30.8633C34.361 30.681 33.9805 30.4281 33.666 30.1045C33.3561 29.7764 33.1169 29.3958 32.9482 28.9629C32.7842 28.5254 32.7021 28.056 32.7021 27.5547V27.2812C32.7021 26.7116 32.7842 26.1943 32.9482 25.7295C33.1123 25.2601 33.3447 24.8568 33.6455 24.5195C33.9463 24.1823 34.3063 23.9225 34.7256 23.7402C35.1449 23.5579 35.6074 23.4668 36.1133 23.4668C36.6374 23.4668 37.0999 23.5557 37.501 23.7334C37.902 23.9066 38.237 24.1527 38.5059 24.4717C38.7747 24.7907 38.9775 25.1735 39.1143 25.6201C39.251 26.0622 39.3193 26.5521 39.3193 27.0898V27.8486H33.5225V26.6045H37.542V26.4678C37.5329 26.1807 37.4782 25.9186 37.3779 25.6816C37.2777 25.4401 37.1227 25.2487 36.9131 25.1074C36.7035 24.9616 36.4323 24.8887 36.0996 24.8887C35.8307 24.8887 35.596 24.9479 35.3955 25.0664C35.1995 25.1803 35.0355 25.3444 34.9033 25.5586C34.7757 25.7682 34.68 26.0189 34.6162 26.3105C34.5524 26.6022 34.5205 26.9258 34.5205 27.2812V27.5547C34.5205 27.8646 34.5615 28.1517 34.6436 28.416C34.7301 28.6803 34.8555 28.9105 35.0195 29.1064C35.1882 29.2979 35.3887 29.4482 35.6211 29.5576C35.8581 29.6624 36.127 29.7148 36.4277 29.7148C36.806 29.7148 37.1478 29.6419 37.4531 29.4961C37.763 29.3457 38.0319 29.1247 38.2598 28.833L39.1689 29.7764C39.014 30.0042 38.8044 30.223 38.54 30.4326C38.2803 30.6423 37.9658 30.8132 37.5967 30.9453C37.2275 31.0729 36.8014 31.1367 36.3184 31.1367ZM42.334 25.1143V31H40.5293V23.6035H42.2383L42.334 25.1143ZM44.583 23.5557L44.5557 25.2373C44.4554 25.2191 44.3415 25.2054 44.2139 25.1963C44.0908 25.1872 43.9746 25.1826 43.8652 25.1826C43.5872 25.1826 43.3434 25.2214 43.1338 25.2988C42.9242 25.3717 42.7487 25.4788 42.6074 25.6201C42.4707 25.7614 42.3659 25.9346 42.293 26.1396C42.2201 26.3402 42.179 26.568 42.1699 26.8232L41.7803 26.7754C41.7803 26.306 41.8281 25.8708 41.9238 25.4697C42.0195 25.0687 42.1585 24.7178 42.3408 24.417C42.5231 24.1162 42.751 23.8838 43.0244 23.7197C43.3024 23.5511 43.6214 23.4668 43.9814 23.4668C44.0817 23.4668 44.1888 23.4759 44.3027 23.4941C44.4212 23.5078 44.5146 23.5283 44.583 23.5557ZM45.5674 20.5H47.3789V29.3662L47.2012 31H45.5674V20.5ZM52.1367 27.2266V27.3701C52.1367 27.9215 52.0752 28.4274 51.9521 28.8877C51.8337 29.348 51.6536 29.7467 51.4121 30.084C51.1706 30.4167 50.8698 30.6764 50.5098 30.8633C50.1543 31.0456 49.7373 31.1367 49.2588 31.1367C48.8031 31.1367 48.4066 31.0479 48.0693 30.8701C47.7367 30.6924 47.4564 30.4417 47.2285 30.1182C47.0007 29.79 46.8184 29.4049 46.6816 28.9629C46.5449 28.5163 46.4424 28.0286 46.374 27.5V27.1104C46.4424 26.5771 46.5449 26.0895 46.6816 25.6475C46.8184 25.2054 47.0007 24.8203 47.2285 24.4922C47.4564 24.1641 47.7367 23.9111 48.0693 23.7334C48.402 23.5557 48.7939 23.4668 49.2451 23.4668C49.7282 23.4668 50.1497 23.5602 50.5098 23.7471C50.8743 23.9294 51.1751 24.1891 51.4121 24.5264C51.6536 24.859 51.8337 25.2555 51.9521 25.7158C52.0752 26.1715 52.1367 26.6751 52.1367 27.2266ZM50.3252 27.3701V27.2266C50.3252 26.9121 50.3001 26.6159 50.25 26.3379C50.1999 26.0553 50.1178 25.807 50.0039 25.5928C49.89 25.3786 49.735 25.21 49.5391 25.0869C49.3431 24.9639 49.097 24.9023 48.8008 24.9023C48.5182 24.9023 48.2767 24.9502 48.0762 25.0459C47.8802 25.1416 47.7161 25.2738 47.584 25.4424C47.4564 25.611 47.3561 25.8092 47.2832 26.0371C47.2148 26.265 47.1693 26.5111 47.1465 26.7754V27.8418C47.1784 28.1927 47.2536 28.5094 47.3721 28.792C47.4906 29.07 47.666 29.291 47.8984 29.4551C48.1354 29.6191 48.4408 29.7012 48.8145 29.7012C49.1061 29.7012 49.3499 29.6442 49.5459 29.5303C49.7419 29.4118 49.8968 29.2477 50.0107 29.0381C50.1247 28.8239 50.2044 28.5755 50.25 28.293C50.3001 28.0104 50.3252 27.7028 50.3252 27.3701ZM56.7715 31.1367C56.2109 31.1367 55.7074 31.0456 55.2607 30.8633C54.8141 30.681 54.4336 30.4281 54.1191 30.1045C53.8092 29.7764 53.57 29.3958 53.4014 28.9629C53.2373 28.5254 53.1553 28.056 53.1553 27.5547V27.2812C53.1553 26.7116 53.2373 26.1943 53.4014 25.7295C53.5654 25.2601 53.7979 24.8568 54.0986 24.5195C54.3994 24.1823 54.7594 23.9225 55.1787 23.7402C55.598 23.5579 56.0605 23.4668 56.5664 23.4668C57.0905 23.4668 57.5531 23.5557 57.9541 23.7334C58.3551 23.9066 58.6901 24.1527 58.959 24.4717C59.2279 24.7907 59.4307 25.1735 59.5674 25.6201C59.7041 26.0622 59.7725 26.5521 59.7725 27.0898V27.8486H53.9756V26.6045H57.9951V26.4678C57.986 26.1807 57.9313 25.9186 57.8311 25.6816C57.7308 25.4401 57.5758 25.2487 57.3662 25.1074C57.1566 24.9616 56.8854 24.8887 56.5527 24.8887C56.2839 24.8887 56.0492 24.9479 55.8486 25.0664C55.6527 25.1803 55.4886 25.3444 55.3564 25.5586C55.2288 25.7682 55.1331 26.0189 55.0693 26.3105C55.0055 26.6022 54.9736 26.9258 54.9736 27.2812V27.5547C54.9736 27.8646 55.0146 28.1517 55.0967 28.416C55.1833 28.6803 55.3086 28.9105 55.4727 29.1064C55.6413 29.2979 55.8418 29.4482 56.0742 29.5576C56.3112 29.6624 56.5801 29.7148 56.8809 29.7148C57.2591 29.7148 57.6009 29.6419 57.9062 29.4961C58.2161 29.3457 58.485 29.1247 58.7129 28.833L59.6221 29.7764C59.4671 30.0042 59.2575 30.223 58.9932 30.4326C58.7334 30.6423 58.4189 30.8132 58.0498 30.9453C57.6807 31.0729 57.2546 31.1367 56.7715 31.1367ZM62.7529 20.5V31H60.9414V20.5H62.7529ZM62.4658 27.0352H61.9326C61.9326 26.5202 62.001 26.0462 62.1377 25.6133C62.2744 25.1803 62.4681 24.8044 62.7188 24.4854C62.9694 24.1618 63.2679 23.9111 63.6143 23.7334C63.9652 23.5557 64.3525 23.4668 64.7764 23.4668C65.141 23.4668 65.4714 23.5192 65.7676 23.624C66.0684 23.7243 66.3258 23.8861 66.54 24.1094C66.7542 24.3327 66.9183 24.6243 67.0322 24.9844C67.1507 25.3398 67.21 25.7728 67.21 26.2832V31H65.3916V26.2695C65.3916 25.9277 65.3415 25.6589 65.2412 25.4629C65.141 25.2624 64.9974 25.1188 64.8105 25.0322C64.6283 24.9456 64.4027 24.9023 64.1338 24.9023C63.8421 24.9023 63.5915 24.9593 63.3818 25.0732C63.1722 25.1826 62.999 25.3353 62.8623 25.5312C62.7301 25.7272 62.6299 25.9528 62.5615 26.208C62.4977 26.4632 62.4658 26.7389 62.4658 27.0352ZM68.4814 27.377V27.2334C68.4814 26.6911 68.5589 26.1921 68.7139 25.7363C68.8688 25.276 69.0944 24.8773 69.3906 24.54C69.6868 24.2028 70.0492 23.9408 70.4775 23.7539C70.9059 23.5625 71.3936 23.4668 71.9404 23.4668C72.4964 23.4668 72.9886 23.5625 73.417 23.7539C73.8499 23.9408 74.2145 24.2028 74.5107 24.54C74.807 24.8773 75.0326 25.276 75.1875 25.7363C75.3424 26.1921 75.4199 26.6911 75.4199 27.2334V27.377C75.4199 27.9147 75.3424 28.4137 75.1875 28.874C75.0326 29.3298 74.807 29.7285 74.5107 30.0703C74.2145 30.4076 73.8522 30.6696 73.4238 30.8564C72.9954 31.0433 72.5055 31.1367 71.9541 31.1367C71.4072 31.1367 70.9173 31.0433 70.4844 30.8564C70.0514 30.6696 69.6868 30.4076 69.3906 30.0703C69.0944 29.7285 68.8688 29.3298 68.7139 28.874C68.5589 28.4137 68.4814 27.9147 68.4814 27.377ZM70.2861 27.2334V27.377C70.2861 27.7005 70.318 28.0036 70.3818 28.2861C70.4456 28.5687 70.5436 28.8171 70.6758 29.0312C70.8079 29.2454 70.9788 29.4141 71.1885 29.5371C71.4027 29.6556 71.6579 29.7148 71.9541 29.7148C72.2458 29.7148 72.4964 29.6556 72.7061 29.5371C72.9157 29.4141 73.0866 29.2454 73.2188 29.0312C73.3555 28.8171 73.4557 28.5687 73.5195 28.2861C73.5833 28.0036 73.6152 27.7005 73.6152 27.377V27.2334C73.6152 26.9144 73.5833 26.6159 73.5195 26.3379C73.4557 26.0553 73.3555 25.807 73.2188 25.5928C73.0866 25.374 72.9134 25.2031 72.6992 25.0801C72.4896 24.9525 72.2367 24.8887 71.9404 24.8887C71.6488 24.8887 71.3981 24.9525 71.1885 25.0801C70.9788 25.2031 70.8079 25.374 70.6758 25.5928C70.5436 25.807 70.4456 26.0553 70.3818 26.3379C70.318 26.6159 70.2861 26.9144 70.2861 27.2334ZM69.3975 21.6484C69.3975 21.416 69.4818 21.2223 69.6504 21.0674C69.819 20.9079 70.0332 20.8281 70.293 20.8281C70.5573 20.8281 70.7715 20.9079 70.9355 21.0674C71.1042 21.2223 71.1885 21.416 71.1885 21.6484C71.1885 21.8763 71.1042 22.07 70.9355 22.2295C70.7715 22.3844 70.5573 22.4619 70.293 22.4619C70.0332 22.4619 69.819 22.3844 69.6504 22.2295C69.4818 22.07 69.3975 21.8763 69.3975 21.6484ZM72.6582 21.6553C72.6582 21.4229 72.7402 21.2292 72.9043 21.0742C73.0729 20.9147 73.2894 20.835 73.5537 20.835C73.8135 20.835 74.0277 20.9147 74.1963 21.0742C74.3649 21.2292 74.4492 21.4229 74.4492 21.6553C74.4492 21.8831 74.3649 22.0768 74.1963 22.2363C74.0277 22.3913 73.8135 22.4688 73.5537 22.4688C73.2894 22.4688 73.0729 22.3913 72.9043 22.2363C72.7402 22.0768 72.6582 21.8831 72.6582 21.6553ZM78.5371 25.1143V31H76.7324V23.6035H78.4414L78.5371 25.1143ZM80.7861 23.5557L80.7588 25.2373C80.6585 25.2191 80.5446 25.2054 80.417 25.1963C80.2939 25.1872 80.1777 25.1826 80.0684 25.1826C79.7904 25.1826 79.5465 25.2214 79.3369 25.2988C79.1273 25.3717 78.9518 25.4788 78.8105 25.6201C78.6738 25.7614 78.569 25.9346 78.4961 26.1396C78.4232 26.3402 78.3822 26.568 78.373 26.8232L77.9834 26.7754C77.9834 26.306 78.0312 25.8708 78.127 25.4697C78.2227 25.0687 78.3617 24.7178 78.5439 24.417C78.7262 24.1162 78.9541 23.8838 79.2275 23.7197C79.5055 23.5511 79.8245 23.4668 80.1846 23.4668C80.2848 23.4668 80.3919 23.4759 80.5059 23.4941C80.6243 23.5078 80.7178 23.5283 80.7861 23.5557ZM86.0771 29.4277V20.5H87.8955V31H86.2549L86.0771 29.4277ZM81.3262 27.3906V27.2471C81.3262 26.682 81.39 26.1693 81.5176 25.709C81.6497 25.2441 81.8411 24.8454 82.0918 24.5127C82.3424 24.18 82.6455 23.9225 83.001 23.7402C83.361 23.5579 83.7689 23.4668 84.2246 23.4668C84.6667 23.4668 85.0518 23.5557 85.3799 23.7334C85.7126 23.9111 85.9951 24.1641 86.2275 24.4922C86.4645 24.8203 86.6536 25.21 86.7949 25.6611C86.9362 26.1077 87.0387 26.5999 87.1025 27.1377V27.5273C87.0387 28.0514 86.9362 28.5322 86.7949 28.9697C86.6536 29.4072 86.4645 29.79 86.2275 30.1182C85.9951 30.4417 85.7126 30.6924 85.3799 30.8701C85.0472 31.0479 84.6576 31.1367 84.2109 31.1367C83.7598 31.1367 83.3542 31.0433 82.9941 30.8564C82.6387 30.6696 82.3356 30.4076 82.085 30.0703C81.8389 29.7331 81.6497 29.3366 81.5176 28.8809C81.39 28.4251 81.3262 27.9284 81.3262 27.3906ZM83.1377 27.2471V27.3906C83.1377 27.7096 83.165 28.0081 83.2197 28.2861C83.2744 28.5641 83.3633 28.8102 83.4863 29.0244C83.6094 29.234 83.7666 29.3981 83.958 29.5166C84.154 29.6351 84.391 29.6943 84.6689 29.6943C85.0244 29.6943 85.3161 29.6169 85.5439 29.4619C85.7764 29.3024 85.9564 29.0859 86.084 28.8125C86.2116 28.5345 86.2936 28.2223 86.3301 27.876V26.8027C86.3118 26.5293 86.264 26.2764 86.1865 26.0439C86.1136 25.8115 86.0088 25.611 85.8721 25.4424C85.7399 25.2738 85.5758 25.1416 85.3799 25.0459C85.1839 24.9502 84.9515 24.9023 84.6826 24.9023C84.4046 24.9023 84.1676 24.9639 83.9717 25.0869C83.7757 25.2054 83.6162 25.3717 83.4932 25.5859C83.3701 25.8001 83.279 26.0485 83.2197 26.3311C83.165 26.6136 83.1377 26.9189 83.1377 27.2471ZM91.4434 20.5V31H89.6318V20.5H91.4434ZM95.0801 23.6035V31H93.2686V23.6035H95.0801ZM93.1455 21.6689C93.1455 21.4001 93.2367 21.1768 93.4189 20.999C93.6058 20.8213 93.8564 20.7324 94.1709 20.7324C94.4854 20.7324 94.7337 20.8213 94.916 20.999C95.1029 21.1768 95.1963 21.4001 95.1963 21.6689C95.1963 21.9333 95.1029 22.1543 94.916 22.332C94.7337 22.5098 94.4854 22.5986 94.1709 22.5986C93.8564 22.5986 93.6058 22.5098 93.4189 22.332C93.2367 22.1543 93.1455 21.9333 93.1455 21.6689ZM99.8379 29.7148C100.093 29.7148 100.321 29.6647 100.521 29.5645C100.722 29.4642 100.882 29.3229 101 29.1406C101.123 28.9583 101.189 28.7464 101.198 28.5049H102.9C102.891 29.0062 102.75 29.4551 102.477 29.8516C102.203 30.248 101.839 30.5625 101.383 30.7949C100.932 31.0228 100.426 31.1367 99.8652 31.1367C99.2956 31.1367 98.7988 31.041 98.375 30.8496C97.9512 30.6582 97.598 30.3916 97.3154 30.0498C97.0374 29.708 96.8278 29.3115 96.6865 28.8604C96.5498 28.4092 96.4814 27.9261 96.4814 27.4111V27.1924C96.4814 26.6774 96.5498 26.1943 96.6865 25.7432C96.8278 25.292 97.0374 24.8955 97.3154 24.5537C97.598 24.2119 97.9512 23.9453 98.375 23.7539C98.7988 23.5625 99.2933 23.4668 99.8584 23.4668C100.455 23.4668 100.979 23.583 101.431 23.8154C101.886 24.0479 102.242 24.376 102.497 24.7998C102.757 25.2236 102.891 25.7227 102.9 26.2969H101.198C101.189 26.0326 101.13 25.7956 101.021 25.5859C100.911 25.3763 100.756 25.2077 100.556 25.0801C100.355 24.9525 100.111 24.8887 99.8242 24.8887C99.5189 24.8887 99.2637 24.9525 99.0586 25.0801C98.8581 25.2077 98.7008 25.3831 98.5869 25.6064C98.4775 25.8252 98.4001 26.0713 98.3545 26.3447C98.3135 26.6136 98.293 26.8962 98.293 27.1924V27.4111C98.293 27.7119 98.3135 27.999 98.3545 28.2725C98.4001 28.5459 98.4775 28.792 98.5869 29.0107C98.7008 29.2249 98.8581 29.3958 99.0586 29.5234C99.2637 29.651 99.5234 29.7148 99.8379 29.7148ZM105.874 20.5V31H104.062V20.5H105.874ZM105.587 27.0352H105.054C105.054 26.5202 105.122 26.0462 105.259 25.6133C105.396 25.1803 105.589 24.8044 105.84 24.4854C106.09 24.1618 106.389 23.9111 106.735 23.7334C107.086 23.5557 107.474 23.4668 107.897 23.4668C108.262 23.4668 108.592 23.5192 108.889 23.624C109.189 23.7243 109.447 23.8861 109.661 24.1094C109.875 24.3327 110.039 24.6243 110.153 24.9844C110.272 25.3398 110.331 25.7728 110.331 26.2832V31H108.513V26.2695C108.513 25.9277 108.463 25.6589 108.362 25.4629C108.262 25.2624 108.118 25.1188 107.932 25.0322C107.749 24.9456 107.524 24.9023 107.255 24.9023C106.963 24.9023 106.713 24.9593 106.503 25.0732C106.293 25.1826 106.12 25.3353 105.983 25.5312C105.851 25.7272 105.751 25.9528 105.683 26.208C105.619 26.4632 105.587 26.7389 105.587 27.0352ZM115.246 31.1367C114.686 31.1367 114.182 31.0456 113.735 30.8633C113.289 30.681 112.908 30.4281 112.594 30.1045C112.284 29.7764 112.045 29.3958 111.876 28.9629C111.712 28.5254 111.63 28.056 111.63 27.5547V27.2812C111.63 26.7116 111.712 26.1943 111.876 25.7295C112.04 25.2601 112.272 24.8568 112.573 24.5195C112.874 24.1823 113.234 23.9225 113.653 23.7402C114.073 23.5579 114.535 23.4668 115.041 23.4668C115.565 23.4668 116.028 23.5557 116.429 23.7334C116.83 23.9066 117.165 24.1527 117.434 24.4717C117.702 24.7907 117.905 25.1735 118.042 25.6201C118.179 26.0622 118.247 26.5521 118.247 27.0898V27.8486H112.45V26.6045H116.47V26.4678C116.461 26.1807 116.406 25.9186 116.306 25.6816C116.205 25.4401 116.05 25.2487 115.841 25.1074C115.631 24.9616 115.36 24.8887 115.027 24.8887C114.758 24.8887 114.524 24.9479 114.323 25.0664C114.127 25.1803 113.963 25.3444 113.831 25.5586C113.703 25.7682 113.608 26.0189 113.544 26.3105C113.48 26.6022 113.448 26.9258 113.448 27.2812V27.5547C113.448 27.8646 113.489 28.1517 113.571 28.416C113.658 28.6803 113.783 28.9105 113.947 29.1064C114.116 29.2979 114.316 29.4482 114.549 29.5576C114.786 29.6624 115.055 29.7148 115.355 29.7148C115.734 29.7148 116.076 29.6419 116.381 29.4961C116.691 29.3457 116.96 29.1247 117.188 28.833L118.097 29.7764C117.942 30.0042 117.732 30.223 117.468 30.4326C117.208 30.6423 116.894 30.8132 116.524 30.9453C116.155 31.0729 115.729 31.1367 115.246 31.1367ZM25.7705 37.0469V47H23.8906V37.0469H25.7705ZM29.4346 41.1826V47H27.6299V39.6035H29.3252L29.4346 41.1826ZM29.1475 43.0352H28.6143C28.6188 42.4974 28.6917 42.0098 28.833 41.5723C28.9743 41.1348 29.1725 40.7588 29.4277 40.4443C29.6875 40.1299 29.9951 39.8883 30.3506 39.7197C30.7061 39.5511 31.1025 39.4668 31.54 39.4668C31.8955 39.4668 32.2168 39.5169 32.5039 39.6172C32.791 39.7174 33.0371 39.877 33.2422 40.0957C33.4518 40.3145 33.6113 40.6016 33.7207 40.957C33.8346 41.3079 33.8916 41.7409 33.8916 42.2559V47H32.0732V42.2422C32.0732 41.9049 32.0231 41.6383 31.9229 41.4424C31.8271 41.2464 31.6859 41.1074 31.499 41.0254C31.3167 40.9434 31.0911 40.9023 30.8223 40.9023C30.5443 40.9023 30.3005 40.9593 30.0908 41.0732C29.8857 41.1826 29.7126 41.3353 29.5713 41.5312C29.4346 41.7272 29.3298 41.9528 29.2568 42.208C29.1839 42.4632 29.1475 42.7389 29.1475 43.0352ZM39.5518 44.9766C39.5518 44.8216 39.5107 44.6826 39.4287 44.5596C39.3467 44.4365 39.1917 44.3249 38.9639 44.2246C38.7406 44.1198 38.4124 44.0218 37.9795 43.9307C37.5967 43.8486 37.2435 43.7461 36.9199 43.623C36.5964 43.5 36.3184 43.3519 36.0859 43.1787C35.8535 43.001 35.6712 42.7936 35.5391 42.5566C35.4115 42.3151 35.3477 42.0371 35.3477 41.7227C35.3477 41.4173 35.4137 41.1302 35.5459 40.8613C35.6781 40.5879 35.8695 40.3486 36.1201 40.1436C36.3708 39.9339 36.6761 39.7699 37.0361 39.6514C37.3962 39.5283 37.8018 39.4668 38.2529 39.4668C38.8818 39.4668 39.4219 39.5693 39.873 39.7744C40.3288 39.9795 40.6774 40.262 40.9189 40.6221C41.1605 40.9775 41.2812 41.3786 41.2812 41.8252H39.4766C39.4766 41.6292 39.431 41.4515 39.3398 41.292C39.2533 41.1325 39.1188 41.0049 38.9365 40.9092C38.7542 40.8089 38.5241 40.7588 38.2461 40.7588C37.9954 40.7588 37.7835 40.7998 37.6104 40.8818C37.4417 40.9639 37.3141 41.071 37.2275 41.2031C37.141 41.3353 37.0977 41.4811 37.0977 41.6406C37.0977 41.7591 37.1204 41.8662 37.166 41.9619C37.2161 42.0531 37.2959 42.1374 37.4053 42.2148C37.5146 42.2923 37.6628 42.363 37.8496 42.4268C38.041 42.4906 38.2757 42.5521 38.5537 42.6113C39.1051 42.7207 39.5859 42.8665 39.9961 43.0488C40.4108 43.2266 40.7344 43.4635 40.9668 43.7598C41.1992 44.056 41.3154 44.4342 41.3154 44.8945C41.3154 45.2227 41.2448 45.5234 41.1035 45.7969C40.9622 46.0658 40.7572 46.3005 40.4883 46.501C40.2194 46.7015 39.8981 46.8587 39.5244 46.9727C39.1507 47.082 38.7292 47.1367 38.2598 47.1367C37.5807 47.1367 37.0065 47.016 36.5371 46.7744C36.0677 46.5283 35.7122 46.2184 35.4707 45.8447C35.2292 45.4665 35.1084 45.0745 35.1084 44.6689H36.8379C36.8516 44.9561 36.929 45.1862 37.0703 45.3594C37.2116 45.5326 37.3893 45.6579 37.6035 45.7354C37.8223 45.8083 38.0524 45.8447 38.2939 45.8447C38.5674 45.8447 38.7975 45.8083 38.9844 45.7354C39.1712 45.6579 39.3125 45.5553 39.4082 45.4277C39.5039 45.2956 39.5518 45.1452 39.5518 44.9766ZM46.1895 39.6035V40.9023H41.9512V39.6035H46.1895ZM43.0859 37.7852H44.8975V44.8672C44.8975 45.0859 44.9271 45.2546 44.9863 45.373C45.0456 45.4915 45.1344 45.5713 45.2529 45.6123C45.3714 45.6533 45.5127 45.6738 45.6768 45.6738C45.7952 45.6738 45.9046 45.667 46.0049 45.6533C46.1051 45.6396 46.1895 45.626 46.2578 45.6123L46.2646 46.9658C46.1143 47.016 45.9434 47.057 45.752 47.0889C45.5651 47.1208 45.3532 47.1367 45.1162 47.1367C44.7106 47.1367 44.3551 47.0684 44.0498 46.9316C43.7445 46.7904 43.5075 46.5648 43.3389 46.2549C43.1702 45.9404 43.0859 45.5257 43.0859 45.0107V37.7852ZM49.3066 39.6035V47H47.4951V39.6035H49.3066ZM47.3721 37.6689C47.3721 37.4001 47.4632 37.1768 47.6455 36.999C47.8324 36.8213 48.083 36.7324 48.3975 36.7324C48.7119 36.7324 48.9603 36.8213 49.1426 36.999C49.3294 37.1768 49.4229 37.4001 49.4229 37.6689C49.4229 37.9333 49.3294 38.1543 49.1426 38.332C48.9603 38.5098 48.7119 38.5986 48.3975 38.5986C48.083 38.5986 47.8324 38.5098 47.6455 38.332C47.4632 38.1543 47.3721 37.9333 47.3721 37.6689ZM54.5293 39.6035V40.9023H50.291V39.6035H54.5293ZM51.4258 37.7852H53.2373V44.8672C53.2373 45.0859 53.2669 45.2546 53.3262 45.373C53.3854 45.4915 53.4743 45.5713 53.5928 45.6123C53.7113 45.6533 53.8525 45.6738 54.0166 45.6738C54.1351 45.6738 54.2445 45.667 54.3447 45.6533C54.445 45.6396 54.5293 45.626 54.5977 45.6123L54.6045 46.9658C54.4541 47.016 54.2832 47.057 54.0918 47.0889C53.9049 47.1208 53.693 47.1367 53.4561 47.1367C53.0505 47.1367 52.695 47.0684 52.3896 46.9316C52.0843 46.7904 51.8473 46.5648 51.6787 46.2549C51.5101 45.9404 51.4258 45.5257 51.4258 45.0107V37.7852ZM60.1348 45.2432V39.6035H61.9531V47H60.2441L60.1348 45.2432ZM60.3672 43.7119L60.9277 43.6982C60.9277 44.195 60.873 44.653 60.7637 45.0723C60.6543 45.4915 60.4834 45.8561 60.251 46.166C60.0231 46.4714 59.7337 46.7106 59.3828 46.8838C59.0319 47.0524 58.6172 47.1367 58.1387 47.1367C57.7741 47.1367 57.4414 47.0866 57.1406 46.9863C56.8398 46.8815 56.5801 46.7197 56.3613 46.501C56.1471 46.2777 55.9808 45.9928 55.8623 45.6465C55.7438 45.2956 55.6846 44.874 55.6846 44.3818V39.6035H57.4893V44.3955C57.4893 44.6416 57.5166 44.8467 57.5713 45.0107C57.6305 45.1748 57.7103 45.3092 57.8105 45.4141C57.9154 45.5143 58.0361 45.5872 58.1729 45.6328C58.3141 45.6738 58.4645 45.6943 58.624 45.6943C59.0615 45.6943 59.4056 45.6077 59.6562 45.4346C59.9115 45.2568 60.0938 45.0199 60.2031 44.7236C60.3125 44.4229 60.3672 44.0856 60.3672 43.7119ZM67.0527 39.6035V40.9023H62.8145V39.6035H67.0527ZM63.9492 37.7852H65.7607V44.8672C65.7607 45.0859 65.7904 45.2546 65.8496 45.373C65.9089 45.4915 65.9977 45.5713 66.1162 45.6123C66.2347 45.6533 66.376 45.6738 66.54 45.6738C66.6585 45.6738 66.7679 45.667 66.8682 45.6533C66.9684 45.6396 67.0527 45.626 67.1211 45.6123L67.1279 46.9658C66.9775 47.016 66.8066 47.057 66.6152 47.0889C66.4284 47.1208 66.2165 47.1367 65.9795 47.1367C65.5739 47.1367 65.2184 47.0684 64.9131 46.9316C64.6077 46.7904 64.3708 46.5648 64.2021 46.2549C64.0335 45.9404 63.9492 45.5257 63.9492 45.0107V37.7852ZM70.1699 39.6035V47H68.3584V39.6035H70.1699ZM68.2354 37.6689C68.2354 37.4001 68.3265 37.1768 68.5088 36.999C68.6956 36.8213 68.9463 36.7324 69.2607 36.7324C69.5752 36.7324 69.8236 36.8213 70.0059 36.999C70.1927 37.1768 70.2861 37.4001 70.2861 37.6689C70.2861 37.9333 70.1927 38.1543 70.0059 38.332C69.8236 38.5098 69.5752 38.5986 69.2607 38.5986C68.9463 38.5986 68.6956 38.5098 68.5088 38.332C68.3265 38.1543 68.2354 37.9333 68.2354 37.6689ZM71.5713 43.377V43.2334C71.5713 42.6911 71.6488 42.1921 71.8037 41.7363C71.9587 41.276 72.1842 40.8773 72.4805 40.54C72.7767 40.2028 73.139 39.9408 73.5674 39.7539C73.9958 39.5625 74.4834 39.4668 75.0303 39.4668C75.5863 39.4668 76.0785 39.5625 76.5068 39.7539C76.9398 39.9408 77.3044 40.2028 77.6006 40.54C77.8968 40.8773 78.1224 41.276 78.2773 41.7363C78.4323 42.1921 78.5098 42.6911 78.5098 43.2334V43.377C78.5098 43.9147 78.4323 44.4137 78.2773 44.874C78.1224 45.3298 77.8968 45.7285 77.6006 46.0703C77.3044 46.4076 76.9421 46.6696 76.5137 46.8564C76.0853 47.0433 75.5954 47.1367 75.0439 47.1367C74.4971 47.1367 74.0072 47.0433 73.5742 46.8564C73.1413 46.6696 72.7767 46.4076 72.4805 46.0703C72.1842 45.7285 71.9587 45.3298 71.8037 44.874C71.6488 44.4137 71.5713 43.9147 71.5713 43.377ZM73.376 43.2334V43.377C73.376 43.7005 73.4079 44.0036 73.4717 44.2861C73.5355 44.5687 73.6335 44.8171 73.7656 45.0312C73.8978 45.2454 74.0687 45.4141 74.2783 45.5371C74.4925 45.6556 74.7477 45.7148 75.0439 45.7148C75.3356 45.7148 75.5863 45.6556 75.7959 45.5371C76.0055 45.4141 76.1764 45.2454 76.3086 45.0312C76.4453 44.8171 76.5456 44.5687 76.6094 44.2861C76.6732 44.0036 76.7051 43.7005 76.7051 43.377V43.2334C76.7051 42.9144 76.6732 42.6159 76.6094 42.3379C76.5456 42.0553 76.4453 41.807 76.3086 41.5928C76.1764 41.374 76.0033 41.2031 75.7891 41.0801C75.5794 40.9525 75.3265 40.8887 75.0303 40.8887C74.7386 40.8887 74.488 40.9525 74.2783 41.0801C74.0687 41.2031 73.8978 41.374 73.7656 41.5928C73.6335 41.807 73.5355 42.0553 73.4717 42.3379C73.4079 42.6159 73.376 42.9144 73.376 43.2334ZM81.5928 41.1826V47H79.7881V39.6035H81.4834L81.5928 41.1826ZM81.3057 43.0352H80.7725C80.777 42.4974 80.8499 42.0098 80.9912 41.5723C81.1325 41.1348 81.3307 40.7588 81.5859 40.4443C81.8457 40.1299 82.1533 39.8883 82.5088 39.7197C82.8643 39.5511 83.2607 39.4668 83.6982 39.4668C84.0537 39.4668 84.375 39.5169 84.6621 39.6172C84.9492 39.7174 85.1953 39.877 85.4004 40.0957C85.61 40.3145 85.7695 40.6016 85.8789 40.957C85.9928 41.3079 86.0498 41.7409 86.0498 42.2559V47H84.2314V42.2422C84.2314 41.9049 84.1813 41.6383 84.0811 41.4424C83.9854 41.2464 83.8441 41.1074 83.6572 41.0254C83.4749 40.9434 83.2493 40.9023 82.9805 40.9023C82.7025 40.9023 82.4587 40.9593 82.249 41.0732C82.0439 41.1826 81.8708 41.3353 81.7295 41.5312C81.5928 41.7272 81.488 41.9528 81.415 42.208C81.3421 42.4632 81.3057 42.7389 81.3057 43.0352ZM90.9648 47.1367C90.4043 47.1367 89.9007 47.0456 89.4541 46.8633C89.0075 46.681 88.627 46.4281 88.3125 46.1045C88.0026 45.7764 87.7633 45.3958 87.5947 44.9629C87.4307 44.5254 87.3486 44.056 87.3486 43.5547V43.2812C87.3486 42.7116 87.4307 42.1943 87.5947 41.7295C87.7588 41.2601 87.9912 40.8568 88.292 40.5195C88.5928 40.1823 88.9528 39.9225 89.3721 39.7402C89.7913 39.5579 90.2539 39.4668 90.7598 39.4668C91.2839 39.4668 91.7464 39.5557 92.1475 39.7334C92.5485 39.9066 92.8835 40.1527 93.1523 40.4717C93.4212 40.7907 93.624 41.1735 93.7607 41.6201C93.8975 42.0622 93.9658 42.5521 93.9658 43.0898V43.8486H88.1689V42.6045H92.1885V42.4678C92.1794 42.1807 92.1247 41.9186 92.0244 41.6816C91.9242 41.4401 91.7692 41.2487 91.5596 41.1074C91.3499 40.9616 91.0788 40.8887 90.7461 40.8887C90.4772 40.8887 90.2425 40.9479 90.042 41.0664C89.846 41.1803 89.682 41.3444 89.5498 41.5586C89.4222 41.7682 89.3265 42.0189 89.2627 42.3105C89.1989 42.6022 89.167 42.9258 89.167 43.2812V43.5547C89.167 43.8646 89.208 44.1517 89.29 44.416C89.3766 44.6803 89.502 44.9105 89.666 45.1064C89.8346 45.2979 90.0352 45.4482 90.2676 45.5576C90.5046 45.6624 90.7734 45.7148 91.0742 45.7148C91.4525 45.7148 91.7943 45.6419 92.0996 45.4961C92.4095 45.3457 92.6784 45.1247 92.9062 44.833L93.8154 45.7764C93.6605 46.0042 93.4508 46.223 93.1865 46.4326C92.9268 46.6423 92.6123 46.8132 92.2432 46.9453C91.874 47.0729 91.4479 47.1367 90.9648 47.1367ZM96.9463 41.1826V47H95.1416V39.6035H96.8369L96.9463 41.1826ZM96.6592 43.0352H96.126C96.1305 42.4974 96.2035 42.0098 96.3447 41.5723C96.486 41.1348 96.6842 40.7588 96.9395 40.4443C97.1992 40.1299 97.5068 39.8883 97.8623 39.7197C98.2178 39.5511 98.6143 39.4668 99.0518 39.4668C99.4072 39.4668 99.7285 39.5169 100.016 39.6172C100.303 39.7174 100.549 39.877 100.754 40.0957C100.964 40.3145 101.123 40.6016 101.232 40.957C101.346 41.3079 101.403 41.7409 101.403 42.2559V47H99.585V42.2422C99.585 41.9049 99.5348 41.6383 99.4346 41.4424C99.3389 41.2464 99.1976 41.1074 99.0107 41.0254C98.8285 40.9434 98.6029 40.9023 98.334 40.9023C98.056 40.9023 97.8122 40.9593 97.6025 41.0732C97.3975 41.1826 97.2243 41.3353 97.083 41.5312C96.9463 41.7272 96.8415 41.9528 96.7686 42.208C96.6956 42.4632 96.6592 42.7389 96.6592 43.0352Z" fill="white"/>
<path fill-rule="evenodd" clip-rule="evenodd" d="M57.3043 67.6159C57.3043 65.2078 59.2781 63.2577 61.7157 63.2577H83H83.6483L84.1068 63.7106L91.2805 70.7983L90.1739 71.8917H91.7391V92.9201C91.7391 95.3292 89.7617 97.2783 87.3278 97.2783H83.913H82.3478H73.7391V108.876C73.7391 111.144 71.8609 113 69.5652 113H36.1739C33.8783 113 32 111.144 32 108.876V84.134C32 81.8556 33.8678 80.0103 36.1739 80.0103H57.3043V67.6159ZM57.3043 84.134H36.1739V108.876H69.5652V97.2783H66.6957H65.1304H61.7157C59.2773 97.2783 57.3043 95.3247 57.3043 92.9201V84.134ZM87.3278 94.1855H83.913V86.7113C83.913 85.1459 82.6279 83.8762 81.0435 83.8762H68C66.4156 83.8762 65.1304 85.1459 65.1304 86.7113V94.1855H61.7157C61.008 94.1855 60.4348 93.6185 60.4348 92.9201V67.6159C60.4348 66.9159 61.007 66.3505 61.7157 66.3505H62.5217V73.8247C62.5217 75.3901 63.8069 76.6598 65.3913 76.6598H81.0435C82.6279 76.6598 83.913 75.3901 83.913 73.8247V67.8931L88.6087 72.5322V92.9201C88.6087 93.6192 88.0348 94.1855 87.3278 94.1855ZM80.7826 94.1855H68.2609V86.969H80.7826V94.1855ZM65.6522 73.567V66.3505H73.2174V71.2474H78.4348V66.3505H80.7826V73.567H65.6522ZM50.7826 92.3814C50.7826 89.9449 48.95 88.2577 46.6087 88.2577C44.2674 88.2577 42.4348 89.9449 42.4348 92.3814C42.4348 94.8179 44.2674 96.5051 46.6087 96.5051C48.95 96.5051 50.7826 94.8179 50.7826 92.3814ZM40.3478 102.948C40.3478 100.748 44.5834 99.6351 46.7043 99.6351C48.8253 99.6351 52.8696 100.748 52.8696 102.948V104.753H40.3478V102.948ZM57.0435 102.691H65.3913V98.567H57.0435V102.691Z" fill="white"/>
</svg>
