<svg width="125" height="125" viewBox="0 0 125 125" fill="none" xmlns="http://www.w3.org/2000/svg">
<path d="M124.5 0.5H0.5V124.5H124.5V0.5Z" fill="#207C84" fill-opacity="0.9" stroke="#2C3637"/>
<path fill-rule="evenodd" clip-rule="evenodd" d="M74 55C67.2955 55 62 60.3415 62 67.1043V67.1091V67.1139V67.1188V67.1237V67.1287V67.1337V67.1388V67.1439V67.1491V67.1544V67.1597V67.165V67.1704V67.1759V67.1814V67.1869V67.1925V67.1982V67.2039V67.2097V67.2155V67.2213V67.2273V67.2332V67.2392V67.2453V67.2514V67.2575V67.2637V67.27V67.2763V67.2826V67.289V67.2955V67.302V67.3085V67.3151V67.3217V67.3284V67.3351V67.3419V67.3487V67.3556V67.3624V67.3694V67.3764V67.3834V67.3905V67.3976V67.4047V67.4119V67.4192V67.4265V67.4338V67.4412V67.4486V67.4561V67.4636V67.4711V67.4787V67.4863V67.494V67.5017V67.5094V67.5172V67.525V67.5328V67.5408V67.5487V67.5566V67.5647V67.5727V67.5808V67.5889V67.597V67.6053V67.6135V67.6218V67.63V67.6384V67.6467V67.6551V67.6636V67.672V67.6806V67.6891V67.6977V67.7063V67.715V67.7236V67.7323V67.7411V67.7499V67.7586V67.7675V67.7763V67.7853V67.7942V67.8031V67.8121V67.8212V67.8302V67.8393V67.8484V67.8575V67.8667V67.8759V67.8851V67.8944V67.9037V67.913V67.9223V67.9317V67.9411V67.9505V67.9599V67.9694V67.9789V67.9884V67.998V68.0075V68.0171V68.0267V68.0364V68.0461V68.0557V68.0655V68.0752V68.085V68.0948V68.1046V68.1144V68.1242V68.1341V68.144V68.1539V68.1639V68.1739V68.1839V68.1938V68.2039V68.2139V68.2239V68.234V68.2441V68.2543V68.2644V68.2745V68.2847V68.2949V68.3051V68.3153V68.3256V68.3358V68.3461V68.3564V68.3667V68.377V68.3874V68.3977V68.4081V68.4185V68.4289V68.4393V68.4497V68.4601V68.4706V68.4811V68.4916V68.502V68.5125V68.5231V68.5336V68.5442V68.5547V68.5652V68.5758V68.5864V68.597V68.6076V68.6182V68.6288V68.6395V68.6501V68.6608V68.6715V68.6821V68.6928V68.7035V68.7142V68.7249V68.7356V68.7463V68.757V68.7678V68.7785V68.7892V68.8V68.8108V68.8215V68.8322V68.843V68.8538V68.8646V68.8754V68.8862V68.8969V68.9077V68.9185V68.9293V68.9401V68.9509V68.9617V68.9725V68.9833V68.9941V69.0049V69.0157V69.0265V69.0374V69.0482V69.0589V69.0697V69.0806V69.0914V69.1022V69.113V69.1217C59.7915 69.1217 58 70.9288 58 73.1565V80.7217H38C35.79 80.7217 34 82.5273 34 84.7565V108.965C34 111.184 35.8 113 38 113H70C72.2 113 74 111.184 74 108.965V97.3652H86C88.2085 97.3652 90 95.5582 90 93.3304V73.1565C90 70.9288 88.2085 69.1217 86 69.1217V69.113V69.1022V69.0914V69.0806V69.0697V69.0589V69.0482V69.0374V69.0265V69.0157V69.0049V68.9941V68.9833V68.9725V68.9617V68.9509V68.9401V68.9293V68.9185V68.9077V68.8969V68.8862V68.8754V68.8646V68.8538V68.843V68.8322V68.8215V68.8108V68.8V68.7892V68.7785V68.7678V68.757V68.7463V68.7356V68.7249V68.7142V68.7035V68.6928V68.6821V68.6715V68.6608V68.6501V68.6395V68.6288V68.6182V68.6076V68.597V68.5864V68.5758V68.5652V68.5547V68.5442V68.5336V68.5231V68.5125V68.502V68.4916V68.4811V68.4706V68.4601V68.4497V68.4393V68.4289V68.4185V68.4081V68.3977V68.3874V68.377V68.3667V68.3564V68.3461V68.3358V68.3256V68.3153V68.3051V68.2949V68.2847V68.2745V68.2644V68.2543V68.2441V68.234V68.2239V68.2139V68.2039V68.1938V68.1839V68.1739V68.1639V68.1539V68.144V68.1341V68.1242V68.1144V68.1046V68.0948V68.085V68.0752V68.0655V68.0557V68.0461V68.0364V68.0267V68.0171V68.0075V67.998V67.9884V67.9789V67.9694V67.9599V67.9505V67.9411V67.9317V67.9223V67.913V67.9037V67.8944V67.8851V67.8759V67.8667V67.8575V67.8484V67.8393V67.8302V67.8212V67.8121V67.8031V67.7942V67.7853V67.7763V67.7675V67.7586V67.7499V67.7411V67.7323V67.7236V67.715V67.7063V67.6977V67.6891V67.6806V67.672V67.6636V67.6551V67.6467V67.6384V67.63V67.6218V67.6135V67.6053V67.597V67.5889V67.5808V67.5727V67.5647V67.5566V67.5487V67.5408V67.5328V67.525V67.5172V67.5094V67.5017V67.494V67.4863V67.4787V67.4711V67.4636V67.4561V67.4486V67.4412V67.4338V67.4265V67.4192V67.4119V67.4047V67.3976V67.3905V67.3834V67.3764V67.3694V67.3624V67.3556V67.3487V67.3419V67.3351V67.3284V67.3217V67.3151V67.3085V67.302V67.2955V67.289V67.2826V67.2763V67.27V67.2637V67.2575V67.2514V67.2453V67.2392V67.2332V67.2273V67.2213V67.2155V67.2097V67.2039V67.1982V67.1925V67.1869V67.1814V67.1759V67.1704V67.165V67.1597V67.1544V67.1491V67.1439V67.1388V67.1337V67.1287V67.1237V67.1188V67.1139V67.1091V67.1043C86 60.3415 80.7045 55 74 55ZM70 97.3652H62C59.7915 97.3652 58 95.5582 58 93.3304V84.7565H38V108.965H70V97.3652ZM82 69.113V69.1217H66V69.113V69.1022V69.0914V69.0806V69.0697V69.0589V69.0482V69.0374V69.0265V69.0157V69.0049V68.9941V68.9833V68.9725V68.9617V68.9509V68.9401V68.9293V68.9185V68.9077V68.8969V68.8862V68.8754V68.8646V68.8538V68.843V68.8322V68.8215V68.8108V68.8V68.7892V68.7785V68.7678V68.757V68.7463V68.7356V68.7249V68.7142V68.7035V68.6928V68.6821V68.6715V68.6608V68.6501V68.6395V68.6288V68.6182V68.6076V68.597V68.5864V68.5758V68.5652V68.5547V68.5442V68.5336V68.5231V68.5125V68.502V68.4916V68.4811V68.4706V68.4601V68.4497V68.4393V68.4289V68.4185V68.4081V68.3977V68.3874V68.377V68.3667V68.3564V68.3461V68.3358V68.3256V68.3153V68.3051V68.2949V68.2847V68.2745V68.2644V68.2543V68.2441V68.234V68.2239V68.2139V68.2039V68.1938V68.1839V68.1739V68.1639V68.1539V68.144V68.1341V68.1242V68.1144V68.1046V68.0948V68.085V68.0752V68.0655V68.0557V68.0461V68.0364V68.0267V68.0171V68.0075V67.998V67.9884V67.9789V67.9694V67.9599V67.9505V67.9411V67.9317V67.9223V67.913V67.9037V67.8944V67.8851V67.8759V67.8667V67.8575V67.8484V67.8393V67.8302V67.8212V67.8121V67.8031V67.7942V67.7853V67.7763V67.7675V67.7586V67.7499V67.7411V67.7323V67.7236V67.715V67.7063V67.6977V67.6891V67.6806V67.672V67.6636V67.6551V67.6467V67.6384V67.63V67.6218V67.6135V67.6053V67.597V67.5889V67.5808V67.5727V67.5647V67.5566V67.5487V67.5408V67.5328V67.525V67.5172V67.5094V67.5017V67.494V67.4863V67.4787V67.4711V67.4636V67.4561V67.4486V67.4412V67.4338V67.4265V67.4192V67.4119V67.4047V67.3976V67.3905V67.3834V67.3764V67.3694V67.3624V67.3556V67.3487V67.3419V67.3351V67.3284V67.3217V67.3151V67.3085V67.302V67.2955V67.289V67.2826V67.2763V67.27V67.2637V67.2575V67.2514V67.2453V67.2392V67.2332V67.2273V67.2213V67.2155V67.2097V67.2039V67.1982V67.1925V67.1869V67.1814V67.1759V67.1704V67.165V67.1597V67.1544V67.1491V67.1439V67.1388V67.1337V67.1287V67.1237V67.1188V67.1139V67.1091V67.1043C66 62.5698 69.5045 59.0348 74 59.0348C78.4955 59.0348 82 62.5698 82 67.1043V67.1091V67.1139V67.1188V67.1237V67.1287V67.1337V67.1388V67.1439V67.1491V67.1544V67.1597V67.165V67.1704V67.1759V67.1814V67.1869V67.1925V67.1982V67.2039V67.2097V67.2155V67.2213V67.2273V67.2332V67.2392V67.2453V67.2514V67.2575V67.2637V67.27V67.2763V67.2826V67.289V67.2955V67.302V67.3085V67.3151V67.3217V67.3284V67.3351V67.3419V67.3487V67.3556V67.3624V67.3694V67.3764V67.3834V67.3905V67.3976V67.4047V67.4119V67.4192V67.4265V67.4338V67.4412V67.4486V67.4561V67.4636V67.4711V67.4787V67.4863V67.494V67.5017V67.5094V67.5172V67.525V67.5328V67.5408V67.5487V67.5566V67.5647V67.5727V67.5808V67.5889V67.597V67.6053V67.6135V67.6218V67.63V67.6384V67.6467V67.6551V67.6636V67.672V67.6806V67.6891V67.6977V67.7063V67.715V67.7236V67.7323V67.7411V67.7499V67.7586V67.7675V67.7763V67.7853V67.7942V67.8031V67.8121V67.8212V67.8302V67.8393V67.8484V67.8575V67.8667V67.8759V67.8851V67.8944V67.9037V67.913V67.9223V67.9317V67.9411V67.9505V67.9599V67.9694V67.9789V67.9884V67.998V68.0075V68.0171V68.0267V68.0364V68.0461V68.0557V68.0655V68.0752V68.085V68.0948V68.1046V68.1144V68.1242V68.1341V68.144V68.1539V68.1639V68.1739V68.1839V68.1938V68.2039V68.2139V68.2239V68.234V68.2441V68.2543V68.2644V68.2745V68.2847V68.2949V68.3051V68.3153V68.3256V68.3358V68.3461V68.3564V68.3667V68.377V68.3874V68.3977V68.4081V68.4185V68.4289V68.4393V68.4497V68.4601V68.4706V68.4811V68.4916V68.502V68.5125V68.5231V68.5336V68.5442V68.5547V68.5652V68.5758V68.5864V68.597V68.6076V68.6182V68.6288V68.6395V68.6501V68.6608V68.6715V68.6821V68.6928V68.7035V68.7142V68.7249V68.7356V68.7463V68.757V68.7678V68.7785V68.7892V68.8V68.8108V68.8215V68.8322V68.843V68.8538V68.8646V68.8754V68.8862V68.8969V68.9077V68.9185V68.9293V68.9401V68.9509V68.9617V68.9725V68.9833V68.9941V69.0049V69.0157V69.0265V69.0374V69.0482V69.0589V69.0697V69.0806V69.0914V69.1022V69.113ZM62 73.1565H64H84H86V93.3304H62V73.1565ZM78 83.2435C78 85.4626 76.2 87.2783 74 87.2783C71.8 87.2783 70 85.4626 70 83.2435C70 81.0243 71.8 79.2087 74 79.2087C76.2 79.2087 78 81.0243 78 83.2435ZM48 88.7913C50.2438 88.7913 52 90.4421 52 92.8261C52 95.2101 50.2438 96.8609 48 96.8609C45.7562 96.8609 44 95.2101 44 92.8261C44 90.4421 45.7562 88.7913 48 88.7913ZM42 103.165C42 101.012 46.0591 99.9234 48.0917 99.9234C50.1242 99.9234 54 101.012 54 103.165V104.93H42V103.165ZM58 98.8783V102.913H66V98.8783H58Z" fill="white"/>
<path d="M51.4434 35.9219V45.6953C51.0801 46.1758 50.5117 46.7031 49.7383 47.2773C48.9766 47.8398 47.9629 48.3262 46.6973 48.7363C45.4316 49.1465 43.8555 49.3516 41.9688 49.3516C40.3633 49.3516 38.8926 49.082 37.5566 48.543C36.2207 47.9922 35.0664 47.1895 34.0938 46.1348C33.1328 45.0801 32.3887 43.7969 31.8613 42.2852C31.334 40.7617 31.0703 39.0273 31.0703 37.082V35.3066C31.0703 33.373 31.3105 31.6504 31.791 30.1387C32.2832 28.6152 32.9863 27.3262 33.9004 26.2715C34.8145 25.2168 35.916 24.4199 37.2051 23.8809C38.5059 23.3301 39.9766 23.0547 41.6172 23.0547C43.7148 23.0547 45.4492 23.4062 46.8203 24.1094C48.2031 24.8008 49.2695 25.7617 50.0195 26.9922C50.7695 28.2227 51.2441 29.6289 51.4434 31.2109H47.1191C46.9785 30.3203 46.7031 29.5234 46.293 28.8203C45.8945 28.1172 45.3203 27.5664 44.5703 27.168C43.832 26.7578 42.8711 26.5527 41.6875 26.5527C40.668 26.5527 39.7715 26.7461 38.998 27.1328C38.2246 27.5195 37.5801 28.0879 37.0645 28.8379C36.5605 29.5879 36.1797 30.502 35.9219 31.5801C35.6641 32.6582 35.5352 33.8887 35.5352 35.2715V37.082C35.5352 38.4883 35.6816 39.7363 35.9746 40.8262C36.2793 41.916 36.7129 42.8359 37.2754 43.5859C37.8496 44.3359 38.5469 44.9043 39.3672 45.291C40.1875 45.666 41.1133 45.8535 42.1445 45.8535C43.1523 45.8535 43.9785 45.7715 44.623 45.6074C45.2676 45.4316 45.7773 45.2266 46.1523 44.9922C46.5391 44.7461 46.8379 44.5117 47.0488 44.2891V39.209H41.7227V35.9219H51.4434ZM73.082 45.502V49H59.4941V45.502H73.082ZM60.7422 23.4062V49H56.3301V23.4062H60.7422ZM71.3066 34.0938V37.5391H59.4941V34.0938H71.3066ZM72.9941 23.4062V26.9219H59.4941V23.4062H72.9941ZM94.5801 45.502V49H76.8086V45.502H94.5801ZM94.1758 26.1309L78.4434 49H75.4902V46.2051L91.2754 23.4062H94.1758V26.1309ZM92.541 23.4062V26.9219H75.5957V23.4062H92.541Z" fill="white"/>
</svg>
