<svg width="125" height="125" viewBox="0 0 125 125" fill="none" xmlns="http://www.w3.org/2000/svg">
<path d="M105 0H20C8.9543 0 0 8.9543 0 20V105C0 116.046 8.9543 125 20 125H105C116.046 125 125 116.046 125 105V20C125 8.9543 116.046 0 105 0Z" fill="#23517B" fill-opacity="0.9"/>
<path d="M26.2207 30.6621H22.5879L22.5684 28.7676H25.6836C26.2174 28.7676 26.6634 28.6927 27.0215 28.543C27.3796 28.3932 27.6497 28.1751 27.832 27.8887C28.0208 27.6022 28.1152 27.2539 28.1152 26.8438C28.1152 26.388 28.0273 26.0169 27.8516 25.7305C27.6823 25.444 27.4154 25.2357 27.0508 25.1055C26.6862 24.9688 26.224 24.9004 25.6641 24.9004H23.457V37H20.7715V22.7812H25.6641C26.4714 22.7812 27.1908 22.8594 27.8223 23.0156C28.4603 23.1654 29.0007 23.3997 29.4434 23.7188C29.8861 24.0378 30.2214 24.4382 30.4492 24.9199C30.6836 25.4017 30.8008 25.9746 30.8008 26.6387C30.8008 27.2246 30.6641 27.765 30.3906 28.2598C30.1237 28.748 29.7103 29.1452 29.1504 29.4512C28.597 29.7572 27.8939 29.9329 27.041 29.9785L26.2207 30.6621ZM26.1035 37H21.7969L22.9199 34.8906H26.1035C26.6374 34.8906 27.0768 34.8027 27.4219 34.627C27.7734 34.4512 28.0339 34.2103 28.2031 33.9043C28.3789 33.5918 28.4668 33.2337 28.4668 32.8301C28.4668 32.3874 28.3887 32.0033 28.2324 31.6777C28.0827 31.3522 27.8418 31.1016 27.5098 30.9258C27.1842 30.75 26.7546 30.6621 26.2207 30.6621H23.4277L23.4473 28.7676H27.002L27.6172 29.5C28.4375 29.5065 29.1048 29.6693 29.6191 29.9883C30.14 30.3073 30.5241 30.7174 30.7715 31.2188C31.0189 31.7201 31.1426 32.2604 31.1426 32.8398C31.1426 33.7513 30.944 34.5163 30.5469 35.1348C30.1562 35.7533 29.5833 36.2188 28.8281 36.5312C28.0794 36.8438 27.1712 37 26.1035 37ZM38.0176 37.1953C37.2168 37.1953 36.4974 37.0651 35.8594 36.8047C35.2214 36.5443 34.6777 36.1829 34.2285 35.7207C33.7858 35.252 33.444 34.7083 33.2031 34.0898C32.9688 33.4648 32.8516 32.7943 32.8516 32.0781V31.6875C32.8516 30.8737 32.9688 30.1348 33.2031 29.4707C33.4375 28.8001 33.7695 28.224 34.1992 27.7422C34.6289 27.2604 35.1432 26.8893 35.7422 26.6289C36.3411 26.3685 37.002 26.2383 37.7246 26.2383C38.4733 26.2383 39.1341 26.3652 39.707 26.6191C40.2799 26.8665 40.7585 27.2181 41.1426 27.6738C41.5267 28.1296 41.8164 28.6764 42.0117 29.3145C42.207 29.946 42.3047 30.6458 42.3047 31.4141V32.498H34.0234V30.7207H39.7656V30.5254C39.7526 30.1152 39.6745 29.7409 39.5312 29.4023C39.388 29.0573 39.1667 28.7839 38.8672 28.582C38.5677 28.3737 38.1803 28.2695 37.7051 28.2695C37.321 28.2695 36.9857 28.3542 36.6992 28.5234C36.4193 28.6862 36.1849 28.9206 35.9961 29.2266C35.8138 29.526 35.6771 29.8841 35.5859 30.3008C35.4948 30.7174 35.4492 31.1797 35.4492 31.6875V32.0781C35.4492 32.5208 35.5078 32.931 35.625 33.3086C35.7487 33.6862 35.9277 34.015 36.1621 34.2949C36.403 34.5684 36.6895 34.7832 37.0215 34.9395C37.36 35.0892 37.7441 35.1641 38.1738 35.1641C38.7142 35.1641 39.2025 35.0599 39.6387 34.8516C40.0814 34.6367 40.4655 34.321 40.791 33.9043L42.0898 35.252C41.8685 35.5775 41.569 35.89 41.1914 36.1895C40.8203 36.4889 40.3711 36.7331 39.8438 36.9219C39.3164 37.1042 38.7077 37.1953 38.0176 37.1953ZM46.5625 22V37H43.9746V22H46.5625ZM46.1523 31.3359H45.3906C45.3906 30.6003 45.4883 29.9232 45.6836 29.3047C45.8789 28.6862 46.1556 28.1491 46.5137 27.6934C46.8717 27.2311 47.2982 26.873 47.793 26.6191C48.2943 26.3652 48.8477 26.2383 49.4531 26.2383C49.974 26.2383 50.446 26.3132 50.8691 26.4629C51.2988 26.6061 51.6667 26.8372 51.9727 27.1562C52.2786 27.4753 52.513 27.8919 52.6758 28.4062C52.8451 28.9141 52.9297 29.5326 52.9297 30.2617V37H50.332V30.2422C50.332 29.7539 50.2604 29.3698 50.1172 29.0898C49.974 28.8034 49.7689 28.5983 49.502 28.4746C49.2415 28.3509 48.9193 28.2891 48.5352 28.2891C48.1185 28.2891 47.7604 28.3704 47.4609 28.5332C47.1615 28.6895 46.9141 28.9076 46.7188 29.1875C46.5299 29.4674 46.3867 29.7897 46.2891 30.1543C46.1979 30.5189 46.1523 30.9128 46.1523 31.3359ZM54.7461 31.8242V31.6191C54.7461 30.8444 54.8568 30.1315 55.0781 29.4805C55.2995 28.8229 55.6217 28.2533 56.0449 27.7715C56.4681 27.2897 56.9857 26.9154 57.5977 26.6484C58.2096 26.375 58.9062 26.2383 59.6875 26.2383C60.4818 26.2383 61.1849 26.375 61.7969 26.6484C62.4154 26.9154 62.9362 27.2897 63.3594 27.7715C63.7826 28.2533 64.1048 28.8229 64.3262 29.4805C64.5475 30.1315 64.6582 30.8444 64.6582 31.6191V31.8242C64.6582 32.5924 64.5475 33.3053 64.3262 33.9629C64.1048 34.6139 63.7826 35.1836 63.3594 35.6719C62.9362 36.1536 62.4186 36.528 61.8066 36.7949C61.1947 37.0618 60.4948 37.1953 59.707 37.1953C58.9258 37.1953 58.2259 37.0618 57.6074 36.7949C56.9889 36.528 56.4681 36.1536 56.0449 35.6719C55.6217 35.1836 55.2995 34.6139 55.0781 33.9629C54.8568 33.3053 54.7461 32.5924 54.7461 31.8242ZM57.3242 31.6191V31.8242C57.3242 32.2865 57.3698 32.7194 57.4609 33.123C57.5521 33.5267 57.6921 33.8815 57.8809 34.1875C58.0697 34.4935 58.3138 34.7344 58.6133 34.9102C58.9193 35.0794 59.2839 35.1641 59.707 35.1641C60.1237 35.1641 60.4818 35.0794 60.7812 34.9102C61.0807 34.7344 61.3249 34.4935 61.5137 34.1875C61.709 33.8815 61.8522 33.5267 61.9434 33.123C62.0345 32.7194 62.0801 32.2865 62.0801 31.8242V31.6191C62.0801 31.1634 62.0345 30.737 61.9434 30.3398C61.8522 29.9362 61.709 29.5814 61.5137 29.2754C61.3249 28.9629 61.0775 28.7188 60.7715 28.543C60.472 28.3607 60.1107 28.2695 59.6875 28.2695C59.2708 28.2695 58.9128 28.3607 58.6133 28.543C58.3138 28.7188 58.0697 28.9629 57.8809 29.2754C57.6921 29.5814 57.5521 29.9362 57.4609 30.3398C57.3698 30.737 57.3242 31.1634 57.3242 31.6191ZM56.0547 23.6406C56.0547 23.3086 56.1751 23.0319 56.416 22.8105C56.6569 22.5827 56.9629 22.4688 57.334 22.4688C57.7116 22.4688 58.0176 22.5827 58.252 22.8105C58.4928 23.0319 58.6133 23.3086 58.6133 23.6406C58.6133 23.9661 58.4928 24.2428 58.252 24.4707C58.0176 24.6921 57.7116 24.8027 57.334 24.8027C56.9629 24.8027 56.6569 24.6921 56.416 24.4707C56.1751 24.2428 56.0547 23.9661 56.0547 23.6406ZM60.7129 23.6504C60.7129 23.3184 60.8301 23.0417 61.0645 22.8203C61.3053 22.5924 61.6146 22.4785 61.9922 22.4785C62.3633 22.4785 62.6693 22.5924 62.9102 22.8203C63.151 23.0417 63.2715 23.3184 63.2715 23.6504C63.2715 23.9759 63.151 24.2526 62.9102 24.4805C62.6693 24.7018 62.3633 24.8125 61.9922 24.8125C61.6146 24.8125 61.3053 24.7018 61.0645 24.4805C60.8301 24.2526 60.7129 23.9759 60.7129 23.6504ZM69.1113 28.5918V37H66.5332V26.4336H68.9746L69.1113 28.5918ZM72.3242 26.3652L72.2852 28.7676C72.1419 28.7415 71.9792 28.722 71.7969 28.709C71.6211 28.696 71.4551 28.6895 71.2988 28.6895C70.9017 28.6895 70.5534 28.7448 70.2539 28.8555C69.9544 28.9596 69.7038 29.1126 69.502 29.3145C69.3066 29.5163 69.1569 29.7637 69.0527 30.0566C68.9486 30.3431 68.89 30.6686 68.877 31.0332L68.3203 30.9648C68.3203 30.2943 68.3887 29.6725 68.5254 29.0996C68.6621 28.5267 68.8607 28.0254 69.1211 27.5957C69.3815 27.166 69.707 26.834 70.0977 26.5996C70.4948 26.3587 70.9505 26.2383 71.4648 26.2383C71.6081 26.2383 71.7611 26.2513 71.9238 26.2773C72.0931 26.2969 72.2266 26.3262 72.3242 26.3652ZM79.8828 34.7539V22H82.4805V37H80.1367L79.8828 34.7539ZM73.0957 31.8438V31.6387C73.0957 30.8314 73.1868 30.099 73.3691 29.4414C73.5579 28.7773 73.8314 28.2077 74.1895 27.7324C74.5475 27.2572 74.9805 26.8893 75.4883 26.6289C76.0026 26.3685 76.5853 26.2383 77.2363 26.2383C77.8678 26.2383 78.418 26.3652 78.8867 26.6191C79.362 26.873 79.7656 27.2344 80.0977 27.7031C80.4362 28.1719 80.7064 28.7285 80.9082 29.373C81.11 30.0111 81.2565 30.7142 81.3477 31.4824V32.0391C81.2565 32.7878 81.11 33.4746 80.9082 34.0996C80.7064 34.7246 80.4362 35.2715 80.0977 35.7402C79.7656 36.2025 79.362 36.5605 78.8867 36.8145C78.4115 37.0684 77.8548 37.1953 77.2168 37.1953C76.5723 37.1953 75.9928 37.0618 75.4785 36.7949C74.9707 36.528 74.5378 36.1536 74.1797 35.6719C73.8281 35.1901 73.5579 34.6237 73.3691 33.9727C73.1868 33.3216 73.0957 32.612 73.0957 31.8438ZM75.6836 31.6387V31.8438C75.6836 32.2995 75.7227 32.7259 75.8008 33.123C75.8789 33.5202 76.0059 33.8717 76.1816 34.1777C76.3574 34.4772 76.582 34.7116 76.8555 34.8809C77.1354 35.0501 77.474 35.1348 77.8711 35.1348C78.3789 35.1348 78.7956 35.0241 79.1211 34.8027C79.4531 34.5749 79.7103 34.2656 79.8926 33.875C80.0749 33.4779 80.1921 33.0319 80.2441 32.5371V31.0039C80.2181 30.6133 80.1497 30.252 80.0391 29.9199C79.9349 29.5879 79.7852 29.3014 79.5898 29.0605C79.401 28.8197 79.1667 28.6309 78.8867 28.4941C78.6068 28.3574 78.2747 28.2891 77.8906 28.2891C77.4935 28.2891 77.1549 28.377 76.875 28.5527C76.5951 28.722 76.3672 28.9596 76.1914 29.2656C76.0156 29.5716 75.8854 29.9264 75.8008 30.3301C75.7227 30.7337 75.6836 31.1699 75.6836 31.6387ZM89.5605 37.1953C88.7598 37.1953 88.0404 37.0651 87.4023 36.8047C86.7643 36.5443 86.2207 36.1829 85.7715 35.7207C85.3288 35.252 84.987 34.7083 84.7461 34.0898C84.5117 33.4648 84.3945 32.7943 84.3945 32.0781V31.6875C84.3945 30.8737 84.5117 30.1348 84.7461 29.4707C84.9805 28.8001 85.3125 28.224 85.7422 27.7422C86.1719 27.2604 86.6862 26.8893 87.2852 26.6289C87.8841 26.3685 88.5449 26.2383 89.2676 26.2383C90.0163 26.2383 90.6771 26.3652 91.25 26.6191C91.8229 26.8665 92.3014 27.2181 92.6855 27.6738C93.0697 28.1296 93.3594 28.6764 93.5547 29.3145C93.75 29.946 93.8477 30.6458 93.8477 31.4141V32.498H85.5664V30.7207H91.3086V30.5254C91.2956 30.1152 91.2174 29.7409 91.0742 29.4023C90.931 29.0573 90.7096 28.7839 90.4102 28.582C90.1107 28.3737 89.7233 28.2695 89.248 28.2695C88.8639 28.2695 88.5286 28.3542 88.2422 28.5234C87.9622 28.6862 87.7279 28.9206 87.5391 29.2266C87.3568 29.526 87.2201 29.8841 87.1289 30.3008C87.0378 30.7174 86.9922 31.1797 86.9922 31.6875V32.0781C86.9922 32.5208 87.0508 32.931 87.168 33.3086C87.2917 33.6862 87.4707 34.015 87.7051 34.2949C87.946 34.5684 88.2324 34.7832 88.5645 34.9395C88.903 35.0892 89.2871 35.1641 89.7168 35.1641C90.2572 35.1641 90.7454 35.0599 91.1816 34.8516C91.6243 34.6367 92.0085 34.321 92.334 33.9043L93.6328 35.252C93.4115 35.5775 93.112 35.89 92.7344 36.1895C92.3633 36.4889 91.9141 36.7331 91.3867 36.9219C90.8594 37.1042 90.2507 37.1953 89.5605 37.1953ZM98.1055 28.6895V37H95.5273V26.4336H97.9492L98.1055 28.6895ZM97.6953 31.3359H96.9336C96.9401 30.5677 97.0443 29.8711 97.2461 29.2461C97.4479 28.6211 97.7311 28.084 98.0957 27.6348C98.4668 27.1855 98.9062 26.8405 99.4141 26.5996C99.9219 26.3587 100.488 26.2383 101.113 26.2383C101.621 26.2383 102.08 26.3099 102.49 26.4531C102.9 26.5964 103.252 26.8242 103.545 27.1367C103.844 27.4492 104.072 27.8594 104.229 28.3672C104.391 28.8685 104.473 29.487 104.473 30.2227V37H101.875V30.2031C101.875 29.7214 101.803 29.3405 101.66 29.0605C101.523 28.7806 101.322 28.582 101.055 28.4648C100.794 28.3477 100.472 28.2891 100.088 28.2891C99.6908 28.2891 99.3424 28.3704 99.043 28.5332C98.75 28.6895 98.5026 28.9076 98.3008 29.1875C98.1055 29.4674 97.9557 29.7897 97.8516 30.1543C97.7474 30.5189 97.6953 30.9128 97.6953 31.3359Z" fill="white"/>
<path fill-rule="evenodd" clip-rule="evenodd" d="M73.5714 56C67.1063 56 62 61.2494 62 67.8957V67.9003V67.9051V67.9098V67.9147V67.9195V67.9245V67.9295V67.9346V67.9397V67.9448V67.95V67.9553V67.9606V67.9659V67.9713V67.9768V67.9823V67.9879V67.9935V67.9991V68.0048V68.0106V68.0164V68.0223V68.0282V68.0341V68.0401V68.0462V68.0523V68.0584V68.0646V68.0709V68.0772V68.0835V68.0898V68.0963V68.1028V68.1093V68.1158V68.1225V68.1291V68.1358V68.1425V68.1493V68.1561V68.163V68.1699V68.1768V68.1838V68.1909V68.198V68.2051V68.2123V68.2195V68.2267V68.234V68.2413V68.2487V68.2561V68.2635V68.271V68.2785V68.2861V68.2937V68.3013V68.309V68.3168V68.3245V68.3323V68.3402V68.348V68.3559V68.3638V68.3718V68.3799V68.3879V68.396V68.4041V68.4123V68.4204V68.4287V68.437V68.4452V68.4536V68.4619V68.4703V68.4788V68.4872V68.4957V68.5043V68.5128V68.5214V68.53V68.5387V68.5473V68.5561V68.5648V68.5736V68.5824V68.5913V68.6001V68.609V68.6179V68.6269V68.6359V68.6449V68.6539V68.663V68.6721V68.6812V68.6903V68.6995V68.7087V68.7179V68.7272V68.7365V68.7458V68.7551V68.7645V68.7738V68.7833V68.7927V68.8021V68.8116V68.8211V68.8307V68.8402V68.8498V68.8594V68.869V68.8786V68.8883V68.898V68.9077V68.9174V68.9272V68.9369V68.9467V68.9565V68.9664V68.9762V68.9861V68.996V69.0059V69.0158V69.0257V69.0357V69.0457V69.0557V69.0657V69.0757V69.0858V69.0958V69.1059V69.116V69.1261V69.1363V69.1464V69.1565V69.1668V69.1769V69.1871V69.1973V69.2076V69.2178V69.2281V69.2384V69.2486V69.2589V69.2693V69.2796V69.2899V69.3003V69.3106V69.321V69.3314V69.3418V69.3522V69.3626V69.373V69.3835V69.3939V69.4043V69.4148V69.4253V69.4357V69.4463V69.4567V69.4672V69.4777V69.4882V69.4988V69.5093V69.5199V69.5304V69.5409V69.5515V69.562V69.5726V69.5832V69.5938V69.6044V69.6149V69.6255V69.6361V69.6467V69.6573V69.6679V69.6785V69.6891V69.6997V69.7104V69.721V69.7316V69.7422V69.7528V69.7635V69.7741V69.7847V69.7953V69.8059V69.8166V69.8272V69.8378V69.8484V69.859V69.8696V69.8783C59.8703 69.8783 58.1429 71.6541 58.1429 73.8435V81.2783H38.8571C36.7261 81.2783 35 83.0527 35 85.2435V109.035C35 111.216 36.7357 113 38.8571 113H69.7143C71.8357 113 73.5714 111.216 73.5714 109.035V97.6348H85.1429C87.2725 97.6348 89 95.8589 89 93.6696V73.8435C89 71.6541 87.2725 69.8783 85.1429 69.8783V69.8696V69.859V69.8484V69.8378V69.8272V69.8166V69.8059V69.7953V69.7847V69.7741V69.7635V69.7528V69.7422V69.7316V69.721V69.7104V69.6997V69.6891V69.6785V69.6679V69.6573V69.6467V69.6361V69.6255V69.6149V69.6044V69.5938V69.5832V69.5726V69.562V69.5515V69.5409V69.5304V69.5199V69.5093V69.4988V69.4882V69.4777V69.4672V69.4567V69.4463V69.4357V69.4253V69.4148V69.4043V69.3939V69.3835V69.373V69.3626V69.3522V69.3418V69.3314V69.321V69.3106V69.3003V69.2899V69.2796V69.2693V69.2589V69.2486V69.2384V69.2281V69.2178V69.2076V69.1973V69.1871V69.1769V69.1668V69.1565V69.1464V69.1363V69.1261V69.116V69.1059V69.0958V69.0858V69.0757V69.0657V69.0557V69.0457V69.0357V69.0257V69.0158V69.0059V68.996V68.9861V68.9762V68.9664V68.9565V68.9467V68.9369V68.9272V68.9174V68.9077V68.898V68.8883V68.8786V68.869V68.8594V68.8498V68.8402V68.8307V68.8211V68.8116V68.8021V68.7927V68.7833V68.7738V68.7645V68.7551V68.7458V68.7365V68.7272V68.7179V68.7087V68.6995V68.6903V68.6812V68.6721V68.663V68.6539V68.6449V68.6359V68.6269V68.6179V68.609V68.6001V68.5913V68.5824V68.5736V68.5648V68.5561V68.5473V68.5387V68.53V68.5214V68.5128V68.5043V68.4957V68.4872V68.4788V68.4703V68.4619V68.4536V68.4452V68.437V68.4287V68.4204V68.4123V68.4041V68.396V68.3879V68.3799V68.3718V68.3638V68.3559V68.348V68.3402V68.3323V68.3245V68.3168V68.309V68.3013V68.2937V68.2861V68.2785V68.271V68.2635V68.2561V68.2487V68.2413V68.234V68.2267V68.2195V68.2123V68.2051V68.198V68.1909V68.1838V68.1768V68.1699V68.163V68.1561V68.1493V68.1425V68.1358V68.1291V68.1225V68.1158V68.1093V68.1028V68.0963V68.0898V68.0835V68.0772V68.0709V68.0646V68.0584V68.0523V68.0462V68.0401V68.0341V68.0282V68.0223V68.0164V68.0106V68.0048V67.9991V67.9935V67.9879V67.9823V67.9768V67.9713V67.9659V67.9606V67.9553V67.95V67.9448V67.9397V67.9346V67.9295V67.9245V67.9195V67.9147V67.9098V67.9051V67.9003V67.8957C85.1429 61.2494 80.0365 56 73.5714 56ZM69.7143 97.6348H62C59.8703 97.6348 58.1429 95.8589 58.1429 93.6696V85.2435H38.8571V109.035H69.7143V97.6348ZM81.2857 69.8696V69.8783H65.8571V69.8696V69.859V69.8484V69.8378V69.8272V69.8166V69.8059V69.7953V69.7847V69.7741V69.7635V69.7528V69.7422V69.7316V69.721V69.7104V69.6997V69.6891V69.6785V69.6679V69.6573V69.6467V69.6361V69.6255V69.6149V69.6044V69.5938V69.5832V69.5726V69.562V69.5515V69.5409V69.5304V69.5199V69.5093V69.4988V69.4882V69.4777V69.4672V69.4567V69.4463V69.4357V69.4253V69.4148V69.4043V69.3939V69.3835V69.373V69.3626V69.3522V69.3418V69.3314V69.321V69.3106V69.3003V69.2899V69.2796V69.2693V69.2589V69.2486V69.2384V69.2281V69.2178V69.2076V69.1973V69.1871V69.1769V69.1668V69.1565V69.1464V69.1363V69.1261V69.116V69.1059V69.0958V69.0858V69.0757V69.0657V69.0557V69.0457V69.0357V69.0257V69.0158V69.0059V68.996V68.9861V68.9762V68.9664V68.9565V68.9467V68.9369V68.9272V68.9174V68.9077V68.898V68.8883V68.8786V68.869V68.8594V68.8498V68.8402V68.8307V68.8211V68.8116V68.8021V68.7927V68.7833V68.7738V68.7645V68.7551V68.7458V68.7365V68.7272V68.7179V68.7087V68.6995V68.6903V68.6812V68.6721V68.663V68.6539V68.6449V68.6359V68.6269V68.6179V68.609V68.6001V68.5913V68.5824V68.5736V68.5648V68.5561V68.5473V68.5387V68.53V68.5214V68.5128V68.5043V68.4957V68.4872V68.4788V68.4703V68.4619V68.4536V68.4452V68.437V68.4287V68.4204V68.4123V68.4041V68.396V68.3879V68.3799V68.3718V68.3638V68.3559V68.348V68.3402V68.3323V68.3245V68.3168V68.309V68.3013V68.2937V68.2861V68.2785V68.271V68.2635V68.2561V68.2487V68.2413V68.234V68.2267V68.2195V68.2123V68.2051V68.198V68.1909V68.1838V68.1768V68.1699V68.163V68.1561V68.1493V68.1425V68.1358V68.1291V68.1225V68.1158V68.1093V68.1028V68.0963V68.0898V68.0835V68.0772V68.0709V68.0646V68.0584V68.0523V68.0462V68.0401V68.0341V68.0282V68.0223V68.0164V68.0106V68.0048V67.9991V67.9935V67.9879V67.9823V67.9768V67.9713V67.9659V67.9606V67.9553V67.95V67.9448V67.9397V67.9346V67.9295V67.9245V67.9195V67.9147V67.9098V67.9051V67.9003V67.8957C65.8571 63.4393 69.2365 59.9652 73.5714 59.9652C77.9063 59.9652 81.2857 63.4393 81.2857 67.8957V67.9003V67.9051V67.9098V67.9147V67.9195V67.9245V67.9295V67.9346V67.9397V67.9448V67.95V67.9553V67.9606V67.9659V67.9713V67.9768V67.9823V67.9879V67.9935V67.9991V68.0048V68.0106V68.0164V68.0223V68.0282V68.0341V68.0401V68.0462V68.0523V68.0584V68.0646V68.0709V68.0772V68.0835V68.0898V68.0963V68.1028V68.1093V68.1158V68.1225V68.1291V68.1358V68.1425V68.1493V68.1561V68.163V68.1699V68.1768V68.1838V68.1909V68.198V68.2051V68.2123V68.2195V68.2267V68.234V68.2413V68.2487V68.2561V68.2635V68.271V68.2785V68.2861V68.2937V68.3013V68.309V68.3168V68.3245V68.3323V68.3402V68.348V68.3559V68.3638V68.3718V68.3799V68.3879V68.396V68.4041V68.4123V68.4204V68.4287V68.437V68.4452V68.4536V68.4619V68.4703V68.4788V68.4872V68.4957V68.5043V68.5128V68.5214V68.53V68.5387V68.5473V68.5561V68.5648V68.5736V68.5824V68.5913V68.6001V68.609V68.6179V68.6269V68.6359V68.6449V68.6539V68.663V68.6721V68.6812V68.6903V68.6995V68.7087V68.7179V68.7272V68.7365V68.7458V68.7551V68.7645V68.7738V68.7833V68.7927V68.8021V68.8116V68.8211V68.8307V68.8402V68.8498V68.8594V68.869V68.8786V68.8883V68.898V68.9077V68.9174V68.9272V68.9369V68.9467V68.9565V68.9664V68.9762V68.9861V68.996V69.0059V69.0158V69.0257V69.0357V69.0457V69.0557V69.0657V69.0757V69.0858V69.0958V69.1059V69.116V69.1261V69.1363V69.1464V69.1565V69.1668V69.1769V69.1871V69.1973V69.2076V69.2178V69.2281V69.2384V69.2486V69.2589V69.2693V69.2796V69.2899V69.3003V69.3106V69.321V69.3314V69.3418V69.3522V69.3626V69.373V69.3835V69.3939V69.4043V69.4148V69.4253V69.4357V69.4463V69.4567V69.4672V69.4777V69.4882V69.4988V69.5093V69.5199V69.5304V69.5409V69.5515V69.562V69.5726V69.5832V69.5938V69.6044V69.6149V69.6255V69.6361V69.6467V69.6573V69.6679V69.6785V69.6891V69.6997V69.7104V69.721V69.7316V69.7422V69.7528V69.7635V69.7741V69.7847V69.7953V69.8059V69.8166V69.8272V69.8378V69.8484V69.859V69.8696ZM62 73.8435H63.9286H83.2143H85.1429V93.6696H62V73.8435ZM77.4286 83.7565C77.4286 85.9374 75.6929 87.7217 73.5714 87.7217C71.45 87.7217 69.7143 85.9374 69.7143 83.7565C69.7143 81.5757 71.45 79.7913 73.5714 79.7913C75.6929 79.7913 77.4286 81.5757 77.4286 83.7565ZM48.5 89.2087C50.6636 89.2087 52.3571 90.831 52.3571 93.1739C52.3571 95.5168 50.6636 97.1391 48.5 97.1391C46.3364 97.1391 44.6429 95.5168 44.6429 93.1739C44.6429 90.831 46.3364 89.2087 48.5 89.2087ZM42.7143 103.335C42.7143 101.219 46.6284 100.149 48.5884 100.149C50.5484 100.149 54.2857 101.219 54.2857 103.335V105.07H42.7143V103.335ZM58.1429 99.1217V103.087H65.8571V99.1217H58.1429Z" fill="white"/>
</svg>
