<svg width="125" height="125" viewBox="0 0 125 125" fill="none" xmlns="http://www.w3.org/2000/svg">
<path d="M105 0H20C8.9543 0 0 8.9543 0 20V105C0 116.046 8.9543 125 20 125H105C116.046 125 125 116.046 125 105V20C125 8.9543 116.046 0 105 0Z" fill="#207C84" fill-opacity="0.9"/>
<path d="M54.0098 29.7051V37.457C53.7181 37.8307 53.2578 38.2363 52.6289 38.6738C52.0091 39.1113 51.1979 39.4896 50.1953 39.8086C49.1927 40.1185 47.9622 40.2734 46.5039 40.2734C45.237 40.2734 44.0794 40.0638 43.0312 39.6445C41.9831 39.2161 41.0807 38.5918 40.3242 37.7715C39.5677 36.9512 38.9844 35.9486 38.5742 34.7637C38.1641 33.5788 37.959 32.2253 37.959 30.7031V29.3906C37.959 27.8685 38.1504 26.515 38.5332 25.3301C38.9251 24.1452 39.4811 23.1426 40.2012 22.3223C40.9303 21.502 41.8008 20.8776 42.8125 20.4492C43.8333 20.0208 44.9727 19.8066 46.2305 19.8066C47.9167 19.8066 49.3021 20.0846 50.3867 20.6406C51.4805 21.1966 52.319 21.9622 52.9023 22.9375C53.4857 23.9036 53.8503 25.0156 53.9961 26.2734H50.332C50.2318 25.5807 50.0312 24.9746 49.7305 24.4551C49.4297 23.9264 49.0013 23.5163 48.4453 23.2246C47.8984 22.9238 47.1875 22.7734 46.3125 22.7734C45.5742 22.7734 44.9225 22.9193 44.3574 23.2109C43.7923 23.5026 43.3184 23.9264 42.9355 24.4824C42.5527 25.0384 42.2611 25.7266 42.0605 26.5469C41.8691 27.3672 41.7734 28.306 41.7734 29.3633V30.7031C41.7734 31.7695 41.8828 32.7174 42.1016 33.5469C42.3203 34.3672 42.6348 35.0599 43.0449 35.625C43.4642 36.181 43.9792 36.6048 44.5898 36.8965C45.2096 37.179 45.9115 37.3203 46.6953 37.3203C47.4062 37.3203 47.9941 37.2611 48.459 37.1426C48.9329 37.015 49.3112 36.8646 49.5938 36.6914C49.8763 36.5182 50.0951 36.3496 50.25 36.1855V32.4531H46.2988V29.7051H54.0098ZM70.7578 37.0469V40H60.1758V37.0469H70.7578ZM61.3242 20.0938V40H57.5645V20.0938H61.3242ZM69.377 28.3105V31.1953H60.1758V28.3105H69.377ZM70.7168 20.0938V23.0605H60.1758V20.0938H70.7168ZM87.5332 37.0469V40H73.5605V37.0469H87.5332ZM87.2734 22.2949L75.1055 40H72.5215V37.7441L84.7441 20.0938H87.2734V22.2949ZM85.9336 20.0938V23.0605H72.5625V20.0938H85.9336Z" fill="white"/>
<path fill-rule="evenodd" clip-rule="evenodd" d="M73.5714 56C67.1063 56 62 61.2494 62 67.8957V67.9003V67.9051V67.9098V67.9147V67.9195V67.9245V67.9295V67.9346V67.9397V67.9448V67.95V67.9553V67.9606V67.9659V67.9713V67.9768V67.9823V67.9879V67.9935V67.9991V68.0048V68.0106V68.0164V68.0223V68.0282V68.0341V68.0401V68.0462V68.0523V68.0584V68.0646V68.0709V68.0772V68.0835V68.0898V68.0963V68.1028V68.1093V68.1158V68.1225V68.1291V68.1358V68.1425V68.1493V68.1561V68.163V68.1699V68.1768V68.1838V68.1909V68.198V68.2051V68.2123V68.2195V68.2267V68.234V68.2413V68.2487V68.2561V68.2635V68.271V68.2785V68.2861V68.2937V68.3013V68.309V68.3168V68.3245V68.3323V68.3402V68.348V68.3559V68.3638V68.3718V68.3799V68.3879V68.396V68.4041V68.4123V68.4204V68.4287V68.437V68.4452V68.4536V68.4619V68.4703V68.4788V68.4872V68.4957V68.5043V68.5128V68.5214V68.53V68.5387V68.5473V68.5561V68.5648V68.5736V68.5824V68.5913V68.6001V68.609V68.6179V68.6269V68.6359V68.6449V68.6539V68.663V68.6721V68.6812V68.6903V68.6995V68.7087V68.7179V68.7272V68.7365V68.7458V68.7551V68.7645V68.7738V68.7833V68.7927V68.8021V68.8116V68.8211V68.8307V68.8402V68.8498V68.8594V68.869V68.8786V68.8883V68.898V68.9077V68.9174V68.9272V68.9369V68.9467V68.9565V68.9664V68.9762V68.9861V68.996V69.0059V69.0158V69.0257V69.0357V69.0457V69.0557V69.0657V69.0757V69.0858V69.0958V69.1059V69.116V69.1261V69.1363V69.1464V69.1565V69.1668V69.1769V69.1871V69.1973V69.2076V69.2178V69.2281V69.2384V69.2486V69.2589V69.2693V69.2796V69.2899V69.3003V69.3106V69.321V69.3314V69.3418V69.3522V69.3626V69.373V69.3835V69.3939V69.4043V69.4148V69.4253V69.4357V69.4463V69.4567V69.4672V69.4777V69.4882V69.4988V69.5093V69.5199V69.5304V69.5409V69.5515V69.562V69.5726V69.5832V69.5938V69.6044V69.6149V69.6255V69.6361V69.6467V69.6573V69.6679V69.6785V69.6891V69.6997V69.7104V69.721V69.7316V69.7422V69.7528V69.7635V69.7741V69.7847V69.7953V69.8059V69.8166V69.8272V69.8378V69.8484V69.859V69.8696V69.8783C59.8703 69.8783 58.1429 71.6541 58.1429 73.8435V81.2783H38.8571C36.7261 81.2783 35 83.0527 35 85.2435V109.035C35 111.216 36.7357 113 38.8571 113H69.7143C71.8357 113 73.5714 111.216 73.5714 109.035V97.6348H85.1429C87.2725 97.6348 89 95.8589 89 93.6696V73.8435C89 71.6541 87.2725 69.8783 85.1429 69.8783V69.8696V69.859V69.8484V69.8378V69.8272V69.8166V69.8059V69.7953V69.7847V69.7741V69.7635V69.7528V69.7422V69.7316V69.721V69.7104V69.6997V69.6891V69.6785V69.6679V69.6573V69.6467V69.6361V69.6255V69.6149V69.6044V69.5938V69.5832V69.5726V69.562V69.5515V69.5409V69.5304V69.5199V69.5093V69.4988V69.4882V69.4777V69.4672V69.4567V69.4463V69.4357V69.4253V69.4148V69.4043V69.3939V69.3835V69.373V69.3626V69.3522V69.3418V69.3314V69.321V69.3106V69.3003V69.2899V69.2796V69.2693V69.2589V69.2486V69.2384V69.2281V69.2178V69.2076V69.1973V69.1871V69.1769V69.1668V69.1565V69.1464V69.1363V69.1261V69.116V69.1059V69.0958V69.0858V69.0757V69.0657V69.0557V69.0457V69.0357V69.0257V69.0158V69.0059V68.996V68.9861V68.9762V68.9664V68.9565V68.9467V68.9369V68.9272V68.9174V68.9077V68.898V68.8883V68.8786V68.869V68.8594V68.8498V68.8402V68.8307V68.8211V68.8116V68.8021V68.7927V68.7833V68.7738V68.7645V68.7551V68.7458V68.7365V68.7272V68.7179V68.7087V68.6995V68.6903V68.6812V68.6721V68.663V68.6539V68.6449V68.6359V68.6269V68.6179V68.609V68.6001V68.5913V68.5824V68.5736V68.5648V68.5561V68.5473V68.5387V68.53V68.5214V68.5128V68.5043V68.4957V68.4872V68.4788V68.4703V68.4619V68.4536V68.4452V68.437V68.4287V68.4204V68.4123V68.4041V68.396V68.3879V68.3799V68.3718V68.3638V68.3559V68.348V68.3402V68.3323V68.3245V68.3168V68.309V68.3013V68.2937V68.2861V68.2785V68.271V68.2635V68.2561V68.2487V68.2413V68.234V68.2267V68.2195V68.2123V68.2051V68.198V68.1909V68.1838V68.1768V68.1699V68.163V68.1561V68.1493V68.1425V68.1358V68.1291V68.1225V68.1158V68.1093V68.1028V68.0963V68.0898V68.0835V68.0772V68.0709V68.0646V68.0584V68.0523V68.0462V68.0401V68.0341V68.0282V68.0223V68.0164V68.0106V68.0048V67.9991V67.9935V67.9879V67.9823V67.9768V67.9713V67.9659V67.9606V67.9553V67.95V67.9448V67.9397V67.9346V67.9295V67.9245V67.9195V67.9147V67.9098V67.9051V67.9003V67.8957C85.1429 61.2494 80.0365 56 73.5714 56ZM69.7143 97.6348H62C59.8703 97.6348 58.1429 95.8589 58.1429 93.6696V85.2435H38.8571V109.035H69.7143V97.6348ZM81.2857 69.8696V69.8783H65.8571V69.8696V69.859V69.8484V69.8378V69.8272V69.8166V69.8059V69.7953V69.7847V69.7741V69.7635V69.7528V69.7422V69.7316V69.721V69.7104V69.6997V69.6891V69.6785V69.6679V69.6573V69.6467V69.6361V69.6255V69.6149V69.6044V69.5938V69.5832V69.5726V69.562V69.5515V69.5409V69.5304V69.5199V69.5093V69.4988V69.4882V69.4777V69.4672V69.4567V69.4463V69.4357V69.4253V69.4148V69.4043V69.3939V69.3835V69.373V69.3626V69.3522V69.3418V69.3314V69.321V69.3106V69.3003V69.2899V69.2796V69.2693V69.2589V69.2486V69.2384V69.2281V69.2178V69.2076V69.1973V69.1871V69.1769V69.1668V69.1565V69.1464V69.1363V69.1261V69.116V69.1059V69.0958V69.0858V69.0757V69.0657V69.0557V69.0457V69.0357V69.0257V69.0158V69.0059V68.996V68.9861V68.9762V68.9664V68.9565V68.9467V68.9369V68.9272V68.9174V68.9077V68.898V68.8883V68.8786V68.869V68.8594V68.8498V68.8402V68.8307V68.8211V68.8116V68.8021V68.7927V68.7833V68.7738V68.7645V68.7551V68.7458V68.7365V68.7272V68.7179V68.7087V68.6995V68.6903V68.6812V68.6721V68.663V68.6539V68.6449V68.6359V68.6269V68.6179V68.609V68.6001V68.5913V68.5824V68.5736V68.5648V68.5561V68.5473V68.5387V68.53V68.5214V68.5128V68.5043V68.4957V68.4872V68.4788V68.4703V68.4619V68.4536V68.4452V68.437V68.4287V68.4204V68.4123V68.4041V68.396V68.3879V68.3799V68.3718V68.3638V68.3559V68.348V68.3402V68.3323V68.3245V68.3168V68.309V68.3013V68.2937V68.2861V68.2785V68.271V68.2635V68.2561V68.2487V68.2413V68.234V68.2267V68.2195V68.2123V68.2051V68.198V68.1909V68.1838V68.1768V68.1699V68.163V68.1561V68.1493V68.1425V68.1358V68.1291V68.1225V68.1158V68.1093V68.1028V68.0963V68.0898V68.0835V68.0772V68.0709V68.0646V68.0584V68.0523V68.0462V68.0401V68.0341V68.0282V68.0223V68.0164V68.0106V68.0048V67.9991V67.9935V67.9879V67.9823V67.9768V67.9713V67.9659V67.9606V67.9553V67.95V67.9448V67.9397V67.9346V67.9295V67.9245V67.9195V67.9147V67.9098V67.9051V67.9003V67.8957C65.8571 63.4393 69.2365 59.9652 73.5714 59.9652C77.9063 59.9652 81.2857 63.4393 81.2857 67.8957V67.9003V67.9051V67.9098V67.9147V67.9195V67.9245V67.9295V67.9346V67.9397V67.9448V67.95V67.9553V67.9606V67.9659V67.9713V67.9768V67.9823V67.9879V67.9935V67.9991V68.0048V68.0106V68.0164V68.0223V68.0282V68.0341V68.0401V68.0462V68.0523V68.0584V68.0646V68.0709V68.0772V68.0835V68.0898V68.0963V68.1028V68.1093V68.1158V68.1225V68.1291V68.1358V68.1425V68.1493V68.1561V68.163V68.1699V68.1768V68.1838V68.1909V68.198V68.2051V68.2123V68.2195V68.2267V68.234V68.2413V68.2487V68.2561V68.2635V68.271V68.2785V68.2861V68.2937V68.3013V68.309V68.3168V68.3245V68.3323V68.3402V68.348V68.3559V68.3638V68.3718V68.3799V68.3879V68.396V68.4041V68.4123V68.4204V68.4287V68.437V68.4452V68.4536V68.4619V68.4703V68.4788V68.4872V68.4957V68.5043V68.5128V68.5214V68.53V68.5387V68.5473V68.5561V68.5648V68.5736V68.5824V68.5913V68.6001V68.609V68.6179V68.6269V68.6359V68.6449V68.6539V68.663V68.6721V68.6812V68.6903V68.6995V68.7087V68.7179V68.7272V68.7365V68.7458V68.7551V68.7645V68.7738V68.7833V68.7927V68.8021V68.8116V68.8211V68.8307V68.8402V68.8498V68.8594V68.869V68.8786V68.8883V68.898V68.9077V68.9174V68.9272V68.9369V68.9467V68.9565V68.9664V68.9762V68.9861V68.996V69.0059V69.0158V69.0257V69.0357V69.0457V69.0557V69.0657V69.0757V69.0858V69.0958V69.1059V69.116V69.1261V69.1363V69.1464V69.1565V69.1668V69.1769V69.1871V69.1973V69.2076V69.2178V69.2281V69.2384V69.2486V69.2589V69.2693V69.2796V69.2899V69.3003V69.3106V69.321V69.3314V69.3418V69.3522V69.3626V69.373V69.3835V69.3939V69.4043V69.4148V69.4253V69.4357V69.4463V69.4567V69.4672V69.4777V69.4882V69.4988V69.5093V69.5199V69.5304V69.5409V69.5515V69.562V69.5726V69.5832V69.5938V69.6044V69.6149V69.6255V69.6361V69.6467V69.6573V69.6679V69.6785V69.6891V69.6997V69.7104V69.721V69.7316V69.7422V69.7528V69.7635V69.7741V69.7847V69.7953V69.8059V69.8166V69.8272V69.8378V69.8484V69.859V69.8696ZM62 73.8435H63.9286H83.2143H85.1429V93.6696H62V73.8435ZM77.4286 83.7565C77.4286 85.9374 75.6929 87.7217 73.5714 87.7217C71.45 87.7217 69.7143 85.9374 69.7143 83.7565C69.7143 81.5757 71.45 79.7913 73.5714 79.7913C75.6929 79.7913 77.4286 81.5757 77.4286 83.7565ZM48.5 89.2087C50.6636 89.2087 52.3571 90.831 52.3571 93.1739C52.3571 95.5168 50.6636 97.1391 48.5 97.1391C46.3364 97.1391 44.6429 95.5168 44.6429 93.1739C44.6429 90.831 46.3364 89.2087 48.5 89.2087ZM42.7143 103.335C42.7143 101.219 46.6284 100.149 48.5884 100.149C50.5484 100.149 54.2857 101.219 54.2857 103.335V105.07H42.7143V103.335ZM58.1429 99.1217V103.087H65.8571V99.1217H58.1429Z" fill="white"/>
</svg>
