<svg width="125" height="125" viewBox="0 0 125 125" fill="none" xmlns="http://www.w3.org/2000/svg">
<path d="M124.5 0.5H0.5V124.5H124.5V0.5Z" fill="#4EAED7" stroke="#2C3637"/>
<path fill-rule="evenodd" clip-rule="evenodd" d="M75.5714 56C69.1063 56 64 61.2494 64 67.8957V67.9003V67.9051V67.9098V67.9147V67.9195V67.9245V67.9295V67.9346V67.9397V67.9448V67.95V67.9553V67.9606V67.9659V67.9713V67.9768V67.9823V67.9879V67.9935V67.9991V68.0048V68.0106V68.0164V68.0223V68.0282V68.0341V68.0401V68.0462V68.0523V68.0584V68.0646V68.0709V68.0772V68.0835V68.0898V68.0963V68.1028V68.1093V68.1158V68.1225V68.1291V68.1358V68.1425V68.1493V68.1561V68.163V68.1699V68.1768V68.1838V68.1909V68.198V68.2051V68.2123V68.2195V68.2267V68.234V68.2413V68.2487V68.2561V68.2635V68.271V68.2785V68.2861V68.2937V68.3013V68.309V68.3168V68.3245V68.3323V68.3402V68.348V68.3559V68.3638V68.3718V68.3799V68.3879V68.396V68.4041V68.4123V68.4204V68.4287V68.437V68.4452V68.4536V68.4619V68.4703V68.4788V68.4872V68.4957V68.5043V68.5128V68.5214V68.53V68.5387V68.5473V68.5561V68.5648V68.5736V68.5824V68.5913V68.6001V68.609V68.6179V68.6269V68.6359V68.6449V68.6539V68.663V68.6721V68.6812V68.6903V68.6995V68.7087V68.7179V68.7272V68.7365V68.7458V68.7551V68.7645V68.7738V68.7833V68.7927V68.8022V68.8116V68.8211V68.8307V68.8402V68.8498V68.8594V68.869V68.8786V68.8883V68.898V68.9077V68.9174V68.9272V68.9369V68.9467V68.9565V68.9664V68.9762V68.9861V68.996V69.0059V69.0158V69.0257V69.0357V69.0457V69.0557V69.0657V69.0757V69.0858V69.0958V69.1059V69.116V69.1261V69.1363V69.1464V69.1565V69.1668V69.1769V69.1871V69.1973V69.2076V69.2178V69.2281V69.2384V69.2486V69.2589V69.2693V69.2796V69.2899V69.3003V69.3106V69.321V69.3314V69.3418V69.3522V69.3626V69.373V69.3835V69.3939V69.4043V69.4148V69.4253V69.4357V69.4463V69.4567V69.4672V69.4777V69.4882V69.4988V69.5093V69.5199V69.5304V69.5409V69.5515V69.562V69.5726V69.5832V69.5938V69.6044V69.6149V69.6255V69.6361V69.6467V69.6573V69.6679V69.6785V69.6891V69.6997V69.7104V69.721V69.7316V69.7422V69.7528V69.7635V69.7741V69.7847V69.7953V69.8059V69.8166V69.8272V69.8378V69.8484V69.859V69.8696V69.8783C61.8703 69.8783 60.1429 71.6541 60.1429 73.8435V81.2783H40.8571C38.7261 81.2783 37 83.0527 37 85.2435V109.035C37 111.216 38.7357 113 40.8571 113H71.7143C73.8357 113 75.5714 111.216 75.5714 109.035V97.6348H87.1429C89.2725 97.6348 91 95.8589 91 93.6696V73.8435C91 71.6541 89.2725 69.8783 87.1429 69.8783V69.8696V69.859V69.8484V69.8378V69.8272V69.8166V69.8059V69.7953V69.7847V69.7741V69.7635V69.7528V69.7422V69.7316V69.721V69.7104V69.6997V69.6891V69.6785V69.6679V69.6573V69.6467V69.6361V69.6255V69.6149V69.6044V69.5938V69.5832V69.5726V69.562V69.5515V69.5409V69.5304V69.5199V69.5093V69.4988V69.4882V69.4777V69.4672V69.4567V69.4463V69.4357V69.4253V69.4148V69.4043V69.3939V69.3835V69.373V69.3626V69.3522V69.3418V69.3314V69.321V69.3106V69.3003V69.2899V69.2796V69.2693V69.2589V69.2486V69.2384V69.2281V69.2178V69.2076V69.1973V69.1871V69.1769V69.1668V69.1565V69.1464V69.1363V69.1261V69.116V69.1059V69.0958V69.0858V69.0757V69.0657V69.0557V69.0457V69.0357V69.0257V69.0158V69.0059V68.996V68.9861V68.9762V68.9664V68.9565V68.9467V68.9369V68.9272V68.9174V68.9077V68.898V68.8883V68.8786V68.869V68.8594V68.8498V68.8402V68.8307V68.8211V68.8116V68.8022V68.7927V68.7833V68.7738V68.7645V68.7551V68.7458V68.7365V68.7272V68.7179V68.7087V68.6995V68.6903V68.6812V68.6721V68.663V68.6539V68.6449V68.6359V68.6269V68.6179V68.609V68.6001V68.5913V68.5824V68.5736V68.5648V68.5561V68.5473V68.5387V68.53V68.5214V68.5128V68.5043V68.4957V68.4872V68.4788V68.4703V68.4619V68.4536V68.4452V68.437V68.4287V68.4204V68.4123V68.4041V68.396V68.3879V68.3799V68.3718V68.3638V68.3559V68.348V68.3402V68.3323V68.3245V68.3168V68.309V68.3013V68.2937V68.2861V68.2785V68.271V68.2635V68.2561V68.2487V68.2413V68.234V68.2267V68.2195V68.2123V68.2051V68.198V68.1909V68.1838V68.1768V68.1699V68.163V68.1561V68.1493V68.1425V68.1358V68.1291V68.1225V68.1158V68.1093V68.1028V68.0963V68.0898V68.0835V68.0772V68.0709V68.0646V68.0584V68.0523V68.0462V68.0401V68.0341V68.0282V68.0223V68.0164V68.0106V68.0048V67.9991V67.9935V67.9879V67.9823V67.9768V67.9713V67.9659V67.9606V67.9553V67.95V67.9448V67.9397V67.9346V67.9295V67.9245V67.9195V67.9147V67.9098V67.9051V67.9003V67.8957C87.1429 61.2494 82.0365 56 75.5714 56ZM71.7143 97.6348H64C61.8703 97.6348 60.1429 95.8589 60.1429 93.6696V85.2435H40.8571V109.035H71.7143V97.6348ZM83.2857 69.8696V69.8783H67.8571V69.8696V69.859V69.8484V69.8378V69.8272V69.8166V69.8059V69.7953V69.7847V69.7741V69.7635V69.7528V69.7422V69.7316V69.721V69.7104V69.6997V69.6891V69.6785V69.6679V69.6573V69.6467V69.6361V69.6255V69.6149V69.6044V69.5938V69.5832V69.5726V69.562V69.5515V69.5409V69.5304V69.5199V69.5093V69.4988V69.4882V69.4777V69.4672V69.4567V69.4463V69.4357V69.4253V69.4148V69.4043V69.3939V69.3835V69.373V69.3626V69.3522V69.3418V69.3314V69.321V69.3106V69.3003V69.2899V69.2796V69.2693V69.2589V69.2486V69.2384V69.2281V69.2178V69.2076V69.1973V69.1871V69.1769V69.1668V69.1565V69.1464V69.1363V69.1261V69.116V69.1059V69.0958V69.0858V69.0757V69.0657V69.0557V69.0457V69.0357V69.0257V69.0158V69.0059V68.996V68.9861V68.9762V68.9664V68.9565V68.9467V68.9369V68.9272V68.9174V68.9077V68.898V68.8883V68.8786V68.869V68.8594V68.8498V68.8402V68.8307V68.8211V68.8116V68.8022V68.7927V68.7833V68.7738V68.7645V68.7551V68.7458V68.7365V68.7272V68.7179V68.7087V68.6995V68.6903V68.6812V68.6721V68.663V68.6539V68.6449V68.6359V68.6269V68.6179V68.609V68.6001V68.5913V68.5824V68.5736V68.5648V68.5561V68.5473V68.5387V68.53V68.5214V68.5128V68.5043V68.4957V68.4872V68.4788V68.4703V68.4619V68.4536V68.4452V68.437V68.4287V68.4204V68.4123V68.4041V68.396V68.3879V68.3799V68.3718V68.3638V68.3559V68.348V68.3402V68.3323V68.3245V68.3168V68.309V68.3013V68.2937V68.2861V68.2785V68.271V68.2635V68.2561V68.2487V68.2413V68.234V68.2267V68.2195V68.2123V68.2051V68.198V68.1909V68.1838V68.1768V68.1699V68.163V68.1561V68.1493V68.1425V68.1358V68.1291V68.1225V68.1158V68.1093V68.1028V68.0963V68.0898V68.0835V68.0772V68.0709V68.0646V68.0584V68.0523V68.0462V68.0401V68.0341V68.0282V68.0223V68.0164V68.0106V68.0048V67.9991V67.9935V67.9879V67.9823V67.9768V67.9713V67.9659V67.9606V67.9553V67.95V67.9448V67.9397V67.9346V67.9295V67.9245V67.9195V67.9147V67.9098V67.9051V67.9003V67.8957C67.8571 63.4393 71.2365 59.9652 75.5714 59.9652C79.9063 59.9652 83.2857 63.4393 83.2857 67.8957V67.9003V67.9051V67.9098V67.9147V67.9195V67.9245V67.9295V67.9346V67.9397V67.9448V67.95V67.9553V67.9606V67.9659V67.9713V67.9768V67.9823V67.9879V67.9935V67.9991V68.0048V68.0106V68.0164V68.0223V68.0282V68.0341V68.0401V68.0462V68.0523V68.0584V68.0646V68.0709V68.0772V68.0835V68.0898V68.0963V68.1028V68.1093V68.1158V68.1225V68.1291V68.1358V68.1425V68.1493V68.1561V68.163V68.1699V68.1768V68.1838V68.1909V68.198V68.2051V68.2123V68.2195V68.2267V68.234V68.2413V68.2487V68.2561V68.2635V68.271V68.2785V68.2861V68.2937V68.3013V68.309V68.3168V68.3245V68.3323V68.3402V68.348V68.3559V68.3638V68.3718V68.3799V68.3879V68.396V68.4041V68.4123V68.4204V68.4287V68.437V68.4452V68.4536V68.4619V68.4703V68.4788V68.4872V68.4957V68.5043V68.5128V68.5214V68.53V68.5387V68.5473V68.5561V68.5648V68.5736V68.5824V68.5913V68.6001V68.609V68.6179V68.6269V68.6359V68.6449V68.6539V68.663V68.6721V68.6812V68.6903V68.6995V68.7087V68.7179V68.7272V68.7365V68.7458V68.7551V68.7645V68.7738V68.7833V68.7927V68.8022V68.8116V68.8211V68.8307V68.8402V68.8498V68.8594V68.869V68.8786V68.8883V68.898V68.9077V68.9174V68.9272V68.9369V68.9467V68.9565V68.9664V68.9762V68.9861V68.996V69.0059V69.0158V69.0257V69.0357V69.0457V69.0557V69.0657V69.0757V69.0858V69.0958V69.1059V69.116V69.1261V69.1363V69.1464V69.1565V69.1668V69.1769V69.1871V69.1973V69.2076V69.2178V69.2281V69.2384V69.2486V69.2589V69.2693V69.2796V69.2899V69.3003V69.3106V69.321V69.3314V69.3418V69.3522V69.3626V69.373V69.3835V69.3939V69.4043V69.4148V69.4253V69.4357V69.4463V69.4567V69.4672V69.4777V69.4882V69.4988V69.5093V69.5199V69.5304V69.5409V69.5515V69.562V69.5726V69.5832V69.5938V69.6044V69.6149V69.6255V69.6361V69.6467V69.6573V69.6679V69.6785V69.6891V69.6997V69.7104V69.721V69.7316V69.7422V69.7528V69.7635V69.7741V69.7847V69.7953V69.8059V69.8166V69.8272V69.8378V69.8484V69.859V69.8696ZM64 73.8435H65.9286H85.2143H87.1429V93.6696H64V73.8435ZM79.4286 83.7565C79.4286 85.9374 77.6929 87.7217 75.5714 87.7217C73.45 87.7217 71.7143 85.9374 71.7143 83.7565C71.7143 81.5757 73.45 79.7913 75.5714 79.7913C77.6929 79.7913 79.4286 81.5757 79.4286 83.7565ZM50.5 89.2087C52.6636 89.2087 54.3571 90.831 54.3571 93.1739C54.3571 95.5168 52.6636 97.1391 50.5 97.1391C48.3364 97.1391 46.6429 95.5168 46.6429 93.1739C46.6429 90.831 48.3364 89.2087 50.5 89.2087ZM44.7143 103.335C44.7143 101.219 48.6284 100.149 50.5884 100.149C52.5484 100.149 56.2857 101.219 56.2857 103.335V105.07H44.7143V103.335ZM60.1429 99.1217V103.087H67.8571V99.1217H60.1429Z" fill="white"/>
<path d="M11.6025 30.5586H13.6362L17.0371 39.9238L20.4294 30.5586H22.4717L17.8489 43H16.2168L11.6025 30.5586ZM10.5771 30.5586H12.5681L12.927 39.1633V43H10.5771V30.5586ZM21.4976 30.5586H23.4971V43H21.1472V39.1633L21.4976 30.5586ZM29.8716 43.1709C29.1709 43.1709 28.5414 43.057 27.9832 42.8291C27.4249 42.6012 26.9492 42.2851 26.5562 41.8806C26.1688 41.4705 25.8697 40.9948 25.6589 40.4536C25.4539 39.9067 25.3513 39.32 25.3513 38.6934V38.3516C25.3513 37.6395 25.4539 36.9929 25.6589 36.4119C25.864 35.8251 26.1545 35.321 26.5305 34.8994C26.9065 34.4779 27.3565 34.1532 27.8806 33.9253C28.4047 33.6974 28.9829 33.5835 29.6152 33.5835C30.2703 33.5835 30.8486 33.6946 31.3499 33.9167C31.8512 34.1332 32.2699 34.4408 32.606 34.8396C32.9421 35.2384 33.1956 35.7169 33.3665 36.2751C33.5374 36.8277 33.6228 37.4401 33.6228 38.1123V39.0608H26.3767V37.5056H31.4011V37.3347C31.3897 36.9758 31.3214 36.6483 31.196 36.3521C31.0707 36.0501 30.877 35.8109 30.615 35.6343C30.3529 35.452 30.014 35.3608 29.5981 35.3608C29.262 35.3608 28.9687 35.4349 28.718 35.583C28.4731 35.7254 28.268 35.9305 28.1028 36.1982C27.9433 36.4603 27.8236 36.7736 27.7439 37.1382C27.6641 37.5028 27.6243 37.9072 27.6243 38.3516V38.6934C27.6243 39.0807 27.6755 39.4396 27.7781 39.77C27.8863 40.1004 28.043 40.3881 28.248 40.6331C28.4588 40.8723 28.7095 41.0603 29 41.197C29.2962 41.328 29.6323 41.3936 30.0083 41.3936C30.4811 41.3936 30.9084 41.3024 31.29 41.1201C31.6774 40.9321 32.0135 40.6558 32.2983 40.2913L33.4348 41.4705C33.2411 41.7553 32.9791 42.0287 32.6487 42.2908C32.324 42.5528 31.9309 42.7664 31.4695 42.9316C31.0081 43.0911 30.4754 43.1709 29.8716 43.1709ZM37.5278 29.875V43H35.2634V29.875H37.5278ZM45.2268 41.0347V29.875H47.4998V43H45.449L45.2268 41.0347ZM39.2881 38.4883V38.3088C39.2881 37.6025 39.3678 36.9616 39.5273 36.3862C39.6925 35.8052 39.9318 35.3067 40.2451 34.8909C40.5584 34.475 40.9373 34.1532 41.3816 33.9253C41.8316 33.6974 42.3415 33.5835 42.9111 33.5835C43.4637 33.5835 43.9451 33.6946 44.3552 33.9167C44.7711 34.1389 45.1243 34.4551 45.4148 34.8652C45.711 35.2754 45.9474 35.7625 46.124 36.3264C46.3006 36.8847 46.4288 37.4999 46.5085 38.1721V38.6592C46.4288 39.3143 46.3006 39.9153 46.124 40.4622C45.9474 41.009 45.711 41.4875 45.4148 41.8977C45.1243 42.3022 44.7711 42.6155 44.3552 42.8376C43.9394 43.0598 43.4523 43.1709 42.894 43.1709C42.3301 43.1709 41.8231 43.0541 41.373 42.8206C40.9287 42.587 40.5499 42.2594 40.2366 41.8379C39.929 41.4163 39.6925 40.9207 39.5273 40.3511C39.3678 39.7814 39.2881 39.1605 39.2881 38.4883ZM41.5525 38.3088V38.4883C41.5525 38.887 41.5867 39.2602 41.655 39.6077C41.7234 39.9552 41.8345 40.2628 41.9883 40.5305C42.1421 40.7926 42.3386 40.9976 42.5779 41.1458C42.8228 41.2939 43.1191 41.3679 43.4666 41.3679C43.9109 41.3679 44.2755 41.2711 44.5603 41.0774C44.8508 40.878 45.0758 40.6074 45.2354 40.2656C45.3949 39.9181 45.4974 39.5279 45.543 39.095V37.7534C45.5202 37.4116 45.4604 37.0955 45.3635 36.8049C45.2724 36.5144 45.1414 36.2638 44.9705 36.053C44.8053 35.8422 44.6002 35.677 44.3552 35.5574C44.1103 35.4377 43.8197 35.3779 43.4836 35.3779C43.1361 35.3779 42.8399 35.4548 42.595 35.6086C42.35 35.7568 42.1506 35.9647 41.9968 36.2324C41.843 36.5002 41.7291 36.8106 41.655 37.1638C41.5867 37.517 41.5525 37.8987 41.5525 38.3088ZM53.6948 43.1709C52.9941 43.1709 52.3647 43.057 51.8064 42.8291C51.2481 42.6012 50.7725 42.2851 50.3794 41.8806C49.992 41.4705 49.693 40.9948 49.4822 40.4536C49.2771 39.9067 49.1746 39.32 49.1746 38.6934V38.3516C49.1746 37.6395 49.2771 36.9929 49.4822 36.4119C49.6873 35.8251 49.9778 35.321 50.3538 34.8994C50.7297 34.4779 51.1798 34.1532 51.7039 33.9253C52.2279 33.6974 52.8062 33.5835 53.4385 33.5835C54.0936 33.5835 54.6718 33.6946 55.1731 33.9167C55.6744 34.1332 56.0931 34.4408 56.4292 34.8396C56.7653 35.2384 57.0188 35.7169 57.1897 36.2751C57.3606 36.8277 57.446 37.4401 57.446 38.1123V39.0608H50.2V37.5056H55.2244V37.3347C55.213 36.9758 55.1446 36.6483 55.0193 36.3521C54.894 36.0501 54.7003 35.8109 54.4382 35.6343C54.1762 35.452 53.8372 35.3608 53.4214 35.3608C53.0853 35.3608 52.7919 35.4349 52.5413 35.583C52.2963 35.7254 52.0912 35.9305 51.926 36.1982C51.7665 36.4603 51.6469 36.7736 51.5671 37.1382C51.4874 37.5028 51.4475 37.9072 51.4475 38.3516V38.6934C51.4475 39.0807 51.4988 39.4396 51.6013 39.77C51.7096 40.1004 51.8662 40.3881 52.0713 40.6331C52.2821 40.8723 52.5327 41.0603 52.8232 41.197C53.1195 41.328 53.4556 41.3936 53.8315 41.3936C54.3044 41.3936 54.7316 41.3024 55.1133 41.1201C55.5007 40.9321 55.8368 40.6558 56.1216 40.2913L57.2581 41.4705C57.0644 41.7553 56.8023 42.0287 56.4719 42.2908C56.1472 42.5528 55.7542 42.7664 55.2927 42.9316C54.8313 43.0911 54.2987 43.1709 53.6948 43.1709ZM61.2144 35.6428V43H58.9585V33.7544H61.0947L61.2144 35.6428ZM64.0256 33.6946L63.9915 35.7966C63.8661 35.7738 63.7237 35.7568 63.5642 35.7454C63.4104 35.734 63.2651 35.7283 63.1284 35.7283C62.7809 35.7283 62.4762 35.7767 62.2141 35.8735C61.9521 35.9647 61.7327 36.0986 61.5562 36.2751C61.3853 36.4517 61.2542 36.6682 61.1631 36.9246C61.0719 37.1752 61.0207 37.46 61.0093 37.7791L60.5222 37.7192C60.5222 37.1325 60.582 36.5885 60.7017 36.0872C60.8213 35.5859 60.995 35.1472 61.2229 34.7712C61.4508 34.3953 61.7356 34.1047 62.0774 33.8997C62.4249 33.6889 62.8236 33.5835 63.2737 33.5835C63.399 33.5835 63.5329 33.5949 63.6753 33.6177C63.8234 33.6348 63.9402 33.6604 64.0256 33.6946ZM69.2466 43.1709C68.5459 43.1709 67.9164 43.057 67.3582 42.8291C66.7999 42.6012 66.3242 42.2851 65.9312 41.8806C65.5438 41.4705 65.2447 40.9948 65.0339 40.4536C64.8289 39.9067 64.7263 39.32 64.7263 38.6934V38.3516C64.7263 37.6395 64.8289 36.9929 65.0339 36.4119C65.239 35.8251 65.5295 35.321 65.9055 34.8994C66.2815 34.4779 66.7315 34.1532 67.2556 33.9253C67.7797 33.6974 68.3579 33.5835 68.9902 33.5835C69.6453 33.5835 70.2236 33.6946 70.7249 33.9167C71.2262 34.1332 71.6449 34.4408 71.981 34.8396C72.3171 35.2384 72.5706 35.7169 72.7415 36.2751C72.9124 36.8277 72.9978 37.4401 72.9978 38.1123V39.0608H65.7517V37.5056H70.7761V37.3347C70.7647 36.9758 70.6964 36.6483 70.571 36.3521C70.4457 36.0501 70.252 35.8109 69.99 35.6343C69.7279 35.452 69.389 35.3608 68.9731 35.3608C68.637 35.3608 68.3437 35.4349 68.093 35.583C67.8481 35.7254 67.643 35.9305 67.4778 36.1982C67.3183 36.4603 67.1986 36.7736 67.1189 37.1382C67.0391 37.5028 66.9993 37.9072 66.9993 38.3516V38.6934C66.9993 39.0807 67.0505 39.4396 67.1531 39.77C67.2613 40.1004 67.418 40.3881 67.623 40.6331C67.8338 40.8723 68.0845 41.0603 68.375 41.197C68.6712 41.328 69.0073 41.3936 69.3833 41.3936C69.8561 41.3936 70.2834 41.3024 70.665 41.1201C71.0524 40.9321 71.3885 40.6558 71.6733 40.2913L72.8098 41.4705C72.6161 41.7553 72.3541 42.0287 72.0237 42.2908C71.699 42.5528 71.3059 42.7664 70.8445 42.9316C70.3831 43.0911 69.8504 43.1709 69.2466 43.1709ZM80.3892 33.7544H82.4399V42.718C82.4399 43.5554 82.2576 44.2646 81.8931 44.8457C81.5342 45.4325 81.03 45.8768 80.3806 46.1787C79.7312 46.4863 78.9764 46.6401 78.1162 46.6401C77.7459 46.6401 77.3443 46.5889 76.9114 46.4863C76.4841 46.3838 76.0711 46.2214 75.6724 45.9993C75.2793 45.7828 74.9517 45.5008 74.6897 45.1533L75.7065 43.8203C76.0142 44.1792 76.3617 44.4498 76.749 44.6321C77.1364 44.8201 77.5551 44.9141 78.0051 44.9141C78.4609 44.9141 78.8482 44.8286 79.1672 44.6577C79.4919 44.4925 79.7397 44.2476 79.9106 43.9229C80.0872 43.6038 80.1755 43.2108 80.1755 42.7437V35.865L80.3892 33.7544ZM74.1428 38.4883V38.3088C74.1428 37.6025 74.2283 36.9616 74.3992 36.3862C74.5701 35.8052 74.815 35.3067 75.134 34.8909C75.4587 34.475 75.849 34.1532 76.3047 33.9253C76.7661 33.6974 77.2845 33.5835 77.8599 33.5835C78.4694 33.5835 78.9821 33.6946 79.3979 33.9167C79.8195 34.1389 80.167 34.4551 80.4404 34.8652C80.7196 35.2754 80.936 35.7625 81.0898 36.3264C81.2493 36.8847 81.3718 37.4999 81.4573 38.1721V38.6592C81.3775 39.3143 81.2493 39.9153 81.0728 40.4622C80.9019 41.009 80.674 41.4875 80.3892 41.8977C80.1043 42.3022 79.7511 42.6155 79.3296 42.8376C78.908 43.0598 78.4124 43.1709 77.8428 43.1709C77.2731 43.1709 76.7604 43.0541 76.3047 42.8206C75.849 42.587 75.4587 42.2594 75.134 41.8379C74.815 41.4163 74.5701 40.9207 74.3992 40.3511C74.2283 39.7814 74.1428 39.1605 74.1428 38.4883ZM76.3987 38.3088V38.4883C76.3987 38.887 76.4386 39.2602 76.5183 39.6077C76.5981 39.9552 76.7205 40.2628 76.8857 40.5305C77.0509 40.7926 77.2589 40.9976 77.5095 41.1458C77.7602 41.2939 78.0592 41.3679 78.4067 41.3679C78.8739 41.3679 79.2555 41.2711 79.5518 41.0774C79.8537 40.878 80.0815 40.6074 80.2354 40.2656C80.3949 39.9181 80.4974 39.5279 80.543 39.095V37.7534C80.5145 37.4116 80.4518 37.0955 80.355 36.8049C80.2638 36.5144 80.1357 36.2638 79.9705 36.053C79.8053 35.8422 79.5945 35.677 79.3381 35.5574C79.0818 35.4377 78.777 35.3779 78.4238 35.3779C78.082 35.3779 77.783 35.4548 77.5266 35.6086C77.2703 35.7568 77.0595 35.9647 76.8943 36.2324C76.7291 36.5002 76.6038 36.8106 76.5183 37.1638C76.4386 37.517 76.3987 37.8987 76.3987 38.3088ZM86.8662 33.7544V43H84.6018V33.7544H86.8662ZM84.448 31.3362C84.448 31.0001 84.5619 30.7209 84.7898 30.4988C85.0234 30.2766 85.3367 30.1655 85.7297 30.1655C86.1228 30.1655 86.4333 30.2766 86.6611 30.4988C86.8947 30.7209 87.0115 31.0001 87.0115 31.3362C87.0115 31.6666 86.8947 31.9429 86.6611 32.165C86.4333 32.3872 86.1228 32.4983 85.7297 32.4983C85.3367 32.4983 85.0234 32.3872 84.7898 32.165C84.5619 31.9429 84.448 31.6666 84.448 31.3362ZM94.1038 40.4707C94.1038 40.277 94.0525 40.1033 93.95 39.9495C93.8474 39.7957 93.6537 39.6561 93.3689 39.5308C93.0898 39.3997 92.6796 39.2773 92.1384 39.1633C91.6599 39.0608 91.2184 38.9326 90.814 38.7788C90.4095 38.625 90.062 38.4399 89.7715 38.2234C89.481 38.0012 89.2531 37.742 89.0879 37.4458C88.9284 37.1439 88.8486 36.7964 88.8486 36.4033C88.8486 36.0216 88.9312 35.6628 89.0964 35.3267C89.2616 34.9849 89.5009 34.6858 89.8142 34.4294C90.1275 34.1674 90.5092 33.9623 90.9592 33.8142C91.4093 33.6604 91.9163 33.5835 92.4802 33.5835C93.2664 33.5835 93.9414 33.7117 94.5054 33.968C95.075 34.2244 95.5108 34.5776 95.8127 35.0276C96.1147 35.4719 96.2656 35.9732 96.2656 36.5315H94.0098C94.0098 36.2865 93.9528 36.0644 93.8389 35.865C93.7306 35.6656 93.5626 35.5061 93.3347 35.3865C93.1069 35.2611 92.8192 35.1985 92.4717 35.1985C92.1584 35.1985 91.8935 35.2498 91.677 35.3523C91.4662 35.4548 91.3067 35.5887 91.1985 35.7539C91.0903 35.9191 91.0361 36.1014 91.0361 36.3008C91.0361 36.4489 91.0646 36.5828 91.1216 36.7024C91.1842 36.8163 91.2839 36.9217 91.4207 37.0186C91.5574 37.1154 91.7425 37.2037 91.9761 37.2834C92.2153 37.3632 92.5087 37.4401 92.8562 37.5142C93.5455 37.6509 94.1465 37.8332 94.6592 38.061C95.1776 38.2832 95.582 38.5794 95.8726 38.9497C96.1631 39.32 96.3083 39.7928 96.3083 40.3682C96.3083 40.7783 96.2201 41.1543 96.0435 41.4961C95.8669 41.8322 95.6105 42.1256 95.2744 42.3762C94.9383 42.6269 94.5367 42.8234 94.0696 42.9658C93.6025 43.1025 93.0755 43.1709 92.4888 43.1709C91.64 43.1709 90.9222 43.0199 90.3354 42.718C89.7487 42.4104 89.3044 42.023 89.0024 41.5559C88.7005 41.0831 88.5496 40.5932 88.5496 40.0862H90.7114C90.7285 40.4451 90.8254 40.7327 91.002 40.9492C91.1785 41.1657 91.4007 41.3223 91.6685 41.4192C91.9419 41.5103 92.2296 41.5559 92.5315 41.5559C92.8733 41.5559 93.161 41.5103 93.3945 41.4192C93.6281 41.3223 93.8047 41.1942 93.9243 41.0347C94.0439 40.8695 94.1038 40.6815 94.1038 40.4707ZM102.401 33.7544V35.3779H97.103V33.7544H102.401ZM98.5215 31.4814H100.786V40.334C100.786 40.6074 100.823 40.8182 100.897 40.9663C100.971 41.1144 101.082 41.2141 101.23 41.2654C101.378 41.3167 101.555 41.3423 101.76 41.3423C101.908 41.3423 102.045 41.3337 102.17 41.3167C102.295 41.2996 102.401 41.2825 102.486 41.2654L102.495 42.9573C102.307 43.0199 102.093 43.0712 101.854 43.1111C101.62 43.151 101.356 43.1709 101.059 43.1709C100.552 43.1709 100.108 43.0854 99.7263 42.9146C99.3446 42.738 99.0484 42.456 98.8376 42.0686C98.6269 41.6755 98.5215 41.1571 98.5215 40.5134V31.4814ZM108.058 43.1709C107.357 43.1709 106.727 43.057 106.169 42.8291C105.611 42.6012 105.135 42.2851 104.742 41.8806C104.355 41.4705 104.056 40.9948 103.845 40.4536C103.64 39.9067 103.537 39.32 103.537 38.6934V38.3516C103.537 37.6395 103.64 36.9929 103.845 36.4119C104.05 35.8251 104.341 35.321 104.717 34.8994C105.093 34.4779 105.543 34.1532 106.067 33.9253C106.591 33.6974 107.169 33.5835 107.801 33.5835C108.456 33.5835 109.035 33.6946 109.536 33.9167C110.037 34.1332 110.456 34.4408 110.792 34.8396C111.128 35.2384 111.382 35.7169 111.552 36.2751C111.723 36.8277 111.809 37.4401 111.809 38.1123V39.0608H104.563V37.5056H109.587V37.3347C109.576 36.9758 109.507 36.6483 109.382 36.3521C109.257 36.0501 109.063 35.8109 108.801 35.6343C108.539 35.452 108.2 35.3608 107.784 35.3608C107.448 35.3608 107.155 35.4349 106.904 35.583C106.659 35.7254 106.454 35.9305 106.289 36.1982C106.129 36.4603 106.01 36.7736 105.93 37.1382C105.85 37.5028 105.81 37.9072 105.81 38.3516V38.6934C105.81 39.0807 105.862 39.4396 105.964 39.77C106.072 40.1004 106.229 40.3881 106.434 40.6331C106.645 40.8723 106.896 41.0603 107.186 41.197C107.482 41.328 107.818 41.3936 108.194 41.3936C108.667 41.3936 109.094 41.3024 109.476 41.1201C109.863 40.9321 110.2 40.6558 110.484 40.2913L111.621 41.4705C111.427 41.7553 111.165 42.0287 110.835 42.2908C110.51 42.5528 110.117 42.7664 109.656 42.9316C109.194 43.0911 108.661 43.1709 108.058 43.1709ZM115.577 35.6428V43H113.321V33.7544H115.458L115.577 35.6428ZM118.388 33.6946L118.354 35.7966C118.229 35.7738 118.087 35.7568 117.927 35.7454C117.773 35.734 117.628 35.7283 117.491 35.7283C117.144 35.7283 116.839 35.7767 116.577 35.8735C116.315 35.9647 116.096 36.0986 115.919 36.2751C115.748 36.4517 115.617 36.6682 115.526 36.9246C115.435 37.1752 115.383 37.46 115.372 37.7791L114.885 37.7192C114.885 37.1325 114.945 36.5885 115.064 36.0872C115.184 35.5859 115.358 35.1472 115.586 34.7712C115.814 34.3953 116.098 34.1047 116.44 33.8997C116.788 33.6889 117.186 33.5835 117.636 33.5835C117.762 33.5835 117.896 33.5949 118.038 33.6177C118.186 33.6348 118.303 33.6604 118.388 33.6946Z" fill="white"/>
</svg>
