<svg width="125" height="125" viewBox="0 0 125 125" fill="none" xmlns="http://www.w3.org/2000/svg">
<path d="M124.5 0.5H0.5V124.5H124.5V0.5Z" fill="#D80C14" fill-opacity="0.75" stroke="#2C3637"/>
<path d="M12.8223 29.7812H15.1465L19.0332 40.4844L22.9102 29.7812H25.2441L19.9609 44H18.0957L12.8223 29.7812ZM11.6504 29.7812H13.9258L14.3359 39.6152V44H11.6504V29.7812ZM24.1309 29.7812H26.416V44H23.7305V39.6152L24.1309 29.7812ZM33.7012 44.1953C32.9004 44.1953 32.181 44.0651 31.543 43.8047C30.9049 43.5443 30.3613 43.1829 29.9121 42.7207C29.4694 42.252 29.1276 41.7083 28.8867 41.0898C28.6523 40.4648 28.5352 39.7943 28.5352 39.0781V38.6875C28.5352 37.8737 28.6523 37.1348 28.8867 36.4707C29.1211 35.8001 29.4531 35.224 29.8828 34.7422C30.3125 34.2604 30.8268 33.8893 31.4258 33.6289C32.0247 33.3685 32.6855 33.2383 33.4082 33.2383C34.1569 33.2383 34.8177 33.3652 35.3906 33.6191C35.9635 33.8665 36.4421 34.2181 36.8262 34.6738C37.2103 35.1296 37.5 35.6764 37.6953 36.3145C37.8906 36.946 37.9883 37.6458 37.9883 38.4141V39.498H29.707V37.7207H35.4492V37.5254C35.4362 37.1152 35.3581 36.7409 35.2148 36.4023C35.0716 36.0573 34.8503 35.7839 34.5508 35.582C34.2513 35.3737 33.8639 35.2695 33.3887 35.2695C33.0046 35.2695 32.6693 35.3542 32.3828 35.5234C32.1029 35.6862 31.8685 35.9206 31.6797 36.2266C31.4974 36.526 31.3607 36.8841 31.2695 37.3008C31.1784 37.7174 31.1328 38.1797 31.1328 38.6875V39.0781C31.1328 39.5208 31.1914 39.931 31.3086 40.3086C31.4323 40.6862 31.6113 41.015 31.8457 41.2949C32.0866 41.5684 32.373 41.7832 32.7051 41.9395C33.0436 42.0892 33.4277 42.1641 33.8574 42.1641C34.3978 42.1641 34.8861 42.0599 35.3223 41.8516C35.765 41.6367 36.1491 41.321 36.4746 40.9043L37.7734 42.252C37.5521 42.5775 37.2526 42.89 36.875 43.1895C36.5039 43.4889 36.0547 43.7331 35.5273 43.9219C35 44.1042 34.3913 44.1953 33.7012 44.1953ZM42.4512 29V44H39.8633V29H42.4512ZM51.25 41.7539V29H53.8477V44H51.5039L51.25 41.7539ZM44.4629 38.8438V38.6387C44.4629 37.8314 44.554 37.099 44.7363 36.4414C44.9251 35.7773 45.1986 35.2077 45.5566 34.7324C45.9147 34.2572 46.3477 33.8893 46.8555 33.6289C47.3698 33.3685 47.9525 33.2383 48.6035 33.2383C49.235 33.2383 49.7852 33.3652 50.2539 33.6191C50.7292 33.873 51.1328 34.2344 51.4648 34.7031C51.8034 35.1719 52.0736 35.7285 52.2754 36.373C52.4772 37.0111 52.6237 37.7142 52.7148 38.4824V39.0391C52.6237 39.7878 52.4772 40.4746 52.2754 41.0996C52.0736 41.7246 51.8034 42.2715 51.4648 42.7402C51.1328 43.2025 50.7292 43.5605 50.2539 43.8145C49.7786 44.0684 49.222 44.1953 48.584 44.1953C47.9395 44.1953 47.36 44.0618 46.8457 43.7949C46.3379 43.528 45.9049 43.1536 45.5469 42.6719C45.1953 42.1901 44.9251 41.6237 44.7363 40.9727C44.554 40.3216 44.4629 39.612 44.4629 38.8438ZM47.0508 38.6387V38.8438C47.0508 39.2995 47.0898 39.7259 47.168 40.123C47.2461 40.5202 47.373 40.8717 47.5488 41.1777C47.7246 41.4772 47.9492 41.7116 48.2227 41.8809C48.5026 42.0501 48.8411 42.1348 49.2383 42.1348C49.7461 42.1348 50.1628 42.0241 50.4883 41.8027C50.8203 41.5749 51.0775 41.2656 51.2598 40.875C51.4421 40.4779 51.5592 40.0319 51.6113 39.5371V38.0039C51.5853 37.6133 51.5169 37.252 51.4062 36.9199C51.3021 36.5879 51.1523 36.3014 50.957 36.0605C50.7682 35.8197 50.5339 35.6309 50.2539 35.4941C49.974 35.3574 49.6419 35.2891 49.2578 35.2891C48.8607 35.2891 48.5221 35.377 48.2422 35.5527C47.9622 35.722 47.7344 35.9596 47.5586 36.2656C47.3828 36.5716 47.2526 36.9264 47.168 37.3301C47.0898 37.7337 47.0508 38.1699 47.0508 38.6387ZM60.9277 44.1953C60.127 44.1953 59.4076 44.0651 58.7695 43.8047C58.1315 43.5443 57.5879 43.1829 57.1387 42.7207C56.696 42.252 56.3542 41.7083 56.1133 41.0898C55.8789 40.4648 55.7617 39.7943 55.7617 39.0781V38.6875C55.7617 37.8737 55.8789 37.1348 56.1133 36.4707C56.3477 35.8001 56.6797 35.224 57.1094 34.7422C57.5391 34.2604 58.0534 33.8893 58.6523 33.6289C59.2513 33.3685 59.9121 33.2383 60.6348 33.2383C61.3835 33.2383 62.0443 33.3652 62.6172 33.6191C63.1901 33.8665 63.6686 34.2181 64.0527 34.6738C64.4368 35.1296 64.7266 35.6764 64.9219 36.3145C65.1172 36.946 65.2148 37.6458 65.2148 38.4141V39.498H56.9336V37.7207H62.6758V37.5254C62.6628 37.1152 62.5846 36.7409 62.4414 36.4023C62.2982 36.0573 62.0768 35.7839 61.7773 35.582C61.4779 35.3737 61.0905 35.2695 60.6152 35.2695C60.2311 35.2695 59.8958 35.3542 59.6094 35.5234C59.3294 35.6862 59.0951 35.9206 58.9062 36.2266C58.724 36.526 58.5872 36.8841 58.4961 37.3008C58.4049 37.7174 58.3594 38.1797 58.3594 38.6875V39.0781C58.3594 39.5208 58.418 39.931 58.5352 40.3086C58.6589 40.6862 58.8379 41.015 59.0723 41.2949C59.3132 41.5684 59.5996 41.7832 59.9316 41.9395C60.2702 42.0892 60.6543 42.1641 61.084 42.1641C61.6243 42.1641 62.1126 42.0599 62.5488 41.8516C62.9915 41.6367 63.3757 41.321 63.7012 40.9043L65 42.252C64.7786 42.5775 64.4792 42.89 64.1016 43.1895C63.7305 43.4889 63.2812 43.7331 62.7539 43.9219C62.2266 44.1042 61.6178 44.1953 60.9277 44.1953ZM72.7539 41.1094C72.7539 40.888 72.6953 40.6895 72.5781 40.5137C72.4609 40.3379 72.2396 40.1784 71.9141 40.0352C71.5951 39.8854 71.1263 39.7454 70.5078 39.6152C69.9609 39.498 69.4564 39.3516 68.9941 39.1758C68.5319 39 68.1348 38.7884 67.8027 38.541C67.4707 38.2871 67.2103 37.9909 67.0215 37.6523C66.8392 37.3073 66.748 36.9102 66.748 36.4609C66.748 36.0247 66.8424 35.6146 67.0312 35.2305C67.2201 34.8398 67.4935 34.498 67.8516 34.2051C68.2096 33.9056 68.6458 33.6712 69.1602 33.502C69.6745 33.3262 70.2539 33.2383 70.8984 33.2383C71.7969 33.2383 72.5684 33.3848 73.2129 33.6777C73.8639 33.9707 74.362 34.3743 74.707 34.8887C75.0521 35.3965 75.2246 35.9694 75.2246 36.6074H72.6465C72.6465 36.3275 72.5814 36.0736 72.4512 35.8457C72.3275 35.6178 72.1354 35.4355 71.875 35.2988C71.6146 35.1556 71.2858 35.084 70.8887 35.084C70.5306 35.084 70.2279 35.1426 69.9805 35.2598C69.7396 35.377 69.5573 35.5299 69.4336 35.7188C69.3099 35.9076 69.248 36.1159 69.248 36.3438C69.248 36.513 69.2806 36.666 69.3457 36.8027C69.4173 36.9329 69.5312 37.0534 69.6875 37.1641C69.8438 37.2747 70.0553 37.3757 70.3223 37.4668C70.5957 37.5579 70.931 37.6458 71.3281 37.7305C72.1159 37.8867 72.8027 38.0951 73.3887 38.3555C73.9811 38.6094 74.4434 38.9479 74.7754 39.3711C75.1074 39.7943 75.2734 40.3346 75.2734 40.9922C75.2734 41.4609 75.1725 41.8906 74.9707 42.2812C74.7689 42.6654 74.4759 43.0007 74.0918 43.2871C73.7077 43.5736 73.2487 43.7982 72.7148 43.9609C72.181 44.1172 71.5788 44.1953 70.9082 44.1953C69.9382 44.1953 69.1178 44.0228 68.4473 43.6777C67.7767 43.3262 67.2689 42.8835 66.9238 42.3496C66.5788 41.8092 66.4062 41.2493 66.4062 40.6699H68.877C68.8965 41.0801 69.0072 41.4089 69.209 41.6562C69.4108 41.9036 69.6647 42.0827 69.9707 42.1934C70.2832 42.2975 70.612 42.3496 70.957 42.3496C71.3477 42.3496 71.6764 42.2975 71.9434 42.1934C72.2103 42.0827 72.4121 41.9362 72.5488 41.7539C72.6855 41.5651 72.7539 41.3503 72.7539 41.1094ZM82.2363 33.4336V35.2891H76.1816V33.4336H82.2363ZM77.8027 30.8359H80.3906V40.9531C80.3906 41.2656 80.4329 41.5065 80.5176 41.6758C80.6022 41.8451 80.7292 41.959 80.8984 42.0176C81.0677 42.0762 81.2695 42.1055 81.5039 42.1055C81.6732 42.1055 81.8294 42.0957 81.9727 42.0762C82.1159 42.0566 82.2363 42.0371 82.334 42.0176L82.3438 43.9512C82.1289 44.0228 81.8848 44.0814 81.6113 44.127C81.3444 44.1725 81.0417 44.1953 80.7031 44.1953C80.1237 44.1953 79.6159 44.0977 79.1797 43.9023C78.7435 43.7005 78.4049 43.3783 78.1641 42.9355C77.9232 42.4863 77.8027 41.8939 77.8027 41.1582V30.8359ZM88.7012 44.1953C87.9004 44.1953 87.181 44.0651 86.543 43.8047C85.9049 43.5443 85.3613 43.1829 84.9121 42.7207C84.4694 42.252 84.1276 41.7083 83.8867 41.0898C83.6523 40.4648 83.5352 39.7943 83.5352 39.0781V38.6875C83.5352 37.8737 83.6523 37.1348 83.8867 36.4707C84.1211 35.8001 84.4531 35.224 84.8828 34.7422C85.3125 34.2604 85.8268 33.8893 86.4258 33.6289C87.0247 33.3685 87.6855 33.2383 88.4082 33.2383C89.1569 33.2383 89.8177 33.3652 90.3906 33.6191C90.9635 33.8665 91.4421 34.2181 91.8262 34.6738C92.2103 35.1296 92.5 35.6764 92.6953 36.3145C92.8906 36.946 92.9883 37.6458 92.9883 38.4141V39.498H84.707V37.7207H90.4492V37.5254C90.4362 37.1152 90.3581 36.7409 90.2148 36.4023C90.0716 36.0573 89.8503 35.7839 89.5508 35.582C89.2513 35.3737 88.8639 35.2695 88.3887 35.2695C88.0046 35.2695 87.6693 35.3542 87.3828 35.5234C87.1029 35.6862 86.8685 35.9206 86.6797 36.2266C86.4974 36.526 86.3607 36.8841 86.2695 37.3008C86.1784 37.7174 86.1328 38.1797 86.1328 38.6875V39.0781C86.1328 39.5208 86.1914 39.931 86.3086 40.3086C86.4323 40.6862 86.6113 41.015 86.8457 41.2949C87.0866 41.5684 87.373 41.7832 87.7051 41.9395C88.0436 42.0892 88.4277 42.1641 88.8574 42.1641C89.3978 42.1641 89.8861 42.0599 90.3223 41.8516C90.765 41.6367 91.1491 41.321 91.4746 40.9043L92.7734 42.252C92.5521 42.5775 92.2526 42.89 91.875 43.1895C91.5039 43.4889 91.0547 43.7331 90.5273 43.9219C90 44.1042 89.3913 44.1953 88.7012 44.1953ZM97.4512 29V44H94.8633V29H97.4512ZM102.646 29V44H100.059V29H102.646ZM109.854 44.1953C109.053 44.1953 108.333 44.0651 107.695 43.8047C107.057 43.5443 106.514 43.1829 106.064 42.7207C105.622 42.252 105.28 41.7083 105.039 41.0898C104.805 40.4648 104.688 39.7943 104.688 39.0781V38.6875C104.688 37.8737 104.805 37.1348 105.039 36.4707C105.273 35.8001 105.605 35.224 106.035 34.7422C106.465 34.2604 106.979 33.8893 107.578 33.6289C108.177 33.3685 108.838 33.2383 109.561 33.2383C110.309 33.2383 110.97 33.3652 111.543 33.6191C112.116 33.8665 112.594 34.2181 112.979 34.6738C113.363 35.1296 113.652 35.6764 113.848 36.3145C114.043 36.946 114.141 37.6458 114.141 38.4141V39.498H105.859V37.7207H111.602V37.5254C111.589 37.1152 111.51 36.7409 111.367 36.4023C111.224 36.0573 111.003 35.7839 110.703 35.582C110.404 35.3737 110.016 35.2695 109.541 35.2695C109.157 35.2695 108.822 35.3542 108.535 35.5234C108.255 35.6862 108.021 35.9206 107.832 36.2266C107.65 36.526 107.513 36.8841 107.422 37.3008C107.331 37.7174 107.285 38.1797 107.285 38.6875V39.0781C107.285 39.5208 107.344 39.931 107.461 40.3086C107.585 40.6862 107.764 41.015 107.998 41.2949C108.239 41.5684 108.525 41.7832 108.857 41.9395C109.196 42.0892 109.58 42.1641 110.01 42.1641C110.55 42.1641 111.038 42.0599 111.475 41.8516C111.917 41.6367 112.301 41.321 112.627 40.9043L113.926 42.252C113.704 42.5775 113.405 42.89 113.027 43.1895C112.656 43.4889 112.207 43.7331 111.68 43.9219C111.152 44.1042 110.544 44.1953 109.854 44.1953Z" fill="white"/>
<path fill-rule="evenodd" clip-rule="evenodd" d="M46.65 83.5434V60.3648C46.65 58.2304 48.3729 56.5017 50.5 56.5017H81.3C83.4175 56.5017 85.15 58.2401 85.15 60.3648V83.5434C85.15 85.6681 83.4175 87.4065 81.3 87.4065H50.5C48.3825 87.4065 46.65 85.6681 46.65 83.5434ZM63.975 68.091C63.975 65.9566 62.2521 64.2279 60.125 64.2279C57.9979 64.2279 56.275 65.9566 56.275 68.091C56.275 70.2253 57.9979 71.9541 60.125 71.9541C62.2521 71.9541 63.975 70.2253 63.975 68.091ZM60.125 75.0445C58.1981 75.0445 54.35 76.0142 54.35 77.9419V79.6803H65.9V77.9419C65.9 76.0142 62.0519 75.0445 60.125 75.0445ZM69.75 70.0226H77.45V66.1594H69.75V70.0226ZM69.75 77.7487H77.45V73.8856H69.75V77.7487ZM50.5 83.5434H81.3V60.3648H50.5V83.5434ZM68.7108 104.163L84.7291 94.7295C85.1537 94.3792 85.4 93.859 85.4 93.3049C85.4 91.9963 84.0838 91.1042 82.8762 91.5896L82.8752 91.59L70.8741 96.4061C70.7251 97.1159 70.4406 97.7642 70.0021 98.3299C69.3251 99.2032 68.4144 99.7074 67.5192 100.007C65.8876 100.553 63.839 100.552 62.1704 100.551H62H56.6V96.9388H62C63.9021 96.9388 65.3684 96.9186 66.3808 96.5799C66.8356 96.4278 67.0499 96.2547 67.1604 96.1121C67.2589 95.9852 67.4 95.7234 67.4 95.1327C67.4 94.5419 67.2589 94.2802 67.1604 94.1532C67.0499 94.0106 66.8356 93.8375 66.3808 93.6854C65.3684 93.3468 63.9021 93.3265 62 93.3265H61.9895H61.979H61.9686H61.9581H61.9478H61.9374H61.9272H61.9169H61.9067H61.8966H61.8864H61.8763H61.8663H61.8562H61.8463H61.8363H61.8264H61.8165H61.8067H61.7969H61.7871H61.7773H61.7677H61.758H61.7484H61.7388H61.7292H61.7197H61.7101H61.7007H61.6912H61.6818H61.6725H61.6631H61.6538H61.6445H61.6353H61.626H61.6168H61.6077H61.5985H61.5894H61.5803H61.5712H61.5622H61.5532H61.5442H61.5353H61.5264H61.5174H61.5086H61.4997H61.4909H61.4821H61.4733H61.4646H61.4558H61.4471H61.4384H61.4298H61.4211H61.4125H61.4039H61.3953H61.3867H61.3782H61.3697H61.3612H61.3527H61.3443H61.3358H61.3274H61.319H61.3106H61.3022H61.2939H61.2855H61.2772H61.2689H61.2606H61.2523H61.2441H61.2358H61.2276H61.2194H61.2112H61.203H61.1949H61.1867H61.1785H61.1704H61.1623H61.1542H61.1461H61.138H61.1299H61.1218H61.1137H61.1057H61.0977H61.0896H61.0816H61.0736H61.0656H61.0576H61.0496H61.0416H61.0336H61.0257H61.0177H61.0098H61.0018H60.9939H60.9859H60.978H60.97H60.9621H60.9541H60.9462H60.9383H60.9304H60.9225H60.9145H60.9066H60.8988H60.8908H60.8829H60.875H60.8671H60.8592H60.8512H60.8434H60.8355H60.8275H60.8196H60.8117H60.8038H60.7959H60.7879H60.78H60.772H60.7641H60.7561H60.7482H60.7402H60.7323H60.7243H60.7164H60.7084H60.7004H60.6924H60.6844H60.6764H60.6684H60.6604H60.6523H60.6443H60.6363H60.6282H60.6201H60.612H60.6039H60.5958H60.5877H60.5796H60.5715H60.5633H60.5551H60.547H60.5388H60.5306H60.5224H60.5142H60.5059H60.4977H60.4894H60.4811H60.4728H60.4645H60.4561H60.4478H60.4394H60.431H60.4226H60.4142H60.4057H60.3973H60.3888H60.3803H60.3718H60.3633H60.3547H60.3461H60.3375H60.3289H60.3202H60.3116H60.3029H60.2942H60.2854H60.2767H60.2679H60.2591H60.2503H60.2414H60.2326H60.2236H60.2147H60.2058H60.1968H60.1878H60.1788H60.1697H60.1606H60.1515H60.1423H60.1332H60.124H60.1147H60.1055H60.0962H60.0869H60.0775H60.0682H60.0588H60.0493H60.0399H60.0303H60.0208H60.0112H60.0016H59.992H59.9823H59.9727H59.9629H59.9531H59.9433H59.9335H59.9236H59.9137H59.9037H59.8938H59.8837H59.8737H59.8636H59.8534H59.8433H59.8331H59.8228H59.8126H59.8022H59.7919H59.7814H59.771H59.7605H59.75H59.7394H59.7288H59.7182H59.7075H59.6967H59.686H59.6751H59.6643H59.6534H59.6424H59.6314H59.6204H59.6093H59.5981H59.587H59.5758H59.5645H59.5531H59.5418H59.5304H59.5189H59.5074H59.4959H59.4843H59.4726H59.4609H59.4492H59.4373H59.4255H59.4136H59.4016H59.3896H59.3776H59.3655H59.3533H59.3411H59.3289H59.3165H59.3041H59.2917H59.2792H59.2667H59.2542H59.2415H59.2288H59.2161H59.2032H59.1904H59.1774H59.1645H59.1514H59.1383H59.1252H59.112H59.0987H59.0854H59.0719H59.0585H59.045H59.0314H59.0178H59.0041H58.9904H58.9765H58.9627H58.9488H58.9348H58.9207H58.9066H58.8924H58.8781H58.8638H58.8495H58.835H58.8205H58.8059H58.7913H58.7766H58.7618H58.7469H58.732H58.717H58.702H58.6869H58.6717H58.6565H58.6412H58.6258H58.6104H58.5948H58.5792H58.5636H58.5478H58.532H58.5162H58.5002H58.4842H58.4681H58.4519H58.4357H58.4194H58.403H58.3865H58.37H58.3534H58.3367H58.3199H58.3031H58.2862H58.2692H58.2521H58.235H58.2178H58.2004H58.1831H58.1656H58.1481H58.1305H58.1128H58.095H58.0772H58.0593H58.0413H58.0232H58.005H57.9867H57.9684H57.95H57.9315H57.9129H57.8943H57.8755H57.8567H57.8377H57.8188H57.7997H57.7805H57.7612H57.7419H57.7225H57.703H57.6834H57.6637H57.6439H57.6241H57.6041H57.5841H57.564H57.5437H57.5235H57.5031H57.4825H57.462H57.4413H57.4206H57.3997H57.3788H57.3577H57.3366H57.3154H57.2941H57.2727H57.2512H57.2296H57.208H57.1862H57.1644H57.1423H57.1203H57.0982H57.0759H57.0535H57.0311H57.0086H56.9859H56.9632H56.9404H56.9175H56.8944H56.8713H56.848H56.8248H56.8013H56.7778H56.7541H56.7304H56.7066H56.6827H56.6586H56.6345H56.6103H56.586H56.5615H56.5369H56.5123H56.4876H56.4627H56.4378H56.4127H56.3875H56.3622H56.3368H56.3113H56.2858H56.26H56.2342H56.2083H56.1823H56.1562H56.1299H56.1036H56.0771H56.0505H56.0239H55.9971H55.9702H55.9432H55.9161H55.8888H55.8615H55.834H55.8064H55.7788H55.751H55.723H55.695H55.6669H55.6387H55.6103H55.5818H55.5532H55.5245H55.4957H55.4668H55.4377H55.4085H55.3792H55.3498H55.3203H55.2906H55.2609H55.231H55.201H55.1709H55.1406H55.1103H55.0798H55.0492H55.0185H54.9876H54.9567H54.9256H54.8944H54.8631H54.8316H54.8C54.6298 93.3265 54.218 93.399 53.509 93.6722C52.8379 93.9307 52.0348 94.3155 51.1333 94.8033C49.3325 95.7779 47.2656 97.0945 45.2894 98.435C43.3197 99.7712 41.4708 101.11 40.1123 102.117C39.908 102.268 39.715 102.412 39.5346 102.547L47.607 110.647L53.6134 104.685C53.9504 104.351 54.4052 104.163 54.8792 104.163H68.7108ZM70.0021 91.9355C70.1835 92.1695 70.3385 92.4176 70.4685 92.6784L81.5374 88.2364L81.5384 88.236C85.1113 86.8005 89 89.441 89 93.3049C89 95.0272 88.192 96.6424 86.8211 97.6727C86.7672 97.7132 86.7112 97.7506 86.6532 97.7848L70.1112 107.527C69.8349 107.69 69.5203 107.776 69.2 107.776H55.619L48.8658 114.478C48.1618 115.177 47.0274 115.174 46.3272 114.471L35.5272 103.634C35.1616 103.267 34.9709 102.761 35.0036 102.243C35.0363 101.725 35.2893 101.247 35.6981 100.929L36.8 102.357C35.6981 100.929 35.6982 100.929 35.6984 100.929L35.6991 100.928L35.7014 100.926L35.7098 100.92L35.7415 100.895C35.7691 100.874 35.8096 100.843 35.8624 100.802C35.9679 100.721 36.1222 100.603 36.3196 100.452C36.7142 100.152 37.2811 99.7242 37.9737 99.211C39.3574 98.1857 41.2491 96.8155 43.2731 95.4425C45.2907 94.0739 47.4706 92.6813 49.4245 91.624C50.4004 91.0959 51.3515 90.634 52.2185 90.3C53.0476 89.9805 53.9577 89.7143 54.8 89.7143H54.8316H54.8631H54.8944H54.9256H54.9567H54.9876H55.0185H55.0492H55.0798H55.1103H55.1406H55.1709H55.201H55.231H55.2609H55.2906H55.3203H55.3498H55.3792H55.4085H55.4377H55.4668H55.4957H55.5245H55.5532H55.5818H55.6103H55.6387H55.6669H55.695H55.723H55.751H55.7788H55.8064H55.834H55.8615H55.8888H55.9161H55.9432H55.9702H55.9971H56.0239H56.0505H56.0771H56.1036H56.1299H56.1562H56.1823H56.2083H56.2342H56.26H56.2858H56.3113H56.3368H56.3622H56.3875H56.4127H56.4378H56.4627H56.4876H56.5123H56.5369H56.5615H56.586H56.6103H56.6345H56.6586H56.6827H56.7066H56.7304H56.7541H56.7778H56.8013H56.8248H56.848H56.8713H56.8944H56.9175H56.9404H56.9632H56.9859H57.0086H57.0311H57.0535H57.0759H57.0982H57.1203H57.1423H57.1644H57.1862H57.208H57.2296H57.2512H57.2727H57.2941H57.3154H57.3366H57.3577H57.3788H57.3997H57.4206H57.4413H57.462H57.4825H57.5031H57.5235H57.5437H57.564H57.5841H57.6041H57.6241H57.6439H57.6637H57.6834H57.703H57.7225H57.7419H57.7612H57.7805H57.7997H57.8188H57.8377H57.8567H57.8755H57.8943H57.9129H57.9315H57.95H57.9684H57.9867H58.005H58.0232H58.0413H58.0593H58.0772H58.095H58.1128H58.1305H58.1481H58.1656H58.1831H58.2004H58.2178H58.235H58.2521H58.2692H58.2862H58.3031H58.3199H58.3367H58.3534H58.37H58.3865H58.403H58.4194H58.4357H58.4519H58.4681H58.4842H58.5002H58.5162H58.532H58.5478H58.5636H58.5792H58.5948H58.6104H58.6258H58.6412H58.6565H58.6717H58.6869H58.702H58.717H58.732H58.7469H58.7618H58.7766H58.7913H58.8059H58.8205H58.835H58.8495H58.8638H58.8781H58.8924H58.9066H58.9207H58.9348H58.9488H58.9627H58.9765H58.9904H59.0041H59.0178H59.0314H59.045H59.0585H59.0719H59.0854H59.0987H59.112H59.1252H59.1383H59.1514H59.1645H59.1774H59.1904H59.2032H59.2161H59.2288H59.2415H59.2542H59.2667H59.2792H59.2917H59.3041H59.3165H59.3289H59.3411H59.3533H59.3655H59.3776H59.3896H59.4016H59.4136H59.4255H59.4373H59.4492H59.4609H59.4726H59.4843H59.4959H59.5074H59.5189H59.5304H59.5418H59.5531H59.5645H59.5758H59.587H59.5981H59.6093H59.6204H59.6314H59.6424H59.6534H59.6643H59.6751H59.686H59.6967H59.7075H59.7182H59.7288H59.7394H59.75H59.7605H59.771H59.7814H59.7919H59.8022H59.8126H59.8228H59.8331H59.8433H59.8534H59.8636H59.8737H59.8837H59.8938H59.9037H59.9137H59.9236H59.9335H59.9433H59.9531H59.9629H59.9727H59.9823H59.992H60.0016H60.0112H60.0208H60.0303H60.0399H60.0493H60.0588H60.0682H60.0775H60.0869H60.0962H60.1055H60.1147H60.124H60.1332H60.1423H60.1515H60.1606H60.1697H60.1788H60.1878H60.1968H60.2058H60.2147H60.2236H60.2326H60.2414H60.2503H60.2591H60.2679H60.2767H60.2854H60.2942H60.3029H60.3116H60.3202H60.3289H60.3375H60.3461H60.3547H60.3633H60.3718H60.3803H60.3888H60.3973H60.4057H60.4142H60.4226H60.431H60.4394H60.4478H60.4561H60.4645H60.4728H60.4811H60.4894H60.4977H60.5059H60.5142H60.5224H60.5306H60.5388H60.547H60.5551H60.5633H60.5715H60.5796H60.5877H60.5958H60.6039H60.612H60.6201H60.6282H60.6363H60.6443H60.6523H60.6604H60.6684H60.6764H60.6844H60.6924H60.7004H60.7084H60.7164H60.7243H60.7323H60.7402H60.7482H60.7561H60.7641H60.772H60.78H60.7879H60.7959H60.8038H60.8117H60.8196H60.8275H60.8355H60.8434H60.8512H60.8592H60.8671H60.875H60.8829H60.8908H60.8988H60.9066H60.9145H60.9225H60.9304H60.9383H60.9462H60.9541H60.9621H60.97H60.978H60.9859H60.9939H61.0018H61.0098H61.0177H61.0257H61.0336H61.0416H61.0496H61.0576H61.0656H61.0736H61.0816H61.0896H61.0977H61.1057H61.1137H61.1218H61.1299H61.138H61.1461H61.1542H61.1623H61.1704H61.1785H61.1867H61.1949H61.203H61.2112H61.2194H61.2276H61.2358H61.2441H61.2523H61.2606H61.2689H61.2772H61.2855H61.2939H61.3022H61.3106H61.319H61.3274H61.3358H61.3443H61.3527H61.3612H61.3697H61.3782H61.3867H61.3953H61.4039H61.4125H61.4211H61.4298H61.4384H61.4471H61.4558H61.4646H61.4733H61.4821H61.4909H61.4997H61.5086H61.5174H61.5264H61.5353H61.5442H61.5532H61.5622H61.5712H61.5803H61.5894H61.5985H61.6077H61.6168H61.626H61.6353H61.6445H61.6538H61.6631H61.6725H61.6818H61.6912H61.7007H61.7101H61.7197H61.7292H61.7388H61.7484H61.758H61.7677H61.7773H61.7871H61.7969H61.8067H61.8165H61.8264H61.8363H61.8463H61.8562H61.8663H61.8763H61.8864H61.8966H61.9067H61.9169H61.9272H61.9374H61.9478H61.9581H61.9686H61.979H61.9895H62L62.1704 89.7142H62.1705C63.8391 89.7136 65.8876 89.7128 67.5192 90.2585C68.4144 90.5579 69.3251 91.0621 70.0021 91.9355Z" fill="white"/>
</svg>
