<svg width="125" height="125" viewBox="0 0 125 125" fill="none" xmlns="http://www.w3.org/2000/svg">
<path d="M105 0H20C8.9543 0 0 8.9543 0 20V105C0 116.046 8.9543 125 20 125H105C116.046 125 125 116.046 125 105V20C125 8.9543 116.046 0 105 0Z" fill="#4EAED7"/>
<path fill-rule="evenodd" clip-rule="evenodd" d="M75.5714 56C69.1063 56 64 61.2494 64 67.8957V67.9003V67.9051V67.9098V67.9147V67.9195V67.9245V67.9295V67.9346V67.9397V67.9448V67.95V67.9553V67.9606V67.9659V67.9713V67.9768V67.9823V67.9879V67.9935V67.9991V68.0048V68.0106V68.0164V68.0223V68.0282V68.0341V68.0401V68.0462V68.0523V68.0584V68.0646V68.0709V68.0772V68.0835V68.0898V68.0963V68.1028V68.1093V68.1158V68.1225V68.1291V68.1358V68.1425V68.1493V68.1561V68.163V68.1699V68.1768V68.1838V68.1909V68.198V68.2051V68.2123V68.2195V68.2267V68.234V68.2413V68.2487V68.2561V68.2635V68.271V68.2785V68.2861V68.2937V68.3013V68.309V68.3168V68.3245V68.3323V68.3402V68.348V68.3559V68.3638V68.3718V68.3799V68.3879V68.396V68.4041V68.4123V68.4204V68.4287V68.437V68.4452V68.4536V68.4619V68.4703V68.4788V68.4872V68.4957V68.5043V68.5128V68.5214V68.53V68.5387V68.5473V68.5561V68.5648V68.5736V68.5824V68.5913V68.6001V68.609V68.6179V68.6269V68.6359V68.6449V68.6539V68.663V68.6721V68.6812V68.6903V68.6995V68.7087V68.7179V68.7272V68.7365V68.7458V68.7551V68.7645V68.7738V68.7833V68.7927V68.8021V68.8116V68.8211V68.8307V68.8402V68.8498V68.8594V68.869V68.8786V68.8883V68.898V68.9077V68.9174V68.9272V68.9369V68.9467V68.9565V68.9664V68.9762V68.9861V68.996V69.0059V69.0158V69.0257V69.0357V69.0457V69.0557V69.0657V69.0757V69.0858V69.0958V69.1059V69.116V69.1261V69.1363V69.1464V69.1565V69.1668V69.1769V69.1871V69.1973V69.2076V69.2178V69.2281V69.2384V69.2486V69.2589V69.2693V69.2796V69.2899V69.3003V69.3106V69.321V69.3314V69.3418V69.3522V69.3626V69.373V69.3835V69.3939V69.4043V69.4148V69.4253V69.4357V69.4463V69.4567V69.4672V69.4777V69.4882V69.4988V69.5093V69.5199V69.5304V69.5409V69.5515V69.562V69.5726V69.5832V69.5938V69.6044V69.6149V69.6255V69.6361V69.6467V69.6573V69.6679V69.6785V69.6891V69.6997V69.7104V69.721V69.7316V69.7422V69.7528V69.7635V69.7741V69.7847V69.7953V69.8059V69.8166V69.8272V69.8378V69.8484V69.859V69.8696V69.8783C61.8703 69.8783 60.1429 71.6541 60.1429 73.8435V81.2783H40.8571C38.7261 81.2783 37 83.0527 37 85.2435V109.035C37 111.216 38.7357 113 40.8571 113H71.7143C73.8357 113 75.5714 111.216 75.5714 109.035V97.6348H87.1429C89.2725 97.6348 91 95.8589 91 93.6696V73.8435C91 71.6541 89.2725 69.8783 87.1429 69.8783V69.8696V69.859V69.8484V69.8378V69.8272V69.8166V69.8059V69.7953V69.7847V69.7741V69.7635V69.7528V69.7422V69.7316V69.721V69.7104V69.6997V69.6891V69.6785V69.6679V69.6573V69.6467V69.6361V69.6255V69.6149V69.6044V69.5938V69.5832V69.5726V69.562V69.5515V69.5409V69.5304V69.5199V69.5093V69.4988V69.4882V69.4777V69.4672V69.4567V69.4463V69.4357V69.4253V69.4148V69.4043V69.3939V69.3835V69.373V69.3626V69.3522V69.3418V69.3314V69.321V69.3106V69.3003V69.2899V69.2796V69.2693V69.2589V69.2486V69.2384V69.2281V69.2178V69.2076V69.1973V69.1871V69.1769V69.1668V69.1565V69.1464V69.1363V69.1261V69.116V69.1059V69.0958V69.0858V69.0757V69.0657V69.0557V69.0457V69.0357V69.0257V69.0158V69.0059V68.996V68.9861V68.9762V68.9664V68.9565V68.9467V68.9369V68.9272V68.9174V68.9077V68.898V68.8883V68.8786V68.869V68.8594V68.8498V68.8402V68.8307V68.8211V68.8116V68.8021V68.7927V68.7833V68.7738V68.7645V68.7551V68.7458V68.7365V68.7272V68.7179V68.7087V68.6995V68.6903V68.6812V68.6721V68.663V68.6539V68.6449V68.6359V68.6269V68.6179V68.609V68.6001V68.5913V68.5824V68.5736V68.5648V68.5561V68.5473V68.5387V68.53V68.5214V68.5128V68.5043V68.4957V68.4872V68.4788V68.4703V68.4619V68.4536V68.4452V68.437V68.4287V68.4204V68.4123V68.4041V68.396V68.3879V68.3799V68.3718V68.3638V68.3559V68.348V68.3402V68.3323V68.3245V68.3168V68.309V68.3013V68.2937V68.2861V68.2785V68.271V68.2635V68.2561V68.2487V68.2413V68.234V68.2267V68.2195V68.2123V68.2051V68.198V68.1909V68.1838V68.1768V68.1699V68.163V68.1561V68.1493V68.1425V68.1358V68.1291V68.1225V68.1158V68.1093V68.1028V68.0963V68.0898V68.0835V68.0772V68.0709V68.0646V68.0584V68.0523V68.0462V68.0401V68.0341V68.0282V68.0223V68.0164V68.0106V68.0048V67.9991V67.9935V67.9879V67.9823V67.9768V67.9713V67.9659V67.9606V67.9553V67.95V67.9448V67.9397V67.9346V67.9295V67.9245V67.9195V67.9147V67.9098V67.9051V67.9003V67.8957C87.1429 61.2494 82.0365 56 75.5714 56ZM71.7143 97.6348H64C61.8703 97.6348 60.1429 95.8589 60.1429 93.6696V85.2435H40.8571V109.035H71.7143V97.6348ZM83.2857 69.8696V69.8783H67.8571V69.8696V69.859V69.8484V69.8378V69.8272V69.8166V69.8059V69.7953V69.7847V69.7741V69.7635V69.7528V69.7422V69.7316V69.721V69.7104V69.6997V69.6891V69.6785V69.6679V69.6573V69.6467V69.6361V69.6255V69.6149V69.6044V69.5938V69.5832V69.5726V69.562V69.5515V69.5409V69.5304V69.5199V69.5093V69.4988V69.4882V69.4777V69.4672V69.4567V69.4463V69.4357V69.4253V69.4148V69.4043V69.3939V69.3835V69.373V69.3626V69.3522V69.3418V69.3314V69.321V69.3106V69.3003V69.2899V69.2796V69.2693V69.2589V69.2486V69.2384V69.2281V69.2178V69.2076V69.1973V69.1871V69.1769V69.1668V69.1565V69.1464V69.1363V69.1261V69.116V69.1059V69.0958V69.0858V69.0757V69.0657V69.0557V69.0457V69.0357V69.0257V69.0158V69.0059V68.996V68.9861V68.9762V68.9664V68.9565V68.9467V68.9369V68.9272V68.9174V68.9077V68.898V68.8883V68.8786V68.869V68.8594V68.8498V68.8402V68.8307V68.8211V68.8116V68.8021V68.7927V68.7833V68.7738V68.7645V68.7551V68.7458V68.7365V68.7272V68.7179V68.7087V68.6995V68.6903V68.6812V68.6721V68.663V68.6539V68.6449V68.6359V68.6269V68.6179V68.609V68.6001V68.5913V68.5824V68.5736V68.5648V68.5561V68.5473V68.5387V68.53V68.5214V68.5128V68.5043V68.4957V68.4872V68.4788V68.4703V68.4619V68.4536V68.4452V68.437V68.4287V68.4204V68.4123V68.4041V68.396V68.3879V68.3799V68.3718V68.3638V68.3559V68.348V68.3402V68.3323V68.3245V68.3168V68.309V68.3013V68.2937V68.2861V68.2785V68.271V68.2635V68.2561V68.2487V68.2413V68.234V68.2267V68.2195V68.2123V68.2051V68.198V68.1909V68.1838V68.1768V68.1699V68.163V68.1561V68.1493V68.1425V68.1358V68.1291V68.1225V68.1158V68.1093V68.1028V68.0963V68.0898V68.0835V68.0772V68.0709V68.0646V68.0584V68.0523V68.0462V68.0401V68.0341V68.0282V68.0223V68.0164V68.0106V68.0048V67.9991V67.9935V67.9879V67.9823V67.9768V67.9713V67.9659V67.9606V67.9553V67.95V67.9448V67.9397V67.9346V67.9295V67.9245V67.9195V67.9147V67.9098V67.9051V67.9003V67.8957C67.8571 63.4393 71.2365 59.9652 75.5714 59.9652C79.9063 59.9652 83.2857 63.4393 83.2857 67.8957V67.9003V67.9051V67.9098V67.9147V67.9195V67.9245V67.9295V67.9346V67.9397V67.9448V67.95V67.9553V67.9606V67.9659V67.9713V67.9768V67.9823V67.9879V67.9935V67.9991V68.0048V68.0106V68.0164V68.0223V68.0282V68.0341V68.0401V68.0462V68.0523V68.0584V68.0646V68.0709V68.0772V68.0835V68.0898V68.0963V68.1028V68.1093V68.1158V68.1225V68.1291V68.1358V68.1425V68.1493V68.1561V68.163V68.1699V68.1768V68.1838V68.1909V68.198V68.2051V68.2123V68.2195V68.2267V68.234V68.2413V68.2487V68.2561V68.2635V68.271V68.2785V68.2861V68.2937V68.3013V68.309V68.3168V68.3245V68.3323V68.3402V68.348V68.3559V68.3638V68.3718V68.3799V68.3879V68.396V68.4041V68.4123V68.4204V68.4287V68.437V68.4452V68.4536V68.4619V68.4703V68.4788V68.4872V68.4957V68.5043V68.5128V68.5214V68.53V68.5387V68.5473V68.5561V68.5648V68.5736V68.5824V68.5913V68.6001V68.609V68.6179V68.6269V68.6359V68.6449V68.6539V68.663V68.6721V68.6812V68.6903V68.6995V68.7087V68.7179V68.7272V68.7365V68.7458V68.7551V68.7645V68.7738V68.7833V68.7927V68.8021V68.8116V68.8211V68.8307V68.8402V68.8498V68.8594V68.869V68.8786V68.8883V68.898V68.9077V68.9174V68.9272V68.9369V68.9467V68.9565V68.9664V68.9762V68.9861V68.996V69.0059V69.0158V69.0257V69.0357V69.0457V69.0557V69.0657V69.0757V69.0858V69.0958V69.1059V69.116V69.1261V69.1363V69.1464V69.1565V69.1668V69.1769V69.1871V69.1973V69.2076V69.2178V69.2281V69.2384V69.2486V69.2589V69.2693V69.2796V69.2899V69.3003V69.3106V69.321V69.3314V69.3418V69.3522V69.3626V69.373V69.3835V69.3939V69.4043V69.4148V69.4253V69.4357V69.4463V69.4567V69.4672V69.4777V69.4882V69.4988V69.5093V69.5199V69.5304V69.5409V69.5515V69.562V69.5726V69.5832V69.5938V69.6044V69.6149V69.6255V69.6361V69.6467V69.6573V69.6679V69.6785V69.6891V69.6997V69.7104V69.721V69.7316V69.7422V69.7528V69.7635V69.7741V69.7847V69.7953V69.8059V69.8166V69.8272V69.8378V69.8484V69.859V69.8696ZM64 73.8435H65.9286H85.2143H87.1429V93.6696H64V73.8435ZM79.4286 83.7565C79.4286 85.9374 77.6929 87.7217 75.5714 87.7217C73.45 87.7217 71.7143 85.9374 71.7143 83.7565C71.7143 81.5757 73.45 79.7913 75.5714 79.7913C77.6929 79.7913 79.4286 81.5757 79.4286 83.7565ZM50.5 89.2087C52.6636 89.2087 54.3571 90.831 54.3571 93.1739C54.3571 95.5168 52.6636 97.1391 50.5 97.1391C48.3364 97.1391 46.6429 95.5168 46.6429 93.1739C46.6429 90.831 48.3364 89.2087 50.5 89.2087ZM44.7143 103.335C44.7143 101.219 48.6284 100.149 50.5884 100.149C52.5484 100.149 56.2857 101.219 56.2857 103.335V105.07H44.7143V103.335ZM60.1429 99.1217V103.087H67.8571V99.1217H60.1429Z" fill="white"/>
<path d="M6.6084 22.8477H8.7583L12.3535 32.748L15.9397 22.8477H18.0986L13.2117 36H11.4863L6.6084 22.8477ZM5.52441 22.8477H7.62915L8.00854 31.9441V36H5.52441V22.8477ZM17.0688 22.8477H19.1826V36H16.6985V31.9441L17.0688 22.8477ZM25.9214 36.1807C25.1807 36.1807 24.5152 36.0602 23.925 35.8193C23.3349 35.5785 22.832 35.2442 22.4165 34.8167C22.007 34.3831 21.6908 33.8802 21.468 33.3081C21.2512 32.73 21.1428 32.1097 21.1428 31.4473V31.0859C21.1428 30.3332 21.2512 29.6497 21.468 29.0354C21.6848 28.4151 21.9919 27.8822 22.3894 27.4365C22.7869 26.9909 23.2626 26.6476 23.8167 26.4067C24.3707 26.1659 24.9819 26.0454 25.6504 26.0454C26.3429 26.0454 26.9542 26.1628 27.4841 26.3977C28.0141 26.6265 28.4567 26.9517 28.812 27.3733C29.1673 27.7948 29.4353 28.3007 29.616 28.8909C29.7966 29.475 29.887 30.1224 29.887 30.833V31.8357H22.2268V30.1917H27.5383V30.011C27.5263 29.6316 27.454 29.2853 27.3215 28.9722C27.189 28.653 26.9843 28.4001 26.7073 28.2134C26.4303 28.0207 26.0719 27.9243 25.6323 27.9243C25.277 27.9243 24.9669 28.0026 24.7019 28.1592C24.443 28.3097 24.2262 28.5265 24.0515 28.8096C23.8829 29.0866 23.7564 29.4178 23.6721 29.8032C23.5878 30.1886 23.5457 30.6162 23.5457 31.0859V31.4473C23.5457 31.8568 23.5999 32.2362 23.7083 32.5854C23.8227 32.9347 23.9883 33.2389 24.2051 33.4978C24.4279 33.7507 24.6929 33.9495 25 34.094C25.3132 34.2325 25.6685 34.3018 26.0659 34.3018C26.5658 34.3018 27.0174 34.2054 27.4209 34.0127C27.8304 33.814 28.1857 33.5219 28.4868 33.1365L29.6882 34.3831C29.4835 34.6842 29.2065 34.9732 28.8572 35.2502C28.5139 35.5273 28.0984 35.7531 27.6106 35.9277C27.1228 36.0964 26.5597 36.1807 25.9214 36.1807ZM34.0151 22.125V36H31.6213V22.125H34.0151ZM42.1541 33.9224V22.125H44.5569V36H42.3889L42.1541 33.9224ZM35.876 31.2305V31.0408C35.876 30.294 35.9603 29.6165 36.1289 29.0083C36.3035 28.394 36.5565 27.8671 36.8877 27.4275C37.2189 26.9879 37.6194 26.6476 38.0891 26.4067C38.5649 26.1659 39.1038 26.0454 39.7061 26.0454C40.2902 26.0454 40.7991 26.1628 41.2327 26.3977C41.6723 26.6326 42.0457 26.9668 42.3528 27.4004C42.6659 27.834 42.9159 28.3489 43.1025 28.9451C43.2892 29.5352 43.4247 30.1856 43.509 30.8962V31.4111C43.4247 32.1037 43.2892 32.739 43.1025 33.3171C42.9159 33.8953 42.6659 34.4011 42.3528 34.8347C42.0457 35.2623 41.6723 35.5935 41.2327 35.8284C40.7931 36.0632 40.2782 36.1807 39.688 36.1807C39.0918 36.1807 38.5558 36.0572 38.0801 35.8103C37.6104 35.5634 37.2099 35.2171 36.8787 34.7715C36.5535 34.3258 36.3035 33.8019 36.1289 33.1997C35.9603 32.5975 35.876 31.9411 35.876 31.2305ZM38.2698 31.0408V31.2305C38.2698 31.652 38.3059 32.0465 38.3782 32.4138C38.4504 32.7812 38.5679 33.1064 38.7305 33.3894C38.8931 33.6664 39.1008 33.8832 39.3538 34.0398C39.6127 34.1964 39.9259 34.2747 40.2932 34.2747C40.7629 34.2747 41.1484 34.1723 41.4495 33.9675C41.7566 33.7568 41.9945 33.4707 42.1631 33.1094C42.3317 32.742 42.4401 32.3295 42.4883 31.8718V30.4536C42.4642 30.0923 42.401 29.7581 42.2986 29.4509C42.2022 29.1438 42.0637 28.8788 41.8831 28.656C41.7084 28.4332 41.4916 28.2585 41.2327 28.1321C40.9737 28.0056 40.6666 27.9424 40.3113 27.9424C39.9439 27.9424 39.6308 28.0237 39.3718 28.1863C39.1129 28.3429 38.9021 28.5627 38.7395 28.8457C38.5769 29.1287 38.4565 29.4569 38.3782 29.8303C38.3059 30.2037 38.2698 30.6072 38.2698 31.0408ZM51.106 36.1807C50.3652 36.1807 49.6998 36.0602 49.1096 35.8193C48.5194 35.5785 48.0166 35.2442 47.6011 34.8167C47.1916 34.3831 46.8754 33.8802 46.6526 33.3081C46.4358 32.73 46.3274 32.1097 46.3274 31.4473V31.0859C46.3274 30.3332 46.4358 29.6497 46.6526 29.0354C46.8694 28.4151 47.1765 27.8822 47.574 27.4365C47.9714 26.9909 48.4472 26.6476 49.0012 26.4067C49.5553 26.1659 50.1665 26.0454 50.835 26.0454C51.5275 26.0454 52.1388 26.1628 52.6687 26.3977C53.1986 26.6265 53.6413 26.9517 53.9966 27.3733C54.3519 27.7948 54.6199 28.3007 54.8005 28.8909C54.9812 29.475 55.0715 30.1224 55.0715 30.833V31.8357H47.4114V30.1917H52.7229V30.011C52.7109 29.6316 52.6386 29.2853 52.5061 28.9722C52.3736 28.653 52.1689 28.4001 51.8918 28.2134C51.6148 28.0207 51.2565 27.9243 50.8169 27.9243C50.4616 27.9243 50.1514 28.0026 49.8865 28.1592C49.6275 28.3097 49.4107 28.5265 49.2361 28.8096C49.0675 29.0866 48.941 29.4178 48.8567 29.8032C48.7724 30.1886 48.7302 30.6162 48.7302 31.0859V31.4473C48.7302 31.8568 48.7844 32.2362 48.8928 32.5854C49.0072 32.9347 49.1729 33.2389 49.3896 33.4978C49.6125 33.7507 49.8774 33.9495 50.1846 34.094C50.4977 34.2325 50.853 34.3018 51.2505 34.3018C51.7503 34.3018 52.202 34.2054 52.6055 34.0127C53.015 33.814 53.3703 33.5219 53.6714 33.1365L54.8728 34.3831C54.6681 34.6842 54.391 34.9732 54.0417 35.2502C53.6985 35.5273 53.283 35.7531 52.7952 35.9277C52.3074 36.0964 51.7443 36.1807 51.106 36.1807ZM59.0552 28.2224V36H56.6704V26.2261H58.9287L59.0552 28.2224ZM62.0271 26.1628L61.991 28.385C61.8585 28.3609 61.7079 28.3429 61.5393 28.3308C61.3767 28.3188 61.2231 28.3127 61.0786 28.3127C60.7113 28.3127 60.3891 28.3639 60.1121 28.4663C59.835 28.5627 59.6032 28.7042 59.4165 28.8909C59.2358 29.0776 59.0973 29.3064 59.001 29.5774C58.9046 29.8424 58.8504 30.1435 58.8384 30.4807L58.3235 30.4175C58.3235 29.7972 58.3867 29.2221 58.5132 28.6921C58.6396 28.1622 58.8233 27.6985 59.0642 27.301C59.3051 26.9036 59.6062 26.5964 59.9675 26.3796C60.3349 26.1568 60.7564 26.0454 61.2322 26.0454C61.3647 26.0454 61.5062 26.0575 61.6567 26.0815C61.8133 26.0996 61.9368 26.1267 62.0271 26.1628ZM67.5464 36.1807C66.8057 36.1807 66.1402 36.0602 65.55 35.8193C64.9599 35.5785 64.457 35.2442 64.0415 34.8167C63.632 34.3831 63.3158 33.8802 63.093 33.3081C62.8762 32.73 62.7678 32.1097 62.7678 31.4473V31.0859C62.7678 30.3332 62.8762 29.6497 63.093 29.0354C63.3098 28.4151 63.6169 27.8822 64.0144 27.4365C64.4119 26.9909 64.8876 26.6476 65.4417 26.4067C65.9957 26.1659 66.6069 26.0454 67.2754 26.0454C67.9679 26.0454 68.5792 26.1628 69.1091 26.3977C69.6391 26.6265 70.0817 26.9517 70.437 27.3733C70.7923 27.7948 71.0603 28.3007 71.241 28.8909C71.4216 29.475 71.512 30.1224 71.512 30.833V31.8357H63.8518V30.1917H69.1633V30.011C69.1513 29.6316 69.079 29.2853 68.9465 28.9722C68.814 28.653 68.6093 28.4001 68.3323 28.2134C68.0553 28.0207 67.6969 27.9243 67.2573 27.9243C66.902 27.9243 66.5919 28.0026 66.3269 28.1592C66.068 28.3097 65.8512 28.5265 65.6765 28.8096C65.5079 29.0866 65.3814 29.4178 65.2971 29.8032C65.2128 30.1886 65.1707 30.6162 65.1707 31.0859V31.4473C65.1707 31.8568 65.2249 32.2362 65.3333 32.5854C65.4477 32.9347 65.6133 33.2389 65.8301 33.4978C66.0529 33.7507 66.3179 33.9495 66.625 34.094C66.9382 34.2325 67.2935 34.3018 67.6909 34.3018C68.1908 34.3018 68.6424 34.2054 69.0459 34.0127C69.4554 33.814 69.8107 33.5219 70.1118 33.1365L71.3132 34.3831C71.1085 34.6842 70.8315 34.9732 70.4822 35.2502C70.1389 35.5273 69.7234 35.7531 69.2356 35.9277C68.7478 36.0964 68.1847 36.1807 67.5464 36.1807ZM79.3257 26.2261H81.4937V35.7019C81.4937 36.5872 81.3009 37.3369 80.9155 37.9512C80.5361 38.5715 80.0032 39.0412 79.3167 39.3604C78.6301 39.6855 77.8322 39.8481 76.9229 39.8481C76.5314 39.8481 76.1069 39.7939 75.6492 39.6855C75.1975 39.5771 74.7609 39.4055 74.3394 39.1707C73.9238 38.9418 73.5776 38.6437 73.3005 38.2764L74.3755 36.8672C74.7007 37.2466 75.068 37.5326 75.4775 37.7253C75.887 37.9241 76.3297 38.0234 76.8054 38.0234C77.2872 38.0234 77.6967 37.9331 78.0339 37.7524C78.3772 37.5778 78.6392 37.3188 78.8198 36.9756C79.0065 36.6383 79.0999 36.2228 79.0999 35.729V28.4573L79.3257 26.2261ZM72.7224 31.2305V31.0408C72.7224 30.294 72.8127 29.6165 72.9934 29.0083C73.1741 28.394 73.433 27.8671 73.7703 27.4275C74.1135 26.9879 74.526 26.6476 75.0078 26.4067C75.4956 26.1659 76.0436 26.0454 76.6519 26.0454C77.2962 26.0454 77.8382 26.1628 78.2778 26.3977C78.7235 26.6326 79.0908 26.9668 79.3799 27.4004C79.675 27.834 79.9038 28.3489 80.0664 28.9451C80.235 29.5352 80.3645 30.1856 80.4548 30.8962V31.4111C80.3705 32.1037 80.235 32.739 80.0483 33.3171C79.8677 33.8953 79.6268 34.4011 79.3257 34.8347C79.0246 35.2623 78.6512 35.5935 78.2056 35.8284C77.7599 36.0632 77.236 36.1807 76.6338 36.1807C76.0316 36.1807 75.4896 36.0572 75.0078 35.8103C74.526 35.5634 74.1135 35.2171 73.7703 34.7715C73.433 34.3258 73.1741 33.8019 72.9934 33.1997C72.8127 32.5975 72.7224 31.9411 72.7224 31.2305ZM75.1072 31.0408V31.2305C75.1072 31.652 75.1493 32.0465 75.2336 32.4138C75.318 32.7812 75.4474 33.1064 75.6221 33.3894C75.7967 33.6664 76.0165 33.8832 76.2815 34.0398C76.5465 34.1964 76.8626 34.2747 77.23 34.2747C77.7238 34.2747 78.1273 34.1723 78.4404 33.9675C78.7596 33.7568 79.0005 33.4707 79.1631 33.1094C79.3317 32.742 79.4401 32.3295 79.4883 31.8718V30.4536C79.4582 30.0923 79.3919 29.7581 79.2896 29.4509C79.1932 29.1438 79.0577 28.8788 78.8831 28.656C78.7084 28.4332 78.4856 28.2585 78.2146 28.1321C77.9436 28.0056 77.6214 27.9424 77.248 27.9424C76.8867 27.9424 76.5706 28.0237 76.2996 28.1863C76.0286 28.3429 75.8057 28.5627 75.6311 28.8457C75.4565 29.1287 75.324 29.4569 75.2336 29.8303C75.1493 30.2037 75.1072 30.6072 75.1072 31.0408ZM86.1729 26.2261V36H83.7791V26.2261H86.1729ZM83.6165 23.6697C83.6165 23.3144 83.7369 23.0193 83.9778 22.7844C84.2247 22.5496 84.5559 22.4321 84.9714 22.4321C85.387 22.4321 85.7152 22.5496 85.9561 22.7844C86.203 23.0193 86.3264 23.3144 86.3264 23.6697C86.3264 24.019 86.203 24.311 85.9561 24.5459C85.7152 24.7808 85.387 24.8982 84.9714 24.8982C84.5559 24.8982 84.2247 24.7808 83.9778 24.5459C83.7369 24.311 83.6165 24.019 83.6165 23.6697ZM93.824 33.3262C93.824 33.1214 93.7698 32.9377 93.6614 32.7751C93.553 32.6125 93.3482 32.465 93.0471 32.3325C92.752 32.194 92.3184 32.0645 91.7463 31.9441C91.2405 31.8357 90.7738 31.7002 90.3462 31.5376C89.9186 31.375 89.5513 31.1793 89.2441 30.9504C88.937 30.7156 88.6961 30.4416 88.5215 30.1284C88.3529 29.8092 88.2686 29.4419 88.2686 29.0264C88.2686 28.6229 88.3559 28.2435 88.5305 27.8882C88.7052 27.5269 88.9581 27.2107 89.2893 26.9397C89.6205 26.6627 90.024 26.4459 90.4998 26.2893C90.9755 26.1267 91.5115 26.0454 92.1077 26.0454C92.9387 26.0454 93.6523 26.1809 94.2485 26.4519C94.8507 26.7229 95.3114 27.0963 95.6306 27.572C95.9498 28.0417 96.1094 28.5717 96.1094 29.1619H93.7246C93.7246 28.9029 93.6644 28.6681 93.5439 28.4573C93.4295 28.2465 93.2519 28.0779 93.011 27.9514C92.7701 27.8189 92.466 27.7527 92.0986 27.7527C91.7674 27.7527 91.4874 27.8069 91.2585 27.9153C91.0357 28.0237 90.8671 28.1652 90.7527 28.3398C90.6383 28.5145 90.5811 28.7072 90.5811 28.918C90.5811 29.0745 90.6112 29.2161 90.6714 29.3425C90.7376 29.463 90.843 29.5744 90.9875 29.6768C91.1321 29.7791 91.3278 29.8725 91.5747 29.9568C91.8276 30.0411 92.1378 30.1224 92.5051 30.2007C93.2338 30.3452 93.8691 30.5379 94.4111 30.7788C94.9591 31.0137 95.3867 31.3268 95.6938 31.7183C96.001 32.1097 96.1545 32.6095 96.1545 33.2178C96.1545 33.6514 96.0612 34.0488 95.8745 34.4102C95.6878 34.7655 95.4168 35.0756 95.0615 35.3406C94.7062 35.6056 94.2817 35.8133 93.7878 35.9639C93.294 36.1084 92.737 36.1807 92.1167 36.1807C91.2194 36.1807 90.4606 36.0211 89.8403 35.7019C89.2201 35.3767 88.7503 34.9672 88.4312 34.4734C88.112 33.9736 87.9524 33.4556 87.9524 32.9197H90.2378C90.2559 33.2991 90.3582 33.6032 90.5449 33.832C90.7316 34.0609 90.9665 34.2265 91.2495 34.3289C91.5386 34.4252 91.8427 34.4734 92.1619 34.4734C92.5232 34.4734 92.8273 34.4252 93.0742 34.3289C93.3211 34.2265 93.5078 34.091 93.6343 33.9224C93.7607 33.7477 93.824 33.549 93.824 33.3262ZM102.595 26.2261V27.9424H96.9946V26.2261H102.595ZM98.4941 23.8232H100.888V33.1816C100.888 33.4707 100.927 33.6935 101.005 33.8501C101.084 34.0067 101.201 34.1121 101.358 34.1663C101.514 34.2205 101.701 34.2476 101.918 34.2476C102.074 34.2476 102.219 34.2385 102.351 34.2205C102.484 34.2024 102.595 34.1843 102.686 34.1663L102.695 35.9548C102.496 36.0211 102.27 36.0753 102.017 36.1174C101.77 36.1596 101.49 36.1807 101.177 36.1807C100.641 36.1807 100.171 36.0903 99.7678 35.9097C99.3643 35.723 99.0512 35.4249 98.8284 35.0154C98.6056 34.5999 98.4941 34.0518 98.4941 33.3713V23.8232ZM108.575 36.1807C107.834 36.1807 107.169 36.0602 106.579 35.8193C105.989 35.5785 105.486 35.2442 105.07 34.8167C104.661 34.3831 104.345 33.8802 104.122 33.3081C103.905 32.73 103.797 32.1097 103.797 31.4473V31.0859C103.797 30.3332 103.905 29.6497 104.122 29.0354C104.339 28.4151 104.646 27.8822 105.043 27.4365C105.441 26.9909 105.916 26.6476 106.47 26.4067C107.024 26.1659 107.636 26.0454 108.304 26.0454C108.997 26.0454 109.608 26.1628 110.138 26.3977C110.668 26.6265 111.111 26.9517 111.466 27.3733C111.821 27.7948 112.089 28.3007 112.27 28.8909C112.45 29.475 112.541 30.1224 112.541 30.833V31.8357H104.881V30.1917H110.192V30.011C110.18 29.6316 110.108 29.2853 109.975 28.9722C109.843 28.653 109.638 28.4001 109.361 28.2134C109.084 28.0207 108.726 27.9243 108.286 27.9243C107.931 27.9243 107.621 28.0026 107.356 28.1592C107.097 28.3097 106.88 28.5265 106.705 28.8096C106.537 29.0866 106.41 29.4178 106.326 29.8032C106.242 30.1886 106.199 30.6162 106.199 31.0859V31.4473C106.199 31.8568 106.254 32.2362 106.362 32.5854C106.476 32.9347 106.642 33.2389 106.859 33.4978C107.082 33.7507 107.347 33.9495 107.654 34.094C107.967 34.2325 108.322 34.3018 108.72 34.3018C109.22 34.3018 109.671 34.2054 110.075 34.0127C110.484 33.814 110.84 33.5219 111.141 33.1365L112.342 34.3831C112.137 34.6842 111.86 34.9732 111.511 35.2502C111.168 35.5273 110.752 35.7531 110.264 35.9277C109.777 36.0964 109.214 36.1807 108.575 36.1807ZM116.524 28.2224V36H114.14V26.2261H116.398L116.524 28.2224ZM119.496 26.1628L119.46 28.385C119.328 28.3609 119.177 28.3429 119.009 28.3308C118.846 28.3188 118.692 28.3127 118.548 28.3127C118.181 28.3127 117.858 28.3639 117.581 28.4663C117.304 28.5627 117.072 28.7042 116.886 28.8909C116.705 29.0776 116.567 29.3064 116.47 29.5774C116.374 29.8424 116.32 30.1435 116.308 30.4807L115.793 30.4175C115.793 29.7972 115.856 29.2221 115.982 28.6921C116.109 28.1622 116.293 27.6985 116.533 27.301C116.774 26.9036 117.075 26.5964 117.437 26.3796C117.804 26.1568 118.226 26.0454 118.701 26.0454C118.834 26.0454 118.975 26.0575 119.126 26.0815C119.283 26.0996 119.406 26.1267 119.496 26.1628Z" fill="white"/>
</svg>
