<svg width="128" height="128" viewBox="0 0 128 128" fill="none" xmlns="http://www.w3.org/2000/svg">
<path d="M125.744 127.744C126.848 127.744 127.744 126.848 127.744 125.744V107.744C127.744 106.639 126.848 105.744 125.744 105.744C124.639 105.744 123.744 106.639 123.744 107.744V123.744H107.744C106.639 123.744 105.744 124.639 105.744 125.744C105.744 126.848 106.639 127.744 107.744 127.744H125.744ZM0.585815 3.41424L124.329 127.158L127.158 124.329L3.41424 0.585815L0.585815 3.41424Z" fill="black"/>
<path fill-rule="evenodd" clip-rule="evenodd" d="M100.452 11.8886L99.0145 10.2711L97.3347 11.6355L91.6393 16.2615L81.9346 19.2427L81.8911 19.2561L81.8481 19.2712C79.8329 19.9802 78.2161 21.5189 77.4123 23.5L77.412 23.5007L75.4542 28.3176H67.986C65.9399 28.3176 64.2826 29.9734 64.2826 32.0176V54.2176C64.2826 56.2526 65.9491 57.9176 67.986 57.9176H97.6128C99.6496 57.9176 101.316 56.2526 101.316 54.2176V41.0465C102.121 41.4034 103.096 41.27 103.779 40.6311L114.303 30.7911L115.911 29.2876L114.449 27.6422L100.452 11.8886ZM97.6128 32.7764C97.2428 32.5667 96.8148 32.447 96.3587 32.447H87.0245L85.4668 35.7806L85.4511 35.8141L85.4343 35.8472C84.4618 37.7619 82.7064 39.0501 80.7327 39.4844C80.7425 39.5942 80.7475 39.7053 80.7475 39.8176C80.7475 41.8618 79.0903 43.5176 77.0441 43.5176C74.9981 43.5176 73.3408 41.8618 73.3408 39.8176C73.3408 39.2082 73.4881 38.6332 73.749 38.1265L71.7533 37.4228L72.6444 35.2303L73.9479 32.0233L67.986 32.0176V54.2176H97.6128V32.7764ZM109.606 28.996L103.421 34.7787C103.31 30.9762 100.192 27.9294 96.3587 27.9294H85.585H84.1454L83.5363 29.2326L81.3878 33.8304C80.8295 34.8963 79.5733 35.39 78.4403 34.9898L78.439 34.9893L77.725 34.7376L81.6022 25.1989L81.6028 25.1973C81.9137 24.4308 82.5353 23.831 83.3132 23.5456L93.3886 20.4505L93.8091 20.3213L94.1504 20.0441L98.5073 16.5052L109.606 28.996ZM71.4891 49.2526C71.4891 47.4063 75.1906 46.4776 77.0441 46.4776C78.8977 46.4776 82.5992 47.4063 82.5992 49.2526V50.9176H71.4891V49.2526ZM93.7092 41.6676H86.3025V37.9676H93.7092V41.6676ZM93.7092 49.0676H86.3025V45.3676H93.7092V49.0676Z" fill="black"/>
</svg>
