<svg width="500" height="500" viewBox="0 0 500 500" fill="none" xmlns="http://www.w3.org/2000/svg">
<g clip-path="url(#clip0_1_20)">
<path d="M0 0L20.9201 78.0749L78.0749 20.9201L0 0ZM39.598 49.4975L495.05 504.95L504.95 495.05L49.4975 39.598L39.598 49.4975Z" fill="black"/>
<path fill-rule="evenodd" clip-rule="evenodd" d="M361.119 122.131L357.803 118.593L353.926 121.578L340.783 131.697L318.387 138.219L318.287 138.248L318.188 138.281C313.537 139.832 309.806 143.198 307.952 147.531L307.951 147.533L303.433 158.07H286.198C281.477 158.07 277.652 161.692 277.652 166.164V214.726C277.652 219.178 281.498 222.82 286.198 222.82H354.568C359.268 222.82 363.114 219.178 363.114 214.726V185.914C364.971 186.695 367.221 186.403 368.798 185.006L393.084 163.481L396.795 160.192L393.421 156.592L361.119 122.131ZM354.568 167.824C353.714 167.365 352.727 167.103 351.674 167.103H330.134L326.539 174.395L326.503 174.469L326.464 174.541C324.22 178.729 320.169 181.547 315.614 182.497C315.637 182.737 315.648 182.98 315.648 183.226C315.648 187.698 311.824 191.32 307.102 191.32C302.38 191.32 298.556 187.698 298.556 183.226C298.556 181.893 298.896 180.635 299.498 179.527L294.892 177.988L296.949 173.191L299.957 166.176L286.198 166.164V214.726H354.568V167.824ZM382.244 159.554L367.971 172.204C367.715 163.886 360.519 157.221 351.674 157.221H326.811H323.489L322.084 160.072L317.126 170.129C315.837 172.461 312.938 173.541 310.324 172.665L310.321 172.664L308.673 172.114L317.62 151.248L317.622 151.244C318.339 149.567 319.774 148.255 321.569 147.631L344.82 140.86L345.79 140.578L346.578 139.972L356.632 132.23L382.244 159.554ZM294.283 203.865C294.283 199.826 302.825 197.795 307.102 197.795C311.379 197.795 319.921 199.826 319.921 203.865V207.507H294.283V203.865ZM345.56 187.273H328.467V179.179H345.56V187.273ZM345.56 203.461H328.467V195.367H345.56V203.461Z" fill="black"/>
</g>
<defs>
<clipPath id="clip0_1_20">
<rect width="500" height="500" fill="white"/>
</clipPath>
</defs>
</svg>
