<svg width="500" height="500" viewBox="0 0 500 500" fill="none" xmlns="http://www.w3.org/2000/svg">
<path d="M451.001 0.999972L372.926 21.9201L430.08 79.0748L451.001 0.999972ZM9.94975 451.95L411.403 50.4974L401.503 40.5979L0.0502526 442.051L9.94975 451.95Z" fill="black"/>
<path d="M48 499L126.075 478.08L68.9201 420.925L48 499ZM97.4975 459.402L498.95 57.9497L489.05 48.0503L87.598 449.503L97.4975 459.402Z" fill="black"/>
<path fill-rule="evenodd" clip-rule="evenodd" d="M192.119 123.131L188.803 119.593L184.926 122.578L171.783 132.697L149.387 139.219L149.287 139.248L149.188 139.281C144.537 140.832 140.806 144.198 138.952 148.531L138.951 148.533L134.433 159.07H117.198C112.477 159.07 108.652 162.692 108.652 167.164V215.726C108.652 220.178 112.498 223.82 117.198 223.82H185.568C190.268 223.82 194.114 220.178 194.114 215.726V186.914C195.971 187.695 198.221 187.403 199.798 186.006L224.084 164.481L227.795 161.192L224.421 157.592L192.119 123.131ZM185.568 168.824C184.714 168.365 183.727 168.103 182.674 168.103H161.134L157.539 175.395L157.503 175.469L157.464 175.541C155.22 179.729 151.169 182.547 146.614 183.497C146.637 183.737 146.648 183.98 146.648 184.226C146.648 188.698 142.824 192.32 138.102 192.32C133.38 192.32 129.556 188.698 129.556 184.226C129.556 182.893 129.896 181.635 130.498 180.527L125.892 178.988L127.949 174.191L130.957 167.176L117.198 167.164V215.726H185.568V168.824ZM213.244 160.554L198.971 173.204C198.715 164.886 191.519 158.221 182.674 158.221H157.811H154.489L153.084 161.072L148.126 171.129C146.837 173.461 143.938 174.541 141.324 173.665L141.321 173.664L139.673 173.114L148.62 152.248L148.622 152.244C149.339 150.567 150.774 149.255 152.569 148.631L175.82 141.86L176.79 141.578L177.578 140.972L187.632 133.23L213.244 160.554ZM125.283 204.865C125.283 200.826 133.825 198.795 138.102 198.795C142.379 198.795 150.921 200.826 150.921 204.865V208.507H125.283V204.865ZM176.56 188.273H159.467V180.179H176.56V188.273ZM176.56 204.461H159.467V196.367H176.56V204.461Z" fill="black"/>
<path fill-rule="evenodd" clip-rule="evenodd" d="M331 276C328.791 276 327 277.791 327 280C327 282.209 328.791 284 331 284H347C349.209 284 351 282.209 351 280C351 277.791 349.209 276 347 276H331ZM363 276C360.791 276 359 277.791 359 280C359 282.209 360.791 284 363 284H379C381.209 284 383 282.209 383 280C383 277.791 381.209 276 379 276H363ZM343 308V300H335V308V312H331H327V340H343V308ZM359 304H351V298C351 294.687 348.313 292 345 292H333C329.687 292 327 294.687 327 298V304C322.583 304 319 307.583 319 312V317H279C274.58 317 271 320.58 271 325V373C271 377.4 274.6 381 279 381H343C347.4 381 351 377.4 351 373V343L350.909 343.045C350.969 342.706 351 342.357 351 342V328H359V342C359 345.313 361.687 348 365 348H385C388.313 348 391 345.313 391 342V312C391 307.583 387.417 304 383 304V298C383 294.687 380.313 292 377 292H365C361.687 292 359 294.687 359 298V304ZM359 312H351V320H359V312ZM325 348H343V373H279V325H319V342C319 345.313 321.687 348 325 348ZM367 308V340H383V312H379H375V308V300H367V308ZM299 333C303.488 333 307 336.273 307 341C307 345.727 303.488 349 299 349C294.512 349 291 345.727 291 341C291 336.273 294.512 333 299 333ZM287 361.5C287 357.231 295.118 355.072 299.183 355.072C303.248 355.072 311 357.231 311 361.5V365H287V361.5ZM335 361V353H319V361H335Z" fill="black"/>
</svg>
