<svg width="142" height="143" viewBox="0 0 142 143" fill="none" xmlns="http://www.w3.org/2000/svg">
<path d="M127.744 2.00024C127.744 0.895674 126.848 0.000244141 125.744 0.000244141H107.744C106.639 0.000244141 105.744 0.895674 105.744 2.00024C105.744 3.10481 106.639 4.00024 107.744 4.00024H123.744V20.0002C123.744 21.1048 124.639 22.0002 125.744 22.0002C126.848 22.0002 127.744 21.1048 127.744 20.0002V2.00024ZM3.41437 127.158L65.2862 65.2863L62.4578 62.4578L0.585938 124.33L3.41437 127.158ZM65.2862 65.2863L127.158 3.41446L124.33 0.58603L62.4578 62.4578L65.2862 65.2863Z" fill="black"/>
<path d="M14.2 140.25C14.2 141.355 15.0954 142.25 16.2 142.25H34.2C35.3046 142.25 36.2 141.355 36.2 140.25C36.2 139.145 35.3046 138.25 34.2 138.25H18.2V122.25C18.2 121.145 17.3046 120.25 16.2 120.25C15.0954 120.25 14.2 121.145 14.2 122.25V140.25ZM138.529 15.092L14.7858 138.836L17.6142 141.664L141.358 17.9205L138.529 15.092Z" fill="black"/>
<path fill-rule="evenodd" clip-rule="evenodd" d="M105.5 71C104.487 71 103.667 71.8187 103.667 72.8286C103.667 73.8385 104.487 74.6571 105.5 74.6571H112.833C113.846 74.6571 114.667 73.8385 114.667 72.8286C114.667 71.8187 113.846 71 112.833 71H105.5ZM120.167 71C119.154 71 118.333 71.8187 118.333 72.8286C118.333 73.8385 119.154 74.6571 120.167 74.6571H127.5C128.512 74.6571 129.333 73.8385 129.333 72.8286C129.333 71.8187 128.512 71 127.5 71H120.167ZM111 85.6286V81.9714H107.333V85.6286V87.4571H105.5H103.667V100.257H111V85.6286ZM118.333 83.8H114.667V81.0571C114.667 79.5426 113.435 78.3143 111.917 78.3143H106.417C104.898 78.3143 103.667 79.5426 103.667 81.0571V83.8C101.642 83.8 100 85.4379 100 87.4571V89.7429H81.6667C79.6408 89.7429 78 91.3794 78 93.4V115.343C78 117.354 79.65 119 81.6667 119H111C113.017 119 114.667 117.354 114.667 115.343V101.629L114.625 101.649C114.652 101.494 114.667 101.334 114.667 101.171V94.7714H118.333V101.171C118.333 102.686 119.565 103.914 121.083 103.914H130.25C131.768 103.914 133 102.686 133 101.171V87.4571C133 85.4379 131.358 83.8 129.333 83.8V81.0571C129.333 79.5426 128.102 78.3143 126.583 78.3143H121.083C119.565 78.3143 118.333 79.5426 118.333 81.0571V83.8ZM118.333 87.4571H114.667V91.1143H118.333V87.4571ZM102.75 103.914H111V115.343H81.6667V93.4H100V101.171C100 102.686 101.231 103.914 102.75 103.914ZM122 85.6286V100.257H129.333V87.4571H127.5H125.667V85.6286V81.9714H122V85.6286ZM90.8333 97.0571C92.8901 97.0571 94.5 98.5534 94.5 100.714C94.5 102.875 92.8901 104.371 90.8333 104.371C88.7766 104.371 87.1667 102.875 87.1667 100.714C87.1667 98.5534 88.7766 97.0571 90.8333 97.0571ZM85.3333 110.086C85.3333 108.134 89.0542 107.147 90.9173 107.147C92.7806 107.147 96.3333 108.134 96.3333 110.086V111.686H85.3333V110.086ZM107.333 109.857V106.2H100V109.857H107.333Z" fill="black"/>
<path fill-rule="evenodd" clip-rule="evenodd" d="M55.4517 18.8886L54.0145 17.2711L52.3347 18.6355L46.6393 23.2615L36.9346 26.2427L36.8911 26.2561L36.8481 26.2712C34.8329 26.9802 33.2161 28.5189 32.4123 30.5L32.4121 30.5007L30.4542 35.3176H22.986C20.9399 35.3176 19.2826 36.9734 19.2826 39.0176V61.2176C19.2826 63.2526 20.9491 64.9176 22.986 64.9176H52.6128C54.6496 64.9176 56.3161 63.2526 56.3161 61.2176V48.0465C57.1209 48.4034 58.0959 48.27 58.7793 47.6311L69.3032 37.7911L70.9111 36.2876L69.4491 34.6422L55.4517 18.8886ZM52.6128 39.7764C52.2428 39.5667 51.8148 39.447 51.3587 39.447H42.0245L40.4668 42.7806L40.4511 42.8141L40.4344 42.8472C39.4618 44.7619 37.7064 46.0501 35.7327 46.4844C35.7425 46.5942 35.7475 46.7053 35.7475 46.8176C35.7475 48.8618 34.0903 50.5176 32.0442 50.5176C29.9981 50.5176 28.3408 48.8618 28.3408 46.8176C28.3408 46.2082 28.4881 45.6332 28.7491 45.1265L26.7533 44.4228L27.6444 42.2303L28.948 39.0233L22.986 39.0176V61.2176H52.6128V39.7764ZM64.6056 35.996L58.4209 41.7787C58.31 37.9762 55.1916 34.9294 51.3587 34.9294H40.585H39.1454L38.5364 36.2326L36.3878 40.8304C35.8295 41.8963 34.5733 42.39 33.4403 41.9898L33.439 41.9893L32.725 41.7376L36.6022 32.1989L36.6029 32.1973C36.9137 31.4308 37.5353 30.831 38.3132 30.5456L48.3887 27.4505L48.8091 27.3213L49.1504 27.0441L53.5073 23.5052L64.6056 35.996ZM26.4891 56.2526C26.4891 54.4063 30.1906 53.4776 32.0442 53.4776C33.8977 53.4776 37.5992 54.4063 37.5992 56.2526V57.9176H26.4891V56.2526ZM48.7093 48.6676H41.3025V44.9676H48.7093V48.6676ZM48.7093 56.0676H41.3025V52.3676H48.7093V56.0676Z" fill="black"/>
</svg>
