<?xml version="1.0" encoding="iso-8859-1"?>
<!-- Generator: Adobe Illustrator 19.0.0, SVG Export Plug-In . SVG Version: 6.00 Build 0)  -->
<svg version="1.1" id="Layer_1" xmlns="http://www.w3.org/2000/svg" xmlns:xlink="http://www.w3.org/1999/xlink" x="0px" y="0px"
	 viewBox="0 0 330 330" style="enable-background:new 0 0 330 330;" xml:space="preserve">
<g id="XMLID_307_">
	<path id="XMLID_308_" d="M165,0c-8.284,0-15,6.716-15,15v16.353C125.986,35.648,105.445,50.056,92.947,70h144.105
		C224.555,50.056,204.014,35.648,180,31.353V15C180,6.716,173.284,0,165,0z"/>
	<path id="XMLID_309_" d="M295.001,190.016L280,190.015v-0.015H50h-6.207L35.001,190H35c-3.978,0-7.793,1.581-10.606,4.394
		C21.58,197.206,20,201.022,20,205v110c0,8.284,6.716,15,15,15h115v-45.011c0-8.284,6.716-15,15-15s15,6.716,15,15V330h115
		c8.284,0,15-6.716,15-15V205.016C310,196.732,303.285,190.017,295.001,190.016z"/>
	<path id="XMLID_311_" d="M280,115c0-8.284-6.716-15-15-15h-7.563h-8.79H81.353h-7.379H65c-8.284,0-15,6.716-15,15v45.001h230V115z"
		/>
</g>
<g>
</g>
<g>
</g>
<g>
</g>
<g>
</g>
<g>
</g>
<g>
</g>
<g>
</g>
<g>
</g>
<g>
</g>
<g>
</g>
<g>
</g>
<g>
</g>
<g>
</g>
<g>
</g>
<g>
</g>
</svg>
