<svg width="500" height="500" viewBox="0 0 500 500" fill="none" xmlns="http://www.w3.org/2000/svg">
<g clip-path="url(#clip0_1_14)">
<path d="M500 0L421.925 20.9201L479.08 78.0749L500 0ZM450.503 39.598L-4.95002 495.05L4.94948 504.95L460.402 49.4975L450.503 39.598Z" fill="black"/>
<path fill-rule="evenodd" clip-rule="evenodd" d="M361.119 254.131L357.803 250.593L353.926 253.578L340.783 263.697L318.387 270.219L318.287 270.248L318.188 270.281C313.537 271.832 309.806 275.198 307.952 279.531L307.951 279.533L303.433 290.07H286.198C281.477 290.07 277.652 293.692 277.652 298.164V346.726C277.652 351.178 281.498 354.82 286.198 354.82H354.568C359.268 354.82 363.114 351.178 363.114 346.726V317.914C364.971 318.695 367.221 318.403 368.798 317.006L393.084 295.481L396.795 292.192L393.421 288.592L361.119 254.131ZM354.568 299.823C353.714 299.365 352.727 299.103 351.674 299.103H330.134L326.539 306.395L326.503 306.469L326.464 306.541C324.22 310.729 320.169 313.547 315.614 314.497C315.637 314.737 315.648 314.98 315.648 315.226C315.648 319.698 311.824 323.32 307.102 323.32C302.38 323.32 298.556 319.698 298.556 315.226C298.556 313.893 298.896 312.635 299.498 311.527L294.892 309.987L296.949 305.191L299.957 298.176L286.198 298.164V346.726H354.568V299.823ZM382.244 291.554L367.971 304.204C367.715 295.885 360.519 289.221 351.674 289.221H326.811H323.489L322.084 292.072L317.126 302.129C315.837 304.461 312.938 305.541 310.324 304.665L310.321 304.664L308.673 304.114L317.62 283.248L317.622 283.244C318.339 281.567 319.774 280.255 321.569 279.631L344.82 272.86L345.79 272.578L346.578 271.972L356.632 264.23L382.244 291.554ZM294.283 335.865C294.283 331.826 302.825 329.795 307.102 329.795C311.379 329.795 319.921 331.826 319.921 335.865V339.507H294.283V335.865ZM345.56 319.273H328.467V311.179H345.56V319.273ZM345.56 335.46H328.467V327.367H345.56V335.46Z" fill="black"/>
</g>
<defs>
<clipPath id="clip0_1_14">
<rect width="500" height="500" fill="white"/>
</clipPath>
</defs>
</svg>
