<svg width="142" height="143" viewBox="0 0 142 143" fill="none" xmlns="http://www.w3.org/2000/svg">
<g clip-path="url(#clip0_129_22)">
<path d="M127.744 2C127.744 0.89543 126.848 0 125.744 0H107.744C106.639 0 105.744 0.89543 105.744 2C105.744 3.10457 106.639 4 107.744 4H123.744V20C123.744 21.1045 124.639 22 125.744 22C126.848 22 127.744 21.1045 127.744 20V2ZM3.41424 127.158L65.2861 65.286L62.4576 62.4576L0.585815 124.329L3.41424 127.158ZM65.2861 65.286L127.158 3.41421L124.329 0.585786L62.4576 62.4576L65.2861 65.286Z" fill="black"/>
<path d="M14.1997 140.25C14.1997 141.354 15.0952 142.25 16.1997 142.25H34.1997C35.3043 142.25 36.1997 141.354 36.1997 140.25C36.1997 139.145 35.3043 138.25 34.1997 138.25H18.1997V122.25C18.1997 121.145 17.3043 120.25 16.1997 120.25C15.0952 120.25 14.1997 121.145 14.1997 122.25V140.25ZM138.529 15.0919L14.7855 138.836L17.6139 141.664L141.358 17.9203L138.529 15.0919Z" fill="black"/>
<path fill-rule="evenodd" clip-rule="evenodd" d="M43.5 17C42.4875 17 41.6667 17.8187 41.6667 18.8286C41.6667 19.8385 42.4875 20.6571 43.5 20.6571H50.8333C51.8458 20.6571 52.6667 19.8385 52.6667 18.8286C52.6667 17.8187 51.8458 17 50.8333 17H43.5ZM58.1667 17C57.1542 17 56.3333 17.8187 56.3333 18.8286C56.3333 19.8385 57.1542 20.6571 58.1667 20.6571H65.5C66.5125 20.6571 67.3333 19.8385 67.3333 18.8286C67.3333 17.8187 66.5125 17 65.5 17H58.1667ZM49 31.6286V27.9714H45.3333V31.6286V33.4571H43.5H41.6667V46.2571H49V31.6286ZM56.3333 29.8H52.6667V27.0571C52.6667 25.5426 51.4352 24.3143 49.9167 24.3143H44.4167C42.8982 24.3143 41.6667 25.5426 41.6667 27.0571V29.8C39.6422 29.8 38 31.4379 38 33.4571V35.7429H19.6667C17.6408 35.7429 16 37.3794 16 39.4V61.3429C16 63.3543 17.65 65 19.6667 65H49C51.0167 65 52.6667 63.3543 52.6667 61.3429V47.6286L52.6251 47.6493C52.6524 47.4941 52.6667 47.3344 52.6667 47.1714V40.7714H56.3333V47.1714C56.3333 48.686 57.5648 49.9143 59.0833 49.9143H68.25C69.7685 49.9143 71 48.686 71 47.1714V33.4571C71 31.4379 69.3578 29.8 67.3333 29.8V27.0571C67.3333 25.5426 66.1018 24.3143 64.5833 24.3143H59.0833C57.5648 24.3143 56.3333 25.5426 56.3333 27.0571V29.8ZM56.3333 33.4571H52.6667V37.1143H56.3333V33.4571ZM40.75 49.9143H49V61.3429H19.6667V39.4H38V47.1714C38 48.686 39.2315 49.9143 40.75 49.9143ZM60 31.6286V46.2571H67.3333V33.4571H65.5H63.6667V31.6286V27.9714H60V31.6286ZM28.8333 43.0571C30.8901 43.0571 32.5 44.5534 32.5 46.7143C32.5 48.8752 30.8901 50.3714 28.8333 50.3714C26.7766 50.3714 25.1667 48.8752 25.1667 46.7143C25.1667 44.5534 26.7766 43.0571 28.8333 43.0571ZM23.3333 56.0857C23.3333 54.1341 27.0542 53.1473 28.9173 53.1473C30.7806 53.1473 34.3333 54.1341 34.3333 56.0857V57.6857H23.3333V56.0857ZM45.3333 55.8571V52.2H38V55.8571H45.3333Z" fill="black"/>
<path fill-rule="evenodd" clip-rule="evenodd" d="M114.452 65.8886L113.014 64.2711L111.335 65.6355L105.639 70.2615L95.9346 73.2427L95.8911 73.2561L95.8481 73.2712C93.8329 73.9802 92.2161 75.5189 91.4123 77.5L91.412 77.5007L89.4542 82.3176H81.986C79.9399 82.3176 78.2826 83.9734 78.2826 86.0176V108.218C78.2826 110.253 79.9491 111.918 81.986 111.918H111.613C113.65 111.918 115.316 110.253 115.316 108.218V95.0465C116.121 95.4034 117.096 95.27 117.779 94.6311L128.303 84.7911L129.911 83.2876L128.449 81.6422L114.452 65.8886ZM111.613 86.7764C111.243 86.5667 110.815 86.447 110.359 86.447H101.025L99.4668 89.7806L99.4511 89.8141L99.4343 89.8472C98.4618 91.7619 96.7064 93.0501 94.7327 93.4844C94.7425 93.5942 94.7475 93.7053 94.7475 93.8176C94.7475 95.8618 93.0903 97.5176 91.0441 97.5176C88.9981 97.5176 87.3408 95.8618 87.3408 93.8176C87.3408 93.2082 87.4881 92.6332 87.749 92.1265L85.7533 91.4228L86.6444 89.2303L87.9479 86.0233L81.986 86.0176V108.218H111.613V86.7764ZM123.606 82.996L117.421 88.7787C117.31 84.9762 114.192 81.9294 110.359 81.9294H99.585H98.1454L97.5363 83.2326L95.3878 87.8304C94.8295 88.8963 93.5733 89.39 92.4403 88.9898L92.439 88.9893L91.725 88.7376L95.6022 79.1989L95.6028 79.1973C95.9137 78.4308 96.5353 77.831 97.3132 77.5456L107.389 74.4505L107.809 74.3213L108.15 74.0441L112.507 70.5052L123.606 82.996ZM85.4891 103.253C85.4891 101.406 89.1906 100.478 91.0441 100.478C92.8977 100.478 96.5992 101.406 96.5992 103.253V104.918H85.4891V103.253ZM107.709 95.6676H100.303V91.9676H107.709V95.6676ZM107.709 103.068H100.303V99.3676H107.709V103.068Z" fill="black"/>
</g>
<defs>
<clipPath id="clip0_129_22">
<rect width="142" height="143" fill="white"/>
</clipPath>
</defs>
</svg>
