<svg width="128" height="128" viewBox="0 0 128 128" fill="none" xmlns="http://www.w3.org/2000/svg">
<path d="M125.744 126.744C126.296 126.744 126.744 126.296 126.744 125.744V116.744C126.744 116.191 126.296 115.744 125.744 115.744C125.191 115.744 124.744 116.191 124.744 116.744V124.744H116.744C116.191 124.744 115.744 125.191 115.744 125.744C115.744 126.296 116.191 126.744 116.744 126.744H125.744ZM1.29292 2.70714L4.10528 5.51949L5.51949 4.10528L2.70714 1.29292L1.29292 2.70714ZM9.72999 11.1442L15.3547 16.7689L16.7689 15.3547L11.1442 9.72999L9.72999 11.1442ZM20.9794 22.3936L26.6041 28.0183L28.0183 26.6041L22.3936 20.9794L20.9794 22.3936ZM32.2288 33.643L37.8536 39.2677L39.2678 37.8535L33.6431 32.2288L32.2288 33.643ZM43.4783 44.8925L49.103 50.5172L50.5172 49.103L44.8925 43.4782L43.4783 44.8925ZM54.7277 56.1419L60.3524 61.7666L61.7666 60.3524L56.1419 54.7277L54.7277 56.1419ZM65.9771 67.3913L71.6018 73.016L73.016 71.6018L67.3913 65.9771L65.9771 67.3913ZM77.2265 78.6407L82.8512 84.2654L84.2655 82.8512L78.6408 77.2265L77.2265 78.6407ZM88.476 89.8901L94.1007 95.5149L95.5149 94.1006L89.8902 88.4759L88.476 89.8901ZM99.7254 101.14L105.35 106.764L106.764 105.35L101.14 99.7254L99.7254 101.14ZM110.975 112.389L116.6 118.014L118.014 116.599L112.389 110.975L110.975 112.389ZM122.224 123.638L125.037 126.451L126.451 125.037L123.638 122.224L122.224 123.638ZM125.744 127.744C126.848 127.744 127.744 126.848 127.744 125.744V107.744C127.744 106.639 126.848 105.744 125.744 105.744C124.639 105.744 123.744 106.639 123.744 107.744V123.744H107.744C106.639 123.744 105.744 124.639 105.744 125.744C105.744 126.848 106.639 127.744 107.744 127.744H125.744ZM0.585815 3.41424L3.39817 6.2266L6.2266 3.39817L3.41424 0.585815L0.585815 3.41424ZM9.02289 11.8513L14.6476 17.476L17.476 14.6476L11.8513 9.02289L9.02289 11.8513ZM20.2723 23.1007L25.897 28.7254L28.7255 25.897L23.1007 20.2723L20.2723 23.1007ZM31.5217 34.3501L37.1464 39.9748L39.9749 37.1464L34.3502 31.5217L31.5217 34.3501ZM42.7712 45.5996L48.3959 51.2243L51.2243 48.3958L45.5996 42.7711L42.7712 45.5996ZM54.0206 56.849L59.6453 62.4737L62.4737 59.6453L56.849 54.0206L54.0206 56.849ZM65.27 68.0984L70.8947 73.7231L73.7231 70.8947L68.0984 65.27L65.27 68.0984ZM76.5194 79.3478L82.1441 84.9725L84.9726 82.1441L79.3479 76.5194L76.5194 79.3478ZM87.7689 90.5973L93.3936 96.222L96.222 93.3935L90.5973 87.7688L87.7689 90.5973ZM99.0183 101.847L104.643 107.471L107.471 104.643L101.847 99.0183L99.0183 101.847ZM110.268 113.096L115.892 118.721L118.721 115.892L113.096 110.268L110.268 113.096ZM121.517 124.346L124.33 127.158L127.158 124.329L124.346 121.517L121.517 124.346Z" fill="black"/>
<path fill-rule="evenodd" clip-rule="evenodd" d="M91.5 9C90.4875 9 89.6667 9.81868 89.6667 10.8286C89.6667 11.8385 90.4875 12.6571 91.5 12.6571H98.8333C99.8458 12.6571 100.667 11.8385 100.667 10.8286C100.667 9.81868 99.8458 9 98.8333 9H91.5ZM106.167 9C105.154 9 104.333 9.81868 104.333 10.8286C104.333 11.8385 105.154 12.6571 106.167 12.6571H113.5C114.512 12.6571 115.333 11.8385 115.333 10.8286C115.333 9.81868 114.512 9 113.5 9H106.167ZM97 23.6286V19.9714H93.3333V23.6286V25.4571H91.5H89.6667V38.2571H97V23.6286ZM104.333 21.8H100.667V19.0571C100.667 17.5426 99.4352 16.3143 97.9167 16.3143H92.4167C90.8982 16.3143 89.6667 17.5426 89.6667 19.0571V21.8C87.6422 21.8 86 23.4379 86 25.4571V27.7429H67.6667C65.6408 27.7429 64 29.3794 64 31.4V53.3429C64 55.3543 65.65 57 67.6667 57H97C99.0167 57 100.667 55.3543 100.667 53.3429V39.6286L100.625 39.6493C100.652 39.4941 100.667 39.3344 100.667 39.1714V32.7714H104.333V39.1714C104.333 40.686 105.565 41.9143 107.083 41.9143H116.25C117.768 41.9143 119 40.686 119 39.1714V25.4571C119 23.4379 117.358 21.8 115.333 21.8V19.0571C115.333 17.5426 114.102 16.3143 112.583 16.3143H107.083C105.565 16.3143 104.333 17.5426 104.333 19.0571V21.8ZM104.333 25.4571H100.667V29.1143H104.333V25.4571ZM88.75 41.9143H97V53.3429H67.6667V31.4H86V39.1714C86 40.686 87.2315 41.9143 88.75 41.9143ZM108 23.6286V38.2571H115.333V25.4571H113.5H111.667V23.6286V19.9714H108V23.6286ZM76.8333 35.0571C78.8901 35.0571 80.5 36.5534 80.5 38.7143C80.5 40.8752 78.8901 42.3714 76.8333 42.3714C74.7766 42.3714 73.1667 40.8752 73.1667 38.7143C73.1667 36.5534 74.7766 35.0571 76.8333 35.0571ZM71.3333 48.0857C71.3333 46.1341 75.0542 45.1473 76.9173 45.1473C78.7806 45.1473 82.3333 46.1341 82.3333 48.0857V49.6857H71.3333V48.0857ZM93.3333 47.8571V44.2H86V47.8571H93.3333Z" fill="black"/>
</svg>
