<svg width="500" height="500" viewBox="0 0 500 500" fill="none" xmlns="http://www.w3.org/2000/svg">
<g clip-path="url(#clip0_1_3)">
<path d="M500 500L489.54 460.963L460.963 489.54L500 500ZM-2.47487 2.47487L11.414 16.3638L16.3638 11.414L2.47487 -2.47487L-2.47487 2.47487ZM25.3029 30.2527L53.0807 58.0304L58.0304 53.0807L30.2527 25.3029L25.3029 30.2527ZM66.9696 71.9193L94.7473 99.6971L99.6971 94.7473L71.9193 66.9696L66.9696 71.9193ZM108.636 113.586L136.414 141.364L141.364 136.414L113.586 108.636L108.636 113.586ZM150.303 155.253L178.081 183.03L183.03 178.081L155.253 150.303L150.303 155.253ZM191.97 196.919L219.747 224.697L224.697 219.747L196.919 191.97L191.97 196.919ZM233.636 238.586L261.414 266.364L266.364 261.414L238.586 233.636L233.636 238.586ZM275.303 280.253L303.081 308.03L308.03 303.081L280.253 275.303L275.303 280.253ZM316.97 321.919L344.747 349.697L349.697 344.747L321.919 316.97L316.97 321.919ZM358.636 363.586L386.414 391.364L391.364 386.414L363.586 358.636L358.636 363.586ZM400.303 405.253L428.081 433.03L433.03 428.081L405.253 400.303L400.303 405.253ZM441.97 446.919L469.747 474.697L474.697 469.747L446.919 441.97L441.97 446.919ZM500 500L479.08 421.925L421.925 479.08L500 500ZM-4.94975 4.94975L8.93914 18.8386L18.8386 8.93914L4.94975 -4.94975L-4.94975 4.94975ZM22.828 32.7275L50.6058 60.5053L60.5053 50.6058L32.7275 22.828L22.828 32.7275ZM64.4947 74.3942L92.2725 102.172L102.172 92.2725L74.3942 64.4947L64.4947 74.3942ZM106.161 116.061L133.939 143.839L143.839 133.939L116.061 106.161L106.161 116.061ZM147.828 157.728L175.606 185.505L185.505 175.606L157.728 147.828L147.828 157.728ZM189.495 199.394L217.272 227.172L227.172 217.272L199.394 189.495L189.495 199.394ZM231.161 241.061L258.939 268.839L268.839 258.939L241.061 231.161L231.161 241.061ZM272.828 282.728L300.606 310.505L310.505 300.606L282.728 272.828L272.828 282.728ZM314.495 324.394L342.272 352.172L352.172 342.272L324.394 314.495L314.495 324.394ZM356.161 366.061L383.939 393.839L393.839 383.939L366.061 356.161L356.161 366.061ZM397.828 407.727L425.606 435.505L435.505 425.606L407.727 397.828L397.828 407.727ZM439.495 449.394L467.272 477.172L477.172 467.272L449.394 439.495L439.495 449.394Z" fill="black"/>
<path fill-rule="evenodd" clip-rule="evenodd" d="M337 118C334.791 118 333 119.791 333 122C333 124.209 334.791 126 337 126H353C355.209 126 357 124.209 357 122C357 119.791 355.209 118 353 118H337ZM369 118C366.791 118 365 119.791 365 122C365 124.209 366.791 126 369 126H385C387.209 126 389 124.209 389 122C389 119.791 387.209 118 385 118H369ZM349 150V142H341V150V154H337H333V182H349V150ZM365 146H357V140C357 136.687 354.313 134 351 134H339C335.687 134 333 136.687 333 140V146C328.583 146 325 149.583 325 154V159H285C280.58 159 277 162.58 277 167V215C277 219.4 280.6 223 285 223H349C353.4 223 357 219.4 357 215V185L356.909 185.045C356.969 184.706 357 184.357 357 184V170H365V184C365 187.313 367.687 190 371 190H391C394.313 190 397 187.313 397 184V154C397 149.583 393.417 146 389 146V140C389 136.687 386.313 134 383 134H371C367.687 134 365 136.687 365 140V146ZM365 154H357V162H365V154ZM331 190H349V215H285V167H325V184C325 187.313 327.687 190 331 190ZM373 150V182H389V154H385H381V150V142H373V150ZM305 175C309.488 175 313 178.273 313 183C313 187.727 309.488 191 305 191C300.512 191 297 187.727 297 183C297 178.273 300.512 175 305 175ZM293 203.5C293 199.231 301.118 197.072 305.183 197.072C309.248 197.072 317 199.231 317 203.5V207H293V203.5ZM341 203V195H325V203H341Z" fill="black"/>
</g>
<defs>
<clipPath id="clip0_1_3">
<rect width="500" height="500" fill="white"/>
</clipPath>
</defs>
</svg>
